SplineFontDB: 3.2
FontName: Inconsolata-ExtraCondensed
FullName: Inconsolata Extra Condensed
FamilyName: Inconsolata Extra Condensed
Weight: Book
Copyright: Copyright 2006 The Inconsolata Project Authors (https://github.com/cyrealtype/Inconsolata)
Version: 3.000; ttfautohint (v1.8.3)
ItalicAngle: -9
UnderlinePosition: -297
UnderlineWidth: 102
Ascent: 1802
Descent: 246
InvalidEm: 0
sfntRevision: 0x00030000
LayerCount: 2
Layer: 0 1 "Back" 1
Layer: 1 1 "Fore" 0
XUID: [1021 866 1185736127 22164]
StyleMap: 0x0040
FSType: 0
OS2Version: 4
OS2_WeightWidthSlopeOnly: 0
OS2_UseTypoMetrics: 1
CreationTime: 1576097233
ModificationTime: 1732402467
PfmFamily: 81
TTFWeight: 400
TTFWidth: 2
LineGap: 0
VLineGap: 0
Panose: 0 0 0 0 0 0 0 0 0 0
OS2TypoAscent: 1759
OS2TypoAOffset: 0
OS2TypoDescent: -389
OS2TypoDOffset: 0
OS2TypoLinegap: 0
OS2WinAscent: 2056
OS2WinAOffset: 0
OS2WinDescent: 930
OS2WinDOffset: 0
HheadAscent: 1759
HheadAOffset: 0
HheadDescent: -389
HheadDOffset: 0
OS2SubXSize: 1331
OS2SubYSize: 1229
OS2SubXOff: 0
OS2SubYOff: 154
OS2SupXSize: 1331
OS2SupYSize: 1229
OS2SupXOff: 0
OS2SupYOff: 717
OS2StrikeYSize: 102
OS2StrikeYPos: 561
OS2CapHeight: 1276
OS2XHeight: 936
OS2Vendor: 'CYRE'
OS2CodePages: 60000193.cdd40000
OS2UnicodeRanges: a00000ff.0000f9eb.00000020.00000000
Lookup: 1 0 0 "'aalt' Access All Alternates in Latin lookup 0" { "'aalt' Access All Alternates in Latin lookup 0 subtable"  } ['aalt' ('DFLT' <'dflt' > 'latn' <'AZE ' 'CAT ' 'CRT ' 'KAZ ' 'MOL ' 'ROM ' 'TAT ' 'TRK ' 'dflt' > ) ]
Lookup: 3 0 0 "'aalt' Access All Alternates in Latin lookup 1" { "'aalt' Access All Alternates in Latin lookup 1 subtable"  } ['aalt' ('DFLT' <'dflt' > 'latn' <'AZE ' 'CAT ' 'CRT ' 'KAZ ' 'MOL ' 'ROM ' 'TAT ' 'TRK ' 'dflt' > ) ]

StartChar: A
Encoding: 65 65 1
Width: 768
VWidth: 2441
GlyphClass: 2
Flags: HW
AnchorPoint: "Anchor-3" 551 0 basechar 0
AnchorPoint: "Anchor-2" 299 0 basechar 0
AnchorPoint: "Anchor-0" 539.902 1521 basechar 0
LayerCount: 2
Fore
SplineSet
474.6484375 1109 m 1,0,-1
 276.229492188 576 l 1,1,-1
 503.229492188 576 l 1,2,-1
 474.6484375 1109 l 1,0,-1
532 0 m 1,3,-1
 508.481445312 445 l 1,4,-1
 227.481445312 445 l 1,5,-1
 61 0 l 1,6,-1
 -69 0 l 1,7,-1
 524.020507812 1547 l 1,8,-1
 565.020507812 1547 l 1,9,-1
 667 0 l 1,10,-1
 532 0 l 1,3,-1
EndSplineSet
Substitution2: "Single Substitution lookup 29 subtable" ordfeminine
Substitution2: "'aalt' Access All Alternates in Latin lookup 0 subtable" ordfeminine
EndChar

StartChar: AE
Encoding: 198 198 26
Width: 768
VWidth: 2441
GlyphClass: 1
Flags: HW
LayerCount: 2
Fore
SplineSet
234.111328125 550 m 1,0,-1
 383.111328125 550 l 1,1,-1
 534.620117188 1374 l 1,2,-1
 519.620117188 1374 l 1,3,-1
 234.111328125 550 l 1,0,-1
-81 0 m 1,4,-1
 460.219726562 1523 l 1,5,-1
 896.219726562 1523 l 1,6,-1
 873.887695312 1382 l 1,7,-1
 641.887695312 1382 l 1,8,-1
 560.319335938 867 l 1,9,-1
 752.319335938 867 l 1,10,-1
 729.037109375 720 l 1,11,-1
 537.037109375 720 l 1,12,-1
 445.490234375 142 l 1,13,-1
 673.490234375 142 l 1,14,-1
 651 0 l 1,15,-1
 296 0 l 1,16,-1
 362.045898438 417 l 1,17,-1
 190.045898438 417 l 1,18,-1
 43 0 l 1,19,-1
 -81 0 l 1,4,-1
EndSplineSet
EndChar

StartChar: B
Encoding: 66 66 28
Width: 768
VWidth: 2441
GlyphClass: 2
Flags: HW
AnchorPoint: "Anchor-2" 333 0 basechar 0
AnchorPoint: "Anchor-0" 573.902 1521 basechar 0
LayerCount: 2
Fore
SplineSet
152.490234375 142 m 1,0,-1
 331.490234375 142 l 2,1,2
 436.490234375 142 436.490234375 142 510.260742188 210 c 128,-1,3
 584.03125 278 584.03125 278 609.213867188 437 c 0,4,5
 630.913085938 574 630.913085938 574 582.850585938 662 c 128,-1,6
 534.788085938 750 534.788085938 750 400.788085938 750 c 2,7,-1
 248.788085938 750 l 1,8,-1
 152.490234375 142 l 1,0,-1
270.645507812 888 m 1,9,-1
 414.645507812 888 l 2,10,11
 549.645507812 888 549.645507812 888 608.232421875 958 c 128,-1,12
 666.819335938 1028 666.819335938 1028 683.291015625 1132 c 0,13,14
 699.129882812 1232 699.129882812 1232 663.508789062 1307 c 128,-1,15
 627.887695312 1382 627.887695312 1382 510.887695312 1382 c 2,16,-1
 348.887695312 1382 l 1,17,-1
 270.645507812 888 l 1,9,-1
-11 0 m 1,18,-1
 229.90234375 1521 l 1,19,-1
 532.90234375 1521 l 2,20,21
 695.90234375 1521 695.90234375 1521 775.96484375 1433 c 128,-1,22
 856.02734375 1345 856.02734375 1345 825.6171875 1153 c 0,23,24
 803.126953125 1011 803.126953125 1011 751.53515625 931.5 c 128,-1,25
 699.943359375 852 699.943359375 852 613.083007812 815 c 1,26,27
 694.90625 776 694.90625 776 736.568359375 676 c 128,-1,28
 778.229492188 576 778.229492188 576 754.629882812 427 c 0,29,30
 721.844726562 220 721.844726562 220 609.421875 110 c 128,-1,31
 497 0 497 0 290 0 c 2,32,-1
 -11 0 l 1,18,-1
EndSplineSet
EndChar

StartChar: C
Encoding: 67 67 29
Width: 768
VWidth: 2441
GlyphClass: 2
Flags: HW
AnchorPoint: "Anchor-2" 386 0 basechar 0
AnchorPoint: "Anchor-0" 610.902 1521 basechar 0
LayerCount: 2
Fore
SplineSet
391.19921875 -24 m 0,0,1
 277.19921875 -24 277.19921875 -24 194.577148438 51 c 128,-1,2
 111.956054688 126 111.956054688 126 82.5400390625 297 c 128,-1,3
 53.1240234375 468 53.1240234375 468 95.10546875 752 c 0,4,5
 132.325195312 987 132.325195312 987 193.399414062 1139 c 128,-1,6
 254.474609375 1291 254.474609375 1291 329.25390625 1378 c 128,-1,7
 404.033203125 1465 404.033203125 1465 482.41796875 1499 c 128,-1,8
 560.803710938 1533 560.803710938 1533 634.803710938 1533 c 0,9,10
 748.803710938 1533 748.803710938 1533 820.270507812 1466.5 c 128,-1,11
 891.73828125 1400 891.73828125 1400 910.782226562 1274 c 1,12,-1
 794.5859375 1197 l 1,13,-1
 770.735351562 1179 l 1,14,-1
 763.953125 1193 l 1,15,16
 768.961914062 1212 768.961914062 1212 771.3671875 1233.5 c 128,-1,17
 773.772460938 1255 773.772460938 1255 762.474609375 1291 c 1,18,19
 733.135742188 1352 733.135742188 1352 693.461914062 1373 c 128,-1,20
 653.788085938 1394 653.788085938 1394 606.788085938 1394 c 0,21,22
 484.788085938 1394 484.788085938 1394 387.23828125 1239 c 128,-1,23
 289.688476562 1084 289.688476562 1084 239.005859375 764 c 0,24,25
 189.90625 454 189.90625 454 243.876953125 286.5 c 128,-1,26
 297.84765625 119 297.84765625 119 413.84765625 119 c 0,27,28
 543.84765625 119 543.84765625 119 641.981445312 284 c 1,29,-1
 724.459960938 186 l 1,30,31
 653.512695312 79 653.512695312 79 574.85546875 27.5 c 128,-1,32
 496.19921875 -24 496.19921875 -24 391.19921875 -24 c 0,0,1
EndSplineSet
EndChar

StartChar: D
Encoding: 68 68 36
Width: 768
VWidth: 2441
GlyphClass: 2
Flags: HW
AnchorPoint: "Anchor-4" 453.688 762 basechar 0
AnchorPoint: "Anchor-2" 333 0 basechar 0
AnchorPoint: "Anchor-0" 522.902 1521 basechar 0
LayerCount: 2
Fore
SplineSet
162.381835938 135 m 1,0,-1
 242.381835938 135 l 2,1,2
 412.381835938 135 412.381835938 135 520.381835938 296 c 0,3,4
 624.591796875 451.350585938 624.591796875 451.350585938 667.630859375 723.083984375 c 0,5,6
 669.1953125 732.96484375 669.1953125 732.96484375 670.6796875 743 c 0,7,8
 701.248046875 936 701.248046875 936 693.817382812 1078.5 c 128,-1,9
 686.387695312 1221 686.387695312 1221 630.137695312 1301.5 c 128,-1,10
 573.887695312 1382 573.887695312 1382 459.887695312 1382 c 2,11,-1
 359.887695312 1382 l 1,12,-1
 162.381835938 135 l 1,0,-1
-3.31640625 -2 m 1,13,-1
 237.90234375 1521 l 1,14,-1
 488.90234375 1521 l 2,15,16
 625.90234375 1521 625.90234375 1521 697.483398438 1471 c 128,-1,17
 769.064453125 1421 769.064453125 1421 804.225585938 1321 c 128,-1,18
 839.387695312 1221 839.387695312 1221 842.267578125 1084.5 c 128,-1,19
 845.1484375 948 845.1484375 948 814.10546875 752 c 0,20,21
 753.037109375 398 753.037109375 398 613.860351562 198 c 128,-1,22
 474.68359375 -2 474.68359375 -2 224.68359375 -2 c 2,23,-1
 -3.31640625 -2 l 1,13,-1
EndSplineSet
EndChar

StartChar: Eth
Encoding: 208 208 37
Width: 768
VWidth: 2441
GlyphClass: 1
Flags: HW
LayerCount: 2
Fore
SplineSet
189.698242188 137 m 1,0,-1
 265.698242188 137 l 2,1,2
 424.698242188 137 424.698242188 137 527.698242188 298 c 128,-1,3
 630.698242188 459 630.698242188 459 676.313476562 747 c 0,4,5
 722.719726562 1040 722.719726562 1040 677.06640625 1209.5 c 128,-1,6
 631.412109375 1379 631.412109375 1379 481.412109375 1379 c 2,7,-1
 386.412109375 1379 l 1,8,-1
 306.745117188 876 l 1,9,-1
 458.745117188 876 l 1,10,-1
 436.25390625 734 l 1,11,-1
 284.25390625 734 l 1,12,-1
 189.698242188 137 l 1,0,-1
32.68359375 -2 m 1,13,-1
 149.25390625 734 l 1,14,-1
 72.25390625 734 l 1,15,-1
 94.7451171875 876 l 1,16,-1
 171.745117188 876 l 1,17,-1
 273.90234375 1521 l 1,18,-1
 510.90234375 1521 l 2,19,20
 612.90234375 1521 612.90234375 1521 675.830078125 1479.5 c 128,-1,21
 738.756835938 1438 738.756835938 1438 771.541015625 1373.5 c 128,-1,22
 804.325195312 1309 804.325195312 1309 820.921875 1237 c 0,23,24
 832.735351562 1179 832.735351562 1179 837.204101562 1062 c 128,-1,25
 841.672851562 945 841.672851562 945 811.580078125 755 c 0,26,27
 749.65234375 364 749.65234375 364 603.66796875 181 c 128,-1,28
 457.68359375 -2 457.68359375 -2 248.68359375 -2 c 2,29,-1
 32.68359375 -2 l 1,13,-1
EndSplineSet
EndChar

StartChar: E
Encoding: 69 69 42
Width: 768
VWidth: 2441
GlyphClass: 2
Flags: HW
AnchorPoint: "Anchor-3" 678.801 24 basechar 0
AnchorPoint: "Anchor-2" 333 0 basechar 0
AnchorPoint: "Anchor-0" 593.902 1521 basechar 0
LayerCount: 2
Fore
SplineSet
4 0 m 1,0,-1
 245.219726562 1523 l 1,1,-1
 904.219726562 1523 l 1,2,-1
 881.887695312 1382 l 1,3,-1
 361.887695312 1382 l 1,4,-1
 280.319335938 867 l 1,5,-1
 705.319335938 867 l 1,6,-1
 682.037109375 720 l 1,7,-1
 257.037109375 720 l 1,8,-1
 165.490234375 142 l 1,9,-1
 680.490234375 142 l 1,10,-1
 658 0 l 1,11,-1
 4 0 l 1,0,-1
EndSplineSet
EndChar

StartChar: uni01B8
Encoding: 440 440 65
Width: 768
VWidth: 2441
GlyphClass: 1
Flags: HW
LayerCount: 2
Fore
SplineSet
360.723632812 -27 m 0,0,1
 192.723632812 -27 192.723632812 -27 123.705078125 96 c 128,-1,2
 54.6865234375 219 54.6865234375 219 86.521484375 420 c 0,3,4
 119.782226562 630 119.782226562 630 231.530273438 761 c 128,-1,5
 343.279296875 892 343.279296875 892 489.49609375 906 c 1,6,-1
 275.095703125 1377 l 1,7,-1
 297.90234375 1521 l 1,8,-1
 817.90234375 1521 l 1,9,-1
 795.095703125 1377 l 1,10,-1
 422.095703125 1377 l 1,11,-1
 627.813476562 908 l 1,12,-1
 607.698242188 781 l 1,13,14
 586.720703125 782.44140625 586.720703125 782.44140625 566.913085938 782.44140625 c 0,15,16
 490.514648438 782.44140625 490.514648438 782.44140625 431.530273438 761 c 0,17,18
 357.25390625 734 357.25390625 734 306.900390625 656 c 128,-1,19
 256.545898438 578 256.545898438 578 233.421875 432 c 0,20,21
 183.213867188 115 183.213867188 115 395.055664062 114 c 0,22,23
 441.055664062 114 441.055664062 114 473.931640625 129 c 128,-1,24
 506.807617188 144 506.807617188 144 539.716796875 175 c 1,25,26
 566.260742188 210 566.260742188 210 574.453125 227 c 128,-1,27
 582.645507812 244 582.645507812 244 581.655273438 263 c 1,28,-1
 595.03125 278 l 1,29,-1
 612.129882812 266 l 1,30,-1
 660.58984375 130 l 1,31,32
 590.96875 44 590.96875 44 516.346679688 8.5 c 128,-1,33
 441.723632812 -27 441.723632812 -27 360.723632812 -27 c 0,0,1
EndSplineSet
EndChar

StartChar: F
Encoding: 70 70 66
Width: 768
VWidth: 2441
GlyphClass: 2
Flags: HW
AnchorPoint: "Anchor-2" 333 0 basechar 0
AnchorPoint: "Anchor-0" 573.902 1521 basechar 0
LayerCount: 2
Fore
SplineSet
41 0 m 1,0,-1
 282.219726562 1523 l 1,1,-1
 894.219726562 1523 l 1,2,-1
 871.887695312 1382 l 1,3,-1
 399.887695312 1382 l 1,4,-1
 322.279296875 892 l 1,5,-1
 699.279296875 892 l 1,6,-1
 677.10546875 752 l 1,7,-1
 300.10546875 752 l 1,8,-1
 181 0 l 1,9,-1
 41 0 l 1,0,-1
EndSplineSet
EndChar

StartChar: G
Encoding: 71 71 67
Width: 768
VWidth: 2441
GlyphClass: 2
Flags: HW
AnchorPoint: "Anchor-2" 360 0 basechar 0
AnchorPoint: "Anchor-0" 614.902 1521 basechar 0
LayerCount: 2
Fore
SplineSet
375.19921875 -24 m 0,0,1
 184.19921875 -24 184.19921875 -24 104.7421875 172 c 128,-1,2
 25.28515625 368 25.28515625 368 84.6796875 743 c 0,3,4
 86.5751953125 755.599609375 86.5751953125 755.599609375 88.533203125 767.959960938 c 0,5,6
 125.727539062 1002.79980469 125.727539062 1002.79980469 185.30078125 1151 c 0,7,8
 248.008789062 1307 248.008789062 1307 324.470703125 1392 c 128,-1,9
 400.93359375 1477 400.93359375 1477 477.764648438 1507.5 c 128,-1,10
 554.595703125 1538 554.595703125 1538 617.595703125 1538 c 0,11,12
 724.595703125 1538 724.595703125 1538 798.983398438 1471 c 128,-1,13
 873.372070312 1404 873.372070312 1404 895.216796875 1302 c 1,14,-1
 792.912109375 1218 l 1,15,-1
 769.903320312 1199 l 1,16,-1
 761.803710938 1211 l 1,17,18
 763.129882812 1232 763.129882812 1232 763.796875 1252 c 128,-1,19
 764.46484375 1272 764.46484375 1272 745.008789062 1307 c 0,20,21
 716.977539062 1351 716.977539062 1351 681.8828125 1372.5 c 128,-1,22
 646.788085938 1394 646.788085938 1394 592.788085938 1394 c 0,23,24
 519.788085938 1394 519.788085938 1394 450.838867188 1337.5 c 128,-1,25
 381.890625 1281 381.890625 1281 325.666992188 1147 c 128,-1,26
 269.443359375 1013 269.443359375 1013 232.22265625 778 c 0,27,28
 182.015625 461 182.015625 461 227.7734375 289 c 128,-1,29
 273.53125 117 273.53125 117 392.53125 117 c 0,30,31
 436.53125 117 436.53125 117 488.4609375 135.5 c 128,-1,32
 540.391601562 154 540.391601562 154 584.04296875 196 c 1,33,-1
 645.971679688 587 l 1,34,-1
 464.971679688 587 l 1,35,-1
 486.829101562 725 l 1,36,-1
 806.829101562 725 l 1,37,-1
 711.956054688 126 l 1,38,39
 624.444335938 47 624.444335938 47 540.321289062 11.5 c 128,-1,40
 456.19921875 -24 456.19921875 -24 375.19921875 -24 c 0,0,1
EndSplineSet
EndChar

StartChar: H
Encoding: 72 72 74
Width: 768
VWidth: 2441
GlyphClass: 2
Flags: HW
AnchorPoint: "Anchor-4" 636.688 762 basechar 0
AnchorPoint: "Anchor-2" 516 0 basechar 0
AnchorPoint: "Anchor-0" 756.902 1521 basechar 0
LayerCount: 2
Fore
SplineSet
232.90234375 1521 m 1,0,-1
 393.90234375 1521 l 1,1,-1
 391.209960938 1504 l 1,2,3
 378.993164062 1490 378.993164062 1490 373.799804688 1473 c 128,-1,4
 368.607421875 1456 368.607421875 1456 361.956054688 1414 c 2,5,-1
 275.635742188 869 l 1,6,-1
 649.635742188 869 l 1,7,-1
 752.90234375 1521 l 1,8,-1
 915.90234375 1521 l 1,9,-1
 913.209960938 1504 l 1,10,11
 898.993164062 1490 898.993164062 1490 893.799804688 1473 c 128,-1,12
 888.607421875 1456 888.607421875 1456 881.956054688 1414 c 2,13,-1
 658 0 l 1,14,-1
 509 0 l 1,15,-1
 624.145507812 727 l 1,16,-1
 253.145507812 727 l 1,17,-1
 138 0 l 1,18,-1
 -8 0 l 1,19,-1
 232.90234375 1521 l 1,0,-1
EndSplineSet
EndChar

StartChar: Hbar
Encoding: 294 294 75
Width: 768
VWidth: 2441
GlyphClass: 2
Flags: HW
AnchorPoint: "Anchor-4" 574.688 762 basechar 0
AnchorPoint: "Anchor-2" 454 0 basechar 0
AnchorPoint: "Anchor-0" 694.902 1521 basechar 0
LayerCount: 2
Fore
SplineSet
252.635742188 869 m 1,0,-1
 586.635742188 869 l 1,1,-1
 641.278320312 1214 l 1,2,-1
 307.278320312 1214 l 1,3,-1
 252.635742188 869 l 1,0,-1
109.278320312 1214 m 1,4,-1
 130.977539062 1351 l 1,5,-1
 196.977539062 1351 l 1,6,-1
 223.90234375 1521 l 1,7,-1
 367.90234375 1521 l 1,8,-1
 365.209960938 1504 l 1,9,10
 353.993164062 1490 353.993164062 1490 349.799804688 1473 c 128,-1,11
 345.607421875 1456 345.607421875 1456 338.956054688 1414 c 2,12,-1
 328.977539062 1351 l 1,13,-1
 662.977539062 1351 l 1,14,-1
 689.90234375 1521 l 1,15,-1
 836.90234375 1521 l 1,16,-1
 834.209960938 1504 l 1,17,18
 820.993164062 1490 820.993164062 1490 816.299804688 1473 c 128,-1,19
 811.607421875 1456 811.607421875 1456 804.956054688 1414 c 2,20,-1
 794.977539062 1351 l 1,21,-1
 866.977539062 1351 l 1,22,-1
 845.278320312 1214 l 1,23,-1
 773.278320312 1214 l 1,24,-1
 581 0 l 1,25,-1
 447 0 l 1,26,-1
 562.145507812 727 l 1,27,-1
 230.145507812 727 l 1,28,-1
 115 0 l 1,29,-1
 -17 0 l 1,30,-1
 175.278320312 1214 l 1,31,-1
 109.278320312 1214 l 1,4,-1
EndSplineSet
EndChar

StartChar: I
Encoding: 73 73 79
Width: 768
VWidth: 2441
GlyphClass: 2
Flags: HW
AnchorPoint: "Anchor-3" 509 0 basechar 0
AnchorPoint: "Anchor-2" 335 0 basechar 0
AnchorPoint: "Anchor-0" 556.902 1521 basechar 0
LayerCount: 2
Fore
SplineSet
45 0 m 1,0,-1
 67.015625 139 l 1,1,-1
 268.015625 139 l 1,2,-1
 464.887695312 1382 l 1,3,-1
 271.887695312 1382 l 1,4,-1
 293.90234375 1521 l 1,5,-1
 824.90234375 1521 l 1,6,-1
 802.887695312 1382 l 1,7,-1
 604.887695312 1382 l 1,8,-1
 407.698242188 137 l 1,9,-1
 616.698242188 137 l 1,10,-1
 595 0 l 1,11,-1
 45 0 l 1,0,-1
EndSplineSet
EndChar

StartChar: J
Encoding: 74 74 94
Width: 768
VWidth: 2441
GlyphClass: 2
Flags: HW
AnchorPoint: "Anchor-2" 326 0 basechar 0
AnchorPoint: "Anchor-0" 703.902 1521 basechar 0
LayerCount: 2
Fore
SplineSet
228.723632812 -27 m 0,0,1
 72.7236328125 -27 72.7236328125 -27 -0.9443359375 114 c 1,2,-1
 94.6552734375 263 l 1,3,-1
 107.297851562 286 l 1,4,-1
 120.03125 278 l 1,5,6
 124.021484375 259 124.021484375 259 123.641601562 234.5 c 128,-1,7
 123.260742188 210 123.260742188 210 141.350585938 179 c 1,8,9
 188.1640625 121 188.1640625 121 251.84765625 119 c 0,10,11
 324.84765625 119 324.84765625 119 377.865234375 207.5 c 128,-1,12
 430.881835938 296 430.881835938 296 464.458984375 508 c 2,13,-1
 602.887695312 1382 l 1,14,-1
 402.887695312 1382 l 1,15,-1
 424.90234375 1521 l 1,16,-1
 924.90234375 1521 l 1,17,-1
 902.887695312 1382 l 1,18,-1
 744.887695312 1382 l 1,19,-1
 606.776367188 510 l 2,20,21
 605.287109375 499.975585938 605.287109375 499.975585938 603.732421875 490.15625 c 0,22,23
 573.795898438 301.1484375 573.795898438 301.1484375 519.35546875 188.5 c 0,24,25
 462.086914062 70 462.086914062 70 385.905273438 21.5 c 128,-1,26
 309.723632812 -27 309.723632812 -27 228.723632812 -27 c 0,0,1
EndSplineSet
EndChar

StartChar: K
Encoding: 75 75 96
Width: 768
VWidth: 2441
GlyphClass: 1
Flags: HW
LayerCount: 2
Fore
SplineSet
323.204101562 740 m 1,0,-1
 224.614257812 610 l 1,1,-1
 128 0 l 1,2,-1
 -19 0 l 1,3,-1
 221.90234375 1521 l 1,4,-1
 390.90234375 1521 l 1,5,-1
 388.209960938 1504 l 1,6,7
 371.993164062 1490 371.993164062 1490 365.299804688 1473 c 128,-1,8
 358.607421875 1456 358.607421875 1456 351.956054688 1414 c 2,9,-1
 258.666992188 825 l 1,10,-1
 777.803710938 1533 l 1,11,12
 794.01171875 1528 794.01171875 1528 825.45703125 1524.5 c 128,-1,13
 856.90234375 1521 856.90234375 1521 883.90234375 1521 c 2,14,-1
 927.90234375 1521 l 1,15,-1
 443.943359375 852 l 1,16,-1
 714 0 l 1,17,-1
 544.416015625 -10 l 1,18,-1
 323.204101562 740 l 1,0,-1
EndSplineSet
EndChar

StartChar: uni0198
Encoding: 408 408 98
Width: 768
VWidth: 2441
GlyphClass: 1
Flags: HW
LayerCount: 2
Fore
SplineSet
225.90234375 1521 m 1,0,-1
 393.90234375 1521 l 1,1,-1
 391.209960938 1504 l 1,2,3
 374.993164062 1490 374.993164062 1490 367.799804688 1473 c 128,-1,4
 360.607421875 1456 360.607421875 1456 353.956054688 1414 c 2,5,-1
 260.666992188 825 l 1,6,7
 414.22265625 1100 414.22265625 1100 529.03515625 1253.5 c 128,-1,8
 643.846679688 1407 643.846679688 1407 731.666992188 1469 c 128,-1,9
 819.486328125 1531 819.486328125 1531 891.486328125 1531 c 0,10,11
 928.486328125 1531 928.486328125 1531 949.90234375 1521 c 1,12,-1
 920.02734375 1345 l 1,13,-1
 916.225585938 1321 l 1,14,-1
 907.225585938 1321 l 1,15,16
 897.443359375 1335 897.443359375 1335 887.52734375 1345 c 128,-1,17
 877.611328125 1355 877.611328125 1355 848.0859375 1358 c 2,18,-1
 841.0859375 1358 l 2,19,20
 824.0859375 1358 824.0859375 1358 796.051757812 1342 c 128,-1,21
 768.017578125 1326 768.017578125 1326 722.653320312 1279.5 c 128,-1,22
 677.288085938 1233 677.288085938 1233 607.637695312 1140.5 c 128,-1,23
 537.987304688 1048 537.987304688 1048 436.595703125 894 c 1,24,-1
 717 0 l 1,25,-1
 547.416015625 -10 l 1,26,-1
 328.829101562 725 l 1,27,28
 277 644 277 644 217.427734375 552 c 1,29,-1
 130 0 l 1,30,-1
 -15 0 l 1,31,-1
 225.90234375 1521 l 1,0,-1
EndSplineSet
EndChar

StartChar: L
Encoding: 76 76 99
Width: 768
VWidth: 2441
GlyphClass: 2
Flags: HW
AnchorPoint: "Anchor-4" 210.688 762 basechar 0
AnchorPoint: "Anchor-2" 333 0 basechar 0
AnchorPoint: "Anchor-1" 390.757 1116 basechar 0
AnchorPoint: "Anchor-0" 488.902 1521 basechar 0
LayerCount: 2
Fore
SplineSet
253.90234375 1521 m 1,0,-1
 421.90234375 1521 l 1,1,-1
 419.209960938 1504 l 1,2,3
 402.993164062 1490 402.993164062 1490 396.799804688 1473 c 128,-1,4
 390.607421875 1456 390.607421875 1456 383.956054688 1414 c 2,5,-1
 183.599609375 149 l 1,6,-1
 686.599609375 149 l 1,7,-1
 663 0 l 1,8,-1
 13 0 l 1,9,-1
 253.90234375 1521 l 1,0,-1
EndSplineSet
EndChar

StartChar: uni01C7
Encoding: 455 455 100
Width: 768
VWidth: 2380
GlyphClass: 1
Flags: HW
LayerCount: 2
Fore
SplineSet
21.521484375 98 m 1,0,-1
 246.90234375 1521 l 1,1,-1
 401.90234375 1521 l 1,2,3
 398.52734375 1506 398.52734375 1506 393.893554688 1502 c 0,4,5
 389.259765625 1498 389.259765625 1498 383.833984375 1489 c 0,6,7
 378.409179688 1480 378.409179688 1480 371.548828125 1443 c 2,8,-1
 179.586914062 231 l 1,9,-1
 424.586914062 231 l 1,10,11
 424.428710938 230 424.428710938 230 403.521484375 98 c 1,12,-1
 21.521484375 98 l 1,0,-1
331.037109375 -246 m 0,13,14
 185.037109375 -246 185.037109375 -246 102.15234375 -119 c 1,15,-1
 210.900390625 12 l 1,16,17
 225.366210938 -4 225.366210938 -4 221.149414062 -18 c 0,18,19
 216.931640625 -32 216.931640625 -32 236.655273438 -59 c 0,20,21
 246.962890625 -76 246.962890625 -76 272.745117188 -90 c 0,22,23
 298.528320312 -104 298.528320312 -104 344.528320312 -104 c 0,24,25
 412.528320312 -104 412.528320312 -104 460.19921875 -24 c 0,26,27
 507.869140625 56 507.869140625 56 539.071289062 253 c 2,28,-1
 719.3125 1391 l 1,29,-1
 535.3125 1391 l 1,30,-1
 555.90234375 1521 l 1,31,-1
 872.90234375 1521 l 1,32,-1
 672.546875 256 l 1,33,34
 669.967773438 237.127929688 669.967773438 237.127929688 667.1015625 219.03515625 c 0,0,0
 642.02734375 60.7177734375 642.02734375 60.7177734375 594.981445312 -38 c 0,1,2
 542.559570312 -148 542.559570312 -148 473.797851562 -197 c 0,3,4
 405.037109375 -246 405.037109375 -246 331.037109375 -246 c 0,13,14
EndSplineSet
EndChar

StartChar: Lcaron
Encoding: 317 317 102
Width: 768
VWidth: 2441
GlyphClass: 2
Flags: HW
AnchorPoint: "Anchor-4" 210.688 762 basechar 0
AnchorPoint: "Anchor-2" 333 0 basechar 0
AnchorPoint: "Anchor-1" 390.757 1116 basechar 0
AnchorPoint: "Anchor-0" 488.902 1521 basechar 0
LayerCount: 2
Fore
SplineSet
644.126953125 1011 m 1,0,-1
 598.887695312 1060 l 1,1,2
 645.96484375 1111 645.96484375 1111 678.780273438 1163.5 c 128,-1,3
 711.595703125 1216 711.595703125 1216 716.98046875 1250 c 0,4,5
 721.256835938 1277 721.256835938 1277 707.241210938 1299 c 128,-1,6
 693.225585938 1321 693.225585938 1321 680.369140625 1344 c 128,-1,7
 667.51171875 1367 667.51171875 1367 673.0546875 1402 c 0,8,9
 680.815429688 1451 680.815429688 1451 710.909179688 1480 c 128,-1,10
 741.001953125 1509 741.001953125 1509 777.001953125 1509 c 0,11,12
 812.001953125 1509 812.001953125 1509 836.379882812 1473.5 c 128,-1,13
 860.756835938 1438 860.756835938 1438 849.51171875 1367 c 0,14,15
 836.999023438 1288 836.999023438 1288 784.036132812 1203 c 128,-1,16
 731.07421875 1118 731.07421875 1118 644.126953125 1011 c 1,0,-1
253.90234375 1521 m 1,17,-1
 421.90234375 1521 l 1,18,-1
 419.209960938 1504 l 1,19,20
 402.993164062 1490 402.993164062 1490 396.799804688 1473 c 128,-1,21
 390.607421875 1456 390.607421875 1456 383.956054688 1414 c 2,22,-1
 183.599609375 149 l 1,23,-1
 686.599609375 149 l 1,24,-1
 663 0 l 1,25,-1
 13 0 l 1,26,-1
 253.90234375 1521 l 1,17,-1
EndSplineSet
EndChar

StartChar: uni01C8
Encoding: 456 456 106
Width: 768
VWidth: 2363
GlyphClass: 1
Flags: HW
LayerCount: 2
Fore
SplineSet
247.037109375 -246 m 0,0,1
 169.037109375 -246 169.037109375 -246 119.4765625 -208.5 c 128,-1,2
 69.916015625 -171 69.916015625 -171 37.578125 -110 c 1,3,-1
 147.384765625 34 l 1,4,5
 156.009765625 19 156.009765625 19 155.158203125 1 c 128,-1,6
 154.307617188 -17 154.307617188 -17 162.481445312 -38 c 128,-1,7
 170.655273438 -59 170.655273438 -59 205.903320312 -89 c 0,8,9
 223.528320312 -104 223.528320312 -104 239.7109375 -106 c 128,-1,10
 255.89453125 -108 255.89453125 -108 277.89453125 -108 c 0,11,12
 319.89453125 -108 319.89453125 -108 361.220703125 -87 c 128,-1,13
 402.546875 -66 402.546875 -66 435.866210938 -4 c 128,-1,14
 469.186523438 58 469.186523438 58 488.66796875 181 c 2,15,-1
 623.453125 1032 l 1,16,-1
 405.453125 1032 l 1,17,-1
 425.250976562 1157 l 1,18,-1
 768.250976562 1157 l 1,19,-1
 615.092773438 190 l 2,20,21
 590.2265625 33 590.2265625 33 534.6796875 -62 c 128,-1,22
 479.133789062 -157 479.133789062 -157 405.744140625 -200.5 c 128,-1,23
 332.354492188 -244 332.354492188 -244 247.037109375 -246 c 0,0,1
21.33203125 141 m 1,24,-1
 240.853515625 1527 l 1,25,-1
 387.853515625 1527 l 1,26,27
 384.368164062 1505 384.368164062 1505 375.17578125 1488 c 128,-1,28
 365.983398438 1471 365.983398438 1471 362.657226562 1450 c 2,29,-1
 176.713867188 276 l 1,30,-1
 416.713867188 276 l 1,31,-1
 393.33203125 141 l 1,32,-1
 21.33203125 141 l 1,24,-1
723.204101562 1384 m 0,33,34
 687.204101562 1384 687.204101562 1384 666.796875 1413 c 128,-1,35
 646.390625 1442 646.390625 1442 652.725585938 1482 c 0,36,37
 659.377929688 1524 659.377929688 1524 689.470703125 1553 c 128,-1,38
 719.564453125 1582 719.564453125 1582 754.564453125 1582 c 0,39,40
 792.564453125 1582 792.564453125 1582 814.8125 1552 c 128,-1,41
 837.061523438 1522 837.061523438 1522 830.725585938 1482 c 128,-1,42
 824.390625 1442 824.390625 1442 792.796875 1413 c 128,-1,43
 761.204101562 1384 761.204101562 1384 723.204101562 1384 c 0,33,34
EndSplineSet
EndChar

StartChar: Lslash
Encoding: 321 321 108
Width: 768
VWidth: 2441
GlyphClass: 1
Flags: HW
LayerCount: 2
Fore
SplineSet
23 0 m 1,0,-1
 116.60546875 591 l 1,1,-1
 28.111328125 550 l 1,2,-1
 52.3447265625 703 l 1,3,-1
 141.313476562 747 l 1,4,-1
 263.90234375 1521 l 1,5,-1
 421.90234375 1521 l 2,6,7
 428.90234375 1521 428.90234375 1521 430.110351562 1516 c 0,8,9
 428.52734375 1506 428.52734375 1506 417.23046875 1491.5 c 128,-1,10
 405.93359375 1477 405.93359375 1477 396.756835938 1438 c 2,11,-1
 296.182617188 803 l 1,12,-1
 586.08984375 935 l 2,13,14
 601.198242188 942 601.198242188 942 613.727539062 948.5 c 128,-1,15
 626.256835938 955 626.256835938 955 634.048828125 960 c 1,16,-1
 608.548828125 799 l 1,17,-1
 271.950195312 650 l 1,18,-1
 192.599609375 149 l 1,19,-1
 691.599609375 149 l 1,20,-1
 668 0 l 1,21,-1
 23 0 l 1,0,-1
EndSplineSet
EndChar

StartChar: M
Encoding: 77 77 109
Width: 768
VWidth: 2441
GlyphClass: 2
Flags: HW
AnchorPoint: "Anchor-2" 335 0 basechar 0
AnchorPoint: "Anchor-0" 575.902 1521 basechar 0
LayerCount: 2
Fore
SplineSet
-26 0 m 1,0,-1
 214.90234375 1521 l 1,1,-1
 327.90234375 1521 l 1,2,-1
 464.875 820 l 1,3,-1
 828.219726562 1523 l 1,4,-1
 939.219726562 1523 l 1,5,-1
 698 0 l 1,6,-1
 565 0 l 1,7,-1
 739.856445312 1104 l 1,8,-1
 435.735351562 535 l 1,9,-1
 388.735351562 535 l 1,10,-1
 277.748046875 1097 l 1,11,-1
 104 0 l 1,12,-1
 -26 0 l 1,0,-1
EndSplineSet
EndChar

StartChar: N
Encoding: 78 78 111
Width: 768
VWidth: 2441
GlyphClass: 2
Flags: HW
AnchorPoint: "Anchor-2" 333 0 basechar 0
AnchorPoint: "Anchor-0" 573.902 1521 basechar 0
LayerCount: 2
Fore
SplineSet
229.90234375 1521 m 1,0,-1
 363.90234375 1521 l 1,1,-1
 613.213867188 437 l 1,2,-1
 784.90234375 1521 l 1,3,-1
 935.90234375 1521 l 1,4,-1
 933.209960938 1504 l 1,5,6
 916.993164062 1490 916.993164062 1490 910.299804688 1473 c 128,-1,7
 903.607421875 1456 903.607421875 1456 896.956054688 1414 c 2,8,-1
 673 0 l 1,9,-1
 560 0 l 1,10,-1
 303.6171875 1153 l 1,11,-1
 121 0 l 1,12,-1
 -11 0 l 1,13,-1
 229.90234375 1521 l 1,0,-1
EndSplineSet
EndChar

StartChar: Eng
Encoding: 330 330 117
Width: 768
VWidth: 2344
GlyphClass: 2
Flags: HW
AnchorPoint: "Anchor-2" 313.184 159 basechar 0
AnchorPoint: "Anchor-0" 528.902 1521 basechar 0
LayerCount: 2
Fore
SplineSet
722.90234375 1521 m 1,0,-1
 848.90234375 1521 l 1,1,2
 846.84375 1508 846.84375 1508 840.6015625 1497 c 128,-1,3
 834.359375 1486 834.359375 1486 830.557617188 1462 c 2,4,-1
 624.18359375 159 l 2,5,6
 589.497070312 -60 589.497070312 -60 507.767578125 -153 c 128,-1,7
 426.037109375 -246 426.037109375 -246 320.037109375 -246 c 0,8,9
 245.037109375 -246 245.037109375 -246 194.58984375 -192 c 1,10,-1
 269.130859375 -56 l 1,11,12
 281.1796875 -62 281.1796875 -62 285.779296875 -74 c 128,-1,13
 290.37890625 -86 290.37890625 -86 301.63671875 -97 c 128,-1,14
 312.89453125 -108 312.89453125 -108 345.89453125 -108 c 0,15,16
 415.89453125 -108 415.89453125 -108 451.010742188 -31.5 c 128,-1,17
 486.126953125 45 486.126953125 45 514.78515625 207 c 1,18,-1
 286.635742188 1191 l 1,19,-1
 123.18359375 159 l 1,20,-1
 6.18359375 159 l 1,21,-1
 221.90234375 1521 l 1,22,-1
 342.90234375 1521 l 1,23,-1
 569.26953125 551 l 1,24,-1
 722.90234375 1521 l 1,0,-1
EndSplineSet
EndChar

StartChar: O
Encoding: 79 79 120
Width: 768
VWidth: 2441
GlyphClass: 2
Flags: HW
AnchorPoint: "Anchor-4" 438.688 762 basechar 0
AnchorPoint: "Anchor-3" 384.801 24 basechar 0
AnchorPoint: "Anchor-2" 318 0 basechar 0
AnchorPoint: "Anchor-1" 756.856 1426 basechar 0
AnchorPoint: "Anchor-0" 558.902 1521 basechar 0
LayerCount: 2
Fore
SplineSet
336.055664062 114 m 0,0,1
 406.055664062 114 406.055664062 114 467.137695312 174.5 c 128,-1,2
 528.220703125 235 528.220703125 235 578.735351562 374 c 128,-1,3
 629.250976562 513 629.250976562 513 667.10546875 752 c 0,4,5
 721.272460938 1094 721.272460938 1094 682.134765625 1241.5 c 128,-1,6
 642.99609375 1389 642.99609375 1389 537.99609375 1389 c 0,7,8
 433.99609375 1389 433.99609375 1389 347.634765625 1241.5 c 128,-1,9
 261.272460938 1094 261.272460938 1094 207.10546875 752 c 0,10,11
 169.092773438 512 169.092773438 512 176.65625 373.5 c 128,-1,12
 184.220703125 235 184.220703125 235 226.137695312 174.5 c 128,-1,13
 268.055664062 114 268.055664062 114 336.055664062 114 c 0,0,1
313.723632812 -27 m 128,-1,15
 136.723632812 -27 136.723632812 -27 70.3916015625 154 c 128,-1,16
 4.05859375 335 4.05859375 335 70.10546875 752 c 0,17,18
 134.250976562 1157 134.250976562 1157 259.369140625 1344 c 128,-1,19
 384.486328125 1531 384.486328125 1531 560.486328125 1531 c 0,20,21
 737.486328125 1531 737.486328125 1531 803.948242188 1344.5 c 128,-1,22
 870.409179688 1158 870.409179688 1158 806.10546875 752 c 0,23,24
 740.05859375 335 740.05859375 335 615.391601562 154 c 128,-1,14
 490.723632812 -27 490.723632812 -27 313.723632812 -27 c 128,-1,15
EndSplineSet
Substitution2: "Single Substitution lookup 29 subtable" ordmasculine
Substitution2: "'aalt' Access All Alternates in Latin lookup 0 subtable" ordmasculine
EndChar

StartChar: Oslash
Encoding: 216 216 148
Width: 768
VWidth: 2441
GlyphClass: 2
Flags: HW
AnchorPoint: "Anchor-4" 438.688 762 basechar 0
AnchorPoint: "Anchor-3" 384.801 24 basechar 0
AnchorPoint: "Anchor-2" 318 0 basechar 0
AnchorPoint: "Anchor-1" 756.856 1426 basechar 0
AnchorPoint: "Anchor-0" 558.902 1521 basechar 0
LayerCount: 2
Fore
SplineSet
336.055664062 114 m 0,0,1
 406.055664062 114 406.055664062 114 467.137695312 174.5 c 128,-1,2
 528.220703125 235 528.220703125 235 578.735351562 374 c 128,-1,3
 629.250976562 513 629.250976562 513 667.10546875 752 c 0,4,5
 688.803710938 889 688.803710938 889 694.934570312 994 c 128,-1,6
 701.064453125 1099 701.064453125 1099 692.943359375 1174 c 1,7,-1
 203.577148438 212 l 1,8,9
 226.5 161 226.5 161 258.778320312 137.5 c 128,-1,10
 291.055664062 114 291.055664062 114 336.055664062 114 c 0,0,1
207.10546875 752 m 0,11,12
 187.1484375 626 187.1484375 626 179.547851562 527.5 c 128,-1,13
 171.947265625 429 171.947265625 429 176.860351562 359 c 1,14,-1
 660.008789062 1307 l 1,15,16
 621.6171875 1389.01171875 621.6171875 1389.01171875 539.969726562 1389.01171875 c 0,17,18
 538.986328125 1389.01171875 538.986328125 1389.01171875 537.99609375 1389 c 0,19,20
 433.99609375 1389 433.99609375 1389 347.634765625 1241.5 c 128,-1,21
 261.272460938 1094 261.272460938 1094 207.10546875 752 c 0,11,12
44.6865234375 -103 m 1,22,-1
 -35.1865234375 -58 l 1,23,-1
 71.599609375 149 l 1,24,25
 39.6455078125 244 39.6455078125 244 38.2451171875 393 c 128,-1,26
 36.8447265625 542 36.8447265625 542 70.10546875 752 c 0,27,28
 134.250976562 1157 134.250976562 1157 259.369140625 1344 c 128,-1,29
 384.486328125 1531 384.486328125 1531 560.486328125 1531 c 0,30,31
 671.486328125 1531 671.486328125 1531 738.241210938 1460 c 1,32,-1
 842.709960938 1665 l 1,33,-1
 918.94921875 1616 l 1,34,-1
 793.303710938 1372 l 1,35,36
 832.256835938 1277 832.256835938 1277 836.366210938 1123 c 128,-1,37
 840.474609375 969 840.474609375 969 806.10546875 752 c 0,38,39
 740.05859375 335 740.05859375 335 615.891601562 154 c 128,-1,40
 491.723632812 -27 491.723632812 -27 313.723632812 -27 c 0,41,42
 191.723632812 -27 191.723632812 -27 124.552734375 54 c 1,43,-1
 44.6865234375 -103 l 1,22,-1
EndSplineSet
EndChar

StartChar: OE
Encoding: 338 338 154
Width: 768
VWidth: 2441
GlyphClass: 1
Flags: HW
LayerCount: 2
Fore
SplineSet
206.58984375 130 m 0,0,1
 244.58984375 130 244.58984375 130 278.405273438 182.5 c 128,-1,2
 312.220703125 235 312.220703125 235 333.890625 315 c 1,3,-1
 471.52734375 1184 l 1,4,5
 473.573242188 1279 473.573242188 1279 457.97265625 1341.5 c 128,-1,6
 442.372070312 1404 442.372070312 1404 395.372070312 1404 c 0,7,8
 359.372070312 1404 359.372070312 1404 322.764648438 1346.5 c 128,-1,9
 286.157226562 1289 286.157226562 1289 246.142578125 1150 c 128,-1,10
 206.126953125 1011 206.126953125 1011 167.005859375 764 c 0,11,12
 119.490234375 464 119.490234375 464 127.540039062 297 c 128,-1,13
 135.58984375 130 135.58984375 130 206.58984375 130 c 0,0,1
161.307617188 -17 m 0,14,15
 87.3076171875 -17 87.3076171875 -17 45.1318359375 54.5 c 128,-1,16
 2.9560546875 126 2.9560546875 126 -0.6181640625 296 c 128,-1,17
 -4.1923828125 466 -4.1923828125 466 42.6884765625 762 c 0,18,19
 109.52734375 1184 109.52734375 1184 202.45703125 1363.5 c 128,-1,20
 295.38671875 1543 295.38671875 1543 411.38671875 1543 c 0,21,22
 445.38671875 1543 445.38671875 1543 472.194335938 1526 c 128,-1,23
 499.001953125 1509 499.001953125 1509 516.924804688 1458 c 1,24,-1
 527.219726562 1523 l 1,25,-1
 899.219726562 1523 l 1,26,-1
 876.887695312 1382 l 1,27,-1
 628.887695312 1382 l 1,28,-1
 547.319335938 867 l 1,29,-1
 760.319335938 867 l 1,30,-1
 737.037109375 720 l 1,31,-1
 524.037109375 720 l 1,32,-1
 432.490234375 142 l 1,33,-1
 676.490234375 142 l 1,34,-1
 654 0 l 1,35,-1
 284 0 l 1,36,-1
 295.086914062 70 l 1,37,38
 262.326171875 21 262.326171875 21 229.81640625 2 c 128,-1,39
 197.307617188 -17 197.307617188 -17 161.307617188 -17 c 0,14,15
EndSplineSet
EndChar

StartChar: P
Encoding: 80 80 155
Width: 768
VWidth: 2441
GlyphClass: 2
Flags: HW
AnchorPoint: "Anchor-2" 65 0 basechar 0
AnchorPoint: "Anchor-0" 573.902 1521 basechar 0
LayerCount: 2
Fore
SplineSet
276.766601562 813 m 1,0,-1
 456.766601562 813 l 2,1,2
 568.766601562 813 568.766601562 813 635.461914062 890 c 128,-1,3
 702.158203125 967 702.158203125 967 721.797851562 1091 c 0,4,5
 743.1796875 1226 743.1796875 1226 700.899414062 1300 c 128,-1,6
 658.620117188 1374 658.620117188 1374 547.620117188 1374 c 2,7,-1
 365.620117188 1374 l 1,8,-1
 276.766601562 813 l 1,0,-1
1 0 m 1,9,-1
 241.90234375 1521 l 1,10,-1
 573.90234375 1521 l 2,11,12
 759.90234375 1521 759.90234375 1521 828.346679688 1407 c 128,-1,13
 896.791015625 1293 896.791015625 1293 865.748046875 1097 c 0,14,15
 834.071289062 897 834.071289062 897 726.014648438 783 c 128,-1,16
 617.958984375 669 617.958984375 669 448.958984375 669 c 2,17,-1
 253.958984375 669 l 1,18,-1
 148 0 l 1,19,-1
 1 0 l 1,9,-1
EndSplineSet
EndChar

StartChar: Thorn
Encoding: 222 222 156
Width: 768
VWidth: 2441
GlyphClass: 1
Flags: HW
LayerCount: 2
Fore
SplineSet
226.46875 527 m 1,0,-1
 431.46875 527 l 2,1,2
 545.46875 527 545.46875 527 606.297851562 608 c 128,-1,3
 667.126953125 689 667.126953125 689 684.866210938 801 c 128,-1,4
 702.60546875 913 702.60546875 913 664.909179688 997 c 128,-1,5
 627.213867188 1081 627.213867188 1081 506.213867188 1081 c 2,6,-1
 314.213867188 1081 l 1,7,-1
 226.46875 527 l 1,0,-1
1 0 m 1,8,-1
 241.90234375 1521 l 1,9,-1
 398.90234375 1521 l 2,10,11
 403.5859375 1519 403.5859375 1519 401.793945312 1514 c 0,12,13
 400.685546875 1507 400.685546875 1507 390.151367188 1491 c 128,-1,14
 379.6171875 1475 379.6171875 1475 373.1328125 1453 c 2,15,-1
 337.49609375 1228 l 1,16,-1
 547.49609375 1228 l 2,17,18
 666.49609375 1228 666.49609375 1228 734.388671875 1170.5 c 128,-1,19
 802.282226562 1113 802.282226562 1113 825.235351562 1018 c 128,-1,20
 848.188476562 923 848.188476562 923 829.658203125 806 c 0,21,22
 801.940429688 631 801.940429688 631 696.092773438 512 c 128,-1,23
 590.245117188 393 590.245117188 393 410.245117188 393 c 2,24,-1
 205.245117188 393 l 1,25,-1
 143 0 l 1,26,-1
 1 0 l 1,8,-1
EndSplineSet
EndChar

StartChar: Q
Encoding: 81 81 157
Width: 768
VWidth: 2389
GlyphClass: 2
Flags: HW
AnchorPoint: "Anchor-2" 322.463 85 basechar 0
AnchorPoint: "Anchor-0" 550.062 1522 basechar 0
LayerCount: 2
Fore
SplineSet
351.46875 205 m 0,0,1
 408.46875 205 408.46875 205 467.258789062 260.5 c 128,-1,2
 526.049804688 316 526.049804688 316 576.451171875 438.5 c 128,-1,3
 626.853515625 561 626.853515625 561 658.84765625 763 c 0,4,5
 698.28515625 1012 698.28515625 1012 684.879882812 1151.5 c 128,-1,6
 671.474609375 1291 671.474609375 1291 628.422851562 1347.5 c 128,-1,7
 585.372070312 1404 585.372070312 1404 533.372070312 1404 c 0,8,9
 429.372070312 1404 429.372070312 1404 345.3515625 1255.5 c 128,-1,10
 261.33203125 1107 261.33203125 1107 217.6171875 831 c 0,11,12
 166.458984375 508 166.458984375 508 205.963867188 356.5 c 128,-1,13
 245.46875 205 245.46875 205 351.46875 205 c 0,0,1
512.196289062 -245 m 1,14,15
 491.65234375 -246.423828125 491.65234375 -246.423828125 472.850585938 -246.423828125 c 0,16,17
 346.364257812 -246.423828125 346.364257812 -246.423828125 298.673828125 -182 c 0,18,19
 243.89453125 -108 243.89453125 -108 272.086914062 70 c 1,20,21
 189.729492188 93 189.729492188 93 132.083984375 171 c 128,-1,22
 74.4375 249 74.4375 249 57.091796875 401.5 c 128,-1,23
 39.7451171875 554 39.7451171875 554 78.07421875 796 c 0,24,25
 112.918945312 1016 112.918945312 1016 167.409179688 1158 c 128,-1,26
 221.899414062 1300 221.899414062 1300 287.283203125 1384.5 c 128,-1,27
 352.666992188 1469 352.666992188 1469 421.630859375 1503.5 c 128,-1,28
 490.595703125 1538 490.595703125 1538 552.595703125 1538 c 0,29,30
 647.595703125 1538 647.595703125 1538 718.587890625 1468.5 c 128,-1,31
 789.580078125 1399 789.580078125 1399 813.580078125 1238 c 0,32,33
 836.6484375 1083.25195312 836.6484375 1083.25195312 795.604492188 824.111328125 c 0,34,35
 793.9453125 813.640625 793.9453125 813.640625 792.182617188 803 c 0,36,37
 735.956054688 448 735.956054688 448 637.768554688 279.5 c 128,-1,38
 539.581054688 111 539.581054688 111 390.086914062 70 c 1,39,40
 382.891601562 -7 382.891601562 -7 393.551757812 -56.5 c 128,-1,41
 404.2109375 -106 404.2109375 -106 470.2109375 -106 c 2,42,-1
 603.3203125 -99 l 1,43,-1
 577.196289062 -245 l 1,44,-1
 512.196289062 -245 l 1,14,15
EndSplineSet
EndChar

StartChar: R
Encoding: 82 82 158
Width: 768
VWidth: 2441
GlyphClass: 2
Flags: HW
AnchorPoint: "Anchor-2" 333 0 basechar 0
AnchorPoint: "Anchor-0" 573.902 1521 basechar 0
LayerCount: 2
Fore
SplineSet
275.55859375 818 m 1,0,-1
 450.55859375 818 l 2,1,2
 550.55859375 818 550.55859375 818 614.461914062 890 c 128,-1,3
 678.366210938 962 678.366210938 962 699.748046875 1097 c 0,4,5
 743.62109375 1374.00390625 743.62109375 1374.00390625 540.087890625 1374.00390625 c 0,6,7
 539.35546875 1374.00390625 539.35546875 1374.00390625 538.620117188 1374 c 2,8,-1
 363.620117188 1374 l 1,9,-1
 275.55859375 818 l 1,0,-1
1 0 m 1,10,-1
 241.90234375 1521 l 1,11,-1
 547.90234375 1521 l 2,12,13
 735.90234375 1521 735.90234375 1521 805.188476562 1406 c 128,-1,14
 874.474609375 1291 874.474609375 1291 843.748046875 1097 c 0,15,16
 820.1484375 948 820.1484375 948 743.196289062 831.5 c 128,-1,17
 666.245117188 715 666.245117188 715 559.493164062 685 c 1,18,-1
 700 0 l 1,19,-1
 546 0 l 1,20,-1
 409.068359375 676 l 1,21,-1
 253.068359375 676 l 1,22,-1
 146 0 l 1,23,-1
 1 0 l 1,10,-1
EndSplineSet
EndChar

StartChar: S
Encoding: 83 83 166
Width: 768
VWidth: 2441
GlyphClass: 2
Flags: HW
AnchorPoint: "Anchor-2" 328 0 basechar 0
AnchorPoint: "Anchor-0" 591.902 1521 basechar 0
LayerCount: 2
Fore
SplineSet
324.19921875 -24 m 0,0,1
 112.19921875 -24 112.19921875 -24 18.3916015625 154 c 1,2,-1
 108 322 l 1,3,-1
 116.958984375 347 l 1,4,-1
 132.850585938 340 l 1,5,6
 139.841796875 321 139.841796875 321 137.14453125 294.5 c 128,-1,7
 134.447265625 268 134.447265625 268 148.220703125 235 c 1,8,9
 182.142578125 184 182.142578125 184 232.995117188 151.5 c 128,-1,10
 283.84765625 119 283.84765625 119 356.84765625 119 c 0,11,12
 451.84765625 119 451.84765625 119 519.592773438 190 c 128,-1,13
 587.337890625 261 587.337890625 261 607.928710938 391 c 0,14,15
 617.90625 454 617.90625 454 610.826171875 504 c 128,-1,16
 603.745117188 554 603.745117188 554 564.1640625 604 c 128,-1,17
 524.583007812 654 524.583007812 654 434.245117188 715 c 1,18,19
 282.974609375 808 282.974609375 808 237.767578125 923.5 c 128,-1,20
 192.561523438 1039 192.561523438 1039 212.517578125 1165 c 0,21,22
 242.76953125 1356 242.76953125 1356 344.340820312 1448 c 128,-1,23
 445.912109375 1540 445.912109375 1540 596.912109375 1540 c 0,24,25
 780.912109375 1540 780.912109375 1540 865.194335938 1365 c 1,26,-1
 775.704101562 1223 l 1,27,-1
 760.377929688 1202 l 1,28,-1
 747.486328125 1209 l 1,29,30
 743.49609375 1228 743.49609375 1228 747.376953125 1252.5 c 128,-1,31
 751.256835938 1277 751.256835938 1277 733.641601562 1311 c 0,32,33
 702.403320312 1360 702.403320312 1360 662.228515625 1381 c 128,-1,34
 622.0546875 1402 622.0546875 1402 560.0546875 1402 c 0,35,36
 394.0546875 1402 394.0546875 1402 358.418945312 1177 c 0,37,38
 342.896484375 1079 342.896484375 1079 377.04296875 1001 c 128,-1,39
 411.188476562 923 411.188476562 923 548.567382812 837 c 0,40,41
 689.837890625 744 689.837890625 744 729.079101562 644.5 c 128,-1,42
 768.319335938 545 768.319335938 545 747.729492188 415 c 0,43,44
 728.881835938 296 728.881835938 296 676.463867188 195.5 c 128,-1,45
 624.046875 95 624.046875 95 536.123046875 35.5 c 128,-1,46
 448.19921875 -24 448.19921875 -24 324.19921875 -24 c 0,0,1
EndSplineSet
EndChar

StartChar: uni1E9E
Encoding: 7838 7838 177
Width: 768
VWidth: 2441
GlyphClass: 1
Flags: HW
LayerCount: 2
Fore
SplineSet
386.19921875 -24 m 0,0,1
 283.19921875 -24 283.19921875 -24 215.65234375 42 c 1,2,-1
 283.350585938 179 l 1,3,4
 332.1640625 121 332.1640625 121 397.84765625 119 c 0,5,6
 480.84765625 119 480.84765625 119 545.96875 205 c 128,-1,7
 611.08984375 291 611.08984375 291 638.490234375 464 c 0,8,9
 653.219726562 557 653.219726562 557 646.51953125 631.5 c 128,-1,10
 639.819335938 706 639.819335938 706 595.629882812 749 c 128,-1,11
 551.440429688 792 551.440429688 792 448.440429688 792 c 2,12,-1
 397.440429688 792 l 1,13,-1
 418.505859375 925 l 1,14,-1
 690.704101562 1223 l 1,15,16
 701.791015625 1293 701.791015625 1293 696.927734375 1357 c 128,-1,17
 692.064453125 1421 692.064453125 1421 662.478515625 1461.5 c 128,-1,18
 632.893554688 1502 632.893554688 1502 565.893554688 1502 c 0,19,20
 486.893554688 1502 486.893554688 1502 417.959960938 1423.5 c 128,-1,21
 349.02734375 1345 349.02734375 1345 319.725585938 1160 c 2,22,-1
 136 0 l 1,23,-1
 -6 0 l 1,24,-1
 172.657226562 1128 l 2,25,26
 204.334960938 1328 204.334960938 1328 269.677734375 1437.5 c 128,-1,27
 335.020507812 1547 335.020507812 1547 418.331054688 1590 c 128,-1,28
 501.641601562 1633 501.641601562 1633 586.641601562 1633 c 0,29,30
 740.641601562 1633 740.641601562 1633 798.71484375 1513.5 c 128,-1,31
 856.788085938 1394 856.788085938 1394 826.6953125 1204 c 1,32,-1
 549.713867188 920 l 1,33,34
 841.953125 871 841.953125 871 775.005859375 442 c 0,35,36
 735.884765625 195 735.884765625 195 629.541992188 85.5 c 128,-1,37
 523.19921875 -24 523.19921875 -24 386.19921875 -24 c 0,0,1
EndSplineSet
EndChar

StartChar: T
Encoding: 84 84 179
Width: 768
VWidth: 2441
GlyphClass: 2
Flags: HW
AnchorPoint: "Anchor-4" 442.688 762 basechar 0
AnchorPoint: "Anchor-2" 332 0 basechar 0
AnchorPoint: "Anchor-0" 572.902 1521 basechar 0
LayerCount: 2
Fore
SplineSet
250 0 m 1,0,-1
 468.412109375 1379 l 1,1,-1
 178.412109375 1379 l 1,2,-1
 201.219726562 1523 l 1,3,-1
 937.219726562 1523 l 1,4,-1
 914.412109375 1379 l 1,5,-1
 611.412109375 1379 l 1,6,-1
 393 0 l 1,7,-1
 250 0 l 1,0,-1
EndSplineSet
EndChar

StartChar: Tbar
Encoding: 358 358 180
Width: 768
VWidth: 2441
GlyphClass: 2
Flags: HW
AnchorPoint: "Anchor-4" 442.688 762 basechar 0
AnchorPoint: "Anchor-2" 332 0 basechar 0
AnchorPoint: "Anchor-0" 572.902 1521 basechar 0
LayerCount: 2
Fore
SplineSet
250 0 m 1,0,-1
 359.918945312 694 l 1,1,-1
 166.918945312 694 l 1,2,-1
 188.458984375 830 l 1,3,-1
 381.458984375 830 l 1,4,-1
 468.412109375 1379 l 1,5,-1
 178.412109375 1379 l 1,6,-1
 201.219726562 1523 l 1,7,-1
 937.219726562 1523 l 1,8,-1
 914.412109375 1379 l 1,9,-1
 611.412109375 1379 l 1,10,-1
 524.458984375 830 l 1,11,-1
 741.458984375 830 l 1,12,-1
 719.918945312 694 l 1,13,-1
 502.918945312 694 l 1,14,-1
 393 0 l 1,15,-1
 250 0 l 1,0,-1
EndSplineSet
EndChar

StartChar: U
Encoding: 85 85 186
Width: 768
VWidth: 2441
GlyphClass: 2
Flags: HW
AnchorPoint: "Anchor-3" 424.801 24 basechar 0
AnchorPoint: "Anchor-2" 333 0 basechar 0
AnchorPoint: "Anchor-1" 922.902 1521 basechar 0
AnchorPoint: "Anchor-0" 573.902 1521 basechar 0
LayerCount: 2
Fore
SplineSet
330.723632812 -27 m 0,0,1
 144.723632812 -27 144.723632812 -27 87.1298828125 105 c 128,-1,2
 29.537109375 237 29.537109375 237 70.55859375 496 c 2,3,-1
 232.90234375 1521 l 1,4,-1
 395.90234375 1521 l 1,5,-1
 393.209960938 1504 l 1,6,7
 376.993164062 1490 376.993164062 1490 369.799804688 1473 c 128,-1,8
 362.607421875 1456 362.607421875 1456 355.956054688 1414 c 2,9,-1
 210.2421875 494 l 2,10,11
 180.465820312 306 180.465820312 306 210.444335938 208 c 128,-1,12
 240.421875 110 240.421875 110 352.421875 110 c 0,13,14
 469.421875 110 469.421875 110 529.815429688 213.5 c 128,-1,15
 590.208007812 317 590.208007812 317 619.350585938 501 c 2,16,-1
 780.90234375 1521 l 1,17,-1
 922.90234375 1521 l 1,18,-1
 761.666992188 503 l 2,19,20
 716.369140625 217 716.369140625 217 607.546875 95 c 128,-1,21
 498.723632812 -27 498.723632812 -27 330.723632812 -27 c 0,0,1
EndSplineSet
EndChar

StartChar: V
Encoding: 86 86 209
Width: 768
VWidth: 2441
GlyphClass: 2
Flags: HW
AnchorPoint: "Anchor-2" 314 0 basechar 0
AnchorPoint: "Anchor-0" 554.902 1521 basechar 0
LayerCount: 2
Fore
SplineSet
283.416015625 -10 m 1,0,-1
 189.219726562 1523 l 1,1,-1
 328.219726562 1523 l 1,2,-1
 392.25390625 412 l 1,3,-1
 791.90234375 1521 l 1,4,-1
 924.90234375 1521 l 1,5,-1
 352.416015625 -10 l 1,6,-1
 283.416015625 -10 l 1,0,-1
EndSplineSet
EndChar

StartChar: W
Encoding: 87 87 210
Width: 768
VWidth: 2441
GlyphClass: 2
Flags: HW
AnchorPoint: "Anchor-2" 304 0 basechar 0
AnchorPoint: "Anchor-0" 555.902 1521 basechar 0
LayerCount: 2
Fore
SplineSet
89 0 m 1,0,-1
 173.90234375 1521 l 1,1,-1
 291.90234375 1521 l 1,2,-1
 232.645507812 566 l 1,3,-1
 513.1640625 1409 l 1,4,-1
 560.1640625 1409 l 1,5,-1
 571.329101562 564 l 1,6,-1
 800.90234375 1521 l 1,7,-1
 909.90234375 1521 l 1,8,-1
 516 0 l 1,9,-1
 462 0 l 1,10,-1
 456.46484375 950 l 1,11,-1
 147 0 l 1,12,-1
 89 0 l 1,0,-1
EndSplineSet
EndChar

StartChar: X
Encoding: 88 88 215
Width: 768
VWidth: 2441
GlyphClass: 2
Flags: HW
AnchorPoint: "Anchor-2" 335 0 basechar 0
AnchorPoint: "Anchor-0" 575.902 1521 basechar 0
LayerCount: 2
Fore
SplineSet
-24 0 m 1,0,-1
 377.90625 776 l 1,1,-1
 222.219726562 1523 l 1,2,-1
 369.219726562 1523 l 1,3,-1
 489.266601562 974 l 1,4,-1
 781.219726562 1523 l 1,5,-1
 916.219726562 1523 l 1,6,-1
 539.22265625 778 l 1,7,-1
 707 0 l 1,8,-1
 558 0 l 1,9,-1
 425.75390625 573 l 1,10,-1
 121 0 l 1,11,-1
 -24 0 l 1,0,-1
EndSplineSet
EndChar

StartChar: Y
Encoding: 89 89 216
Width: 768
VWidth: 2441
GlyphClass: 2
Flags: HW
AnchorPoint: "Anchor-2" 335 0 basechar 0
AnchorPoint: "Anchor-0" 560.902 1521 basechar 0
LayerCount: 2
Fore
SplineSet
261 0 m 1,0,-1
 353.971679688 587 l 1,1,-1
 193.90234375 1521 l 1,2,-1
 342.90234375 1521 l 1,3,-1
 465.450195312 811 l 1,4,-1
 790.90234375 1521 l 1,5,-1
 929.90234375 1521 l 1,6,-1
 497.971679688 587 l 1,7,-1
 405 0 l 1,8,-1
 261 0 l 1,0,-1
EndSplineSet
EndChar

StartChar: Z
Encoding: 90 90 226
Width: 768
VWidth: 2441
GlyphClass: 2
Flags: HW
AnchorPoint: "Anchor-2" 367 0 basechar 0
AnchorPoint: "Anchor-0" 591.902 1521 basechar 0
LayerCount: 2
Fore
SplineSet
10.0556640625 114 m 1,0,-1
 732.095703125 1377 l 1,1,-1
 229.095703125 1377 l 1,2,-1
 251.90234375 1521 l 1,3,-1
 910.90234375 1521 l 1,4,-1
 892.846679688 1407 l 1,5,-1
 180.490234375 142 l 1,6,-1
 611.490234375 142 l 2,7,8
 653.490234375 142 653.490234375 142 671.203125 146.5 c 128,-1,9
 688.916015625 151 688.916015625 151 706.291992188 166 c 1,10,-1
 724.291992188 166 l 1,11,-1
 698 0 l 1,12,-1
 -8 0 l 1,13,-1
 10.0556640625 114 l 1,0,-1
EndSplineSet
EndChar

StartChar: a
Encoding: 97 97 232
Width: 768
VWidth: 2441
GlyphClass: 2
Flags: HW
AnchorPoint: "Anchor-3" 584 0 basechar 0
AnchorPoint: "Anchor-2" 309 0 basechar 0
AnchorPoint: "Anchor-0" 504.856 1104 basechar 0
LayerCount: 2
Fore
SplineSet
167.881835938 296 m 0,0,1
 152.04296875 196 152.04296875 196 190.232421875 153 c 128,-1,2
 228.421875 110 228.421875 110 294.421875 110 c 0,3,4
 411.421875 110 411.421875 110 497.869140625 217 c 128,-1,5
 584.31640625 324 584.31640625 324 621.46875 527 c 1,6,7
 585.577148438 534 585.577148438 534 548.7109375 538 c 128,-1,8
 511.844726562 542 511.844726562 542 477.844726562 542 c 0,9,10
 353.844726562 542 353.844726562 542 271.712890625 487.5 c 128,-1,11
 189.580078125 433 189.580078125 433 167.881835938 296 c 0,0,1
260.723632812 -27 m 0,12,13
 125.723632812 -27 125.723632812 -27 68.7158203125 64.5 c 128,-1,14
 11.7080078125 156 11.7080078125 156 33.08984375 291 c 0,15,16
 65.875 498 65.875 498 191.813476562 586 c 128,-1,17
 317.750976562 674 317.750976562 674 485.750976562 674 c 0,18,19
 553.750976562 674 553.750976562 674 642.375 659 c 1,20,21
 666.418945312 855 666.418945312 855 626.1640625 926 c 128,-1,22
 585.909179688 997 585.909179688 997 468.909179688 997 c 0,23,24
 358.909179688 997 358.909179688 997 247.595703125 894 c 1,25,-1
 202.809570312 1009 l 1,26,27
 336.702148438 1140.0078125 336.702148438 1140.0078125 499.095703125 1140.0078125 c 0,28,29
 500.326171875 1140.0078125 500.326171875 1140.0078125 501.55859375 1140 c 0,30,31
 613.55859375 1140 613.55859375 1140 683.272460938 1094 c 128,-1,32
 752.987304688 1048 752.987304688 1048 772.98046875 928 c 128,-1,33
 792.974609375 808 792.974609375 808 759.080078125 594 c 2,34,-1
 665 0 l 1,35,-1
 526 0 l 1,36,-1
 552.92578125 170 l 1,37,38
 487.602539062 48 487.602539062 48 408.163085938 10.5 c 128,-1,39
 328.723632812 -27 328.723632812 -27 260.723632812 -27 c 0,12,13
EndSplineSet
Substitution2: "Single Substitution lookup 29 subtable" ordfeminine
Substitution2: "'aalt' Access All Alternates in Latin lookup 0 subtable" ordfeminine
EndChar

StartChar: ae
Encoding: 230 230 257
Width: 768
VWidth: 2441
GlyphClass: 1
Flags: HW
LayerCount: 2
Fore
SplineSet
139.739257812 112 m 0,0,1
 187.739257812 112 187.739257812 112 217.583984375 171 c 128,-1,2
 247.428710938 230 247.428710938 230 266.474609375 325 c 128,-1,3
 285.521484375 420 285.521484375 420 303.260742188 532 c 1,4,5
 198.151367188 525 198.151367188 525 150.390625 476 c 128,-1,6
 102.629882812 427 102.629882812 427 82.1982421875 298 c 0,7,8
 65.884765625 195 65.884765625 195 81.3115234375 153.5 c 128,-1,9
 96.7392578125 112 96.7392578125 112 139.739257812 112 c 0,0,1
444.384765625 678 m 1,10,-1
 634.443359375 691 l 1,11,12
 658.834960938 845 658.834960938 845 653.926757812 924.5 c 128,-1,13
 649.017578125 1004 649.017578125 1004 602.017578125 1004 c 0,14,15
 550.017578125 1004 550.017578125 1004 509.555664062 919 c 128,-1,16
 469.092773438 834 469.092773438 834 444.384765625 678 c 1,10,-1
106.723632812 -27 m 0,17,18
 0.7236328125 -27 0.7236328125 -27 -31.2294921875 68 c 128,-1,19
 -63.18359375 163 -63.18359375 163 -41.484375 300 c 0,20,21
 -11.7080078125 488 -11.7080078125 488 74.6748046875 572.5 c 128,-1,22
 161.05859375 657 161.05859375 657 325.750976562 674 c 1,23,24
 350.934570312 833 350.934570312 833 342.9765625 918.5 c 128,-1,25
 335.017578125 1004 335.017578125 1004 270.017578125 1004 c 0,26,27
 208.017578125 1004 208.017578125 1004 145.080078125 916 c 1,28,-1
 107.551757812 1020 l 1,29,30
 188.399414062 1139 188.399414062 1139 300.55859375 1140 c 0,31,32
 354.55859375 1140 354.55859375 1140 393.72265625 1100 c 128,-1,33
 432.887695312 1060 432.887695312 1060 445.225585938 999 c 1,34,35
 475.887695312 1060 475.887695312 1060 527.72265625 1100 c 128,-1,36
 579.55859375 1140 579.55859375 1140 625.55859375 1140 c 0,37,38
 729.55859375 1140 729.55859375 1140 756.130859375 1020.5 c 128,-1,39
 782.704101562 901 782.704101562 901 743.583007812 654 c 2,40,-1
 729.329101562 564 l 1,41,-1
 424.111328125 550 l 1,42,-1
 404.629882812 427 l 2,43,44
 382.139648438 285 382.139648438 285 403.384765625 195 c 128,-1,45
 424.629882812 105 424.629882812 105 494.629882812 105 c 0,46,47
 529.629882812 105 529.629882812 105 561.510742188 129.5 c 128,-1,48
 593.391601562 154 593.391601562 154 618.568359375 193 c 1,49,-1
 660.9375 88 l 1,50,51
 621.384765625 34 621.384765625 34 572.0546875 3.5 c 128,-1,52
 522.723632812 -27 522.723632812 -27 468.723632812 -27 c 0,53,54
 410.723632812 -27 410.723632812 -27 362.638671875 13.5 c 128,-1,55
 314.552734375 54 314.552734375 54 299.323242188 122 c 1,56,57
 264.552734375 54 264.552734375 54 213.638671875 13.5 c 128,-1,58
 162.723632812 -27 162.723632812 -27 106.723632812 -27 c 0,17,18
EndSplineSet
EndChar

StartChar: b
Encoding: 98 98 259
Width: 768
VWidth: 2441
GlyphClass: 2
Flags: HW
AnchorPoint: "Anchor-2" 516 0 basechar 0
AnchorPoint: "Anchor-0" 692.757 1116 basechar 0
LayerCount: 2
Fore
SplineSet
372.639648438 124 m 0,0,1
 426.639648438 124 426.639648438 124 479.049804688 155 c 128,-1,2
 531.459960938 186 531.459960938 186 574.110351562 278.5 c 128,-1,3
 616.760742188 371 616.760742188 371 646.537109375 559 c 0,4,5
 673.461914062 729 673.461914062 729 664.087890625 824.5 c 128,-1,6
 654.713867188 920 654.713867188 920 615.811523438 958.5 c 128,-1,7
 576.909179688 997 576.909179688 997 517.909179688 997 c 0,8,9
 426.909179688 997 426.909179688 997 349.9375 893 c 128,-1,10
 272.96484375 789 272.96484375 789 235.745117188 554 c 0,11,12
 201.375976562 337 201.375976562 337 232.0078125 230.5 c 128,-1,13
 262.639648438 124 262.639648438 124 372.639648438 124 c 0,0,1
367.723632812 -27 m 0,14,15
 297.723632812 -27 297.723632812 -27 242.588867188 19.5 c 128,-1,16
 187.453125 66 187.453125 66 169.282226562 147 c 1,17,-1
 113 0 l 1,18,-1
 6 0 l 1,19,-1
 263.216796875 1624 l 1,20,-1
 422.216796875 1624 l 1,21,-1
 419.5234375 1607 l 1,22,23
 407.306640625 1593 407.306640625 1593 401.03515625 1575.5 c 128,-1,24
 394.762695312 1558 394.762695312 1558 388.110351562 1516 c 2,25,-1
 297.672851562 945 l 1,26,27
 350.51171875 1045 350.51171875 1045 428.693359375 1093.5 c 128,-1,28
 506.875 1142 506.875 1142 566.875 1142 c 0,29,30
 661.875 1142 661.875 1142 725.059570312 1089.5 c 128,-1,31
 788.245117188 1037 788.245117188 1037 807.60546875 913 c 128,-1,32
 826.96484375 789 826.96484375 789 792.12109375 569 c 0,33,34
 756.326171875 343 756.326171875 343 687.236328125 213 c 128,-1,35
 618.145507812 83 618.145507812 83 533.434570312 28 c 128,-1,36
 448.723632812 -27 448.723632812 -27 367.723632812 -27 c 0,14,15
EndSplineSet
EndChar

StartChar: c
Encoding: 99 99 261
Width: 768
VWidth: 2441
GlyphClass: 2
Flags: HW
AnchorPoint: "Anchor-2" 395 0 basechar 0
AnchorPoint: "Anchor-0" 571.757 1116 basechar 0
LayerCount: 2
Fore
SplineSet
387.723632812 -27 m 0,0,1
 203.723632812 -27 203.723632812 -27 123.615234375 127 c 128,-1,2
 43.505859375 281 43.505859375 281 87.2197265625 557 c 0,3,4
 118.897460938 757 118.897460938 757 192.908203125 886.5 c 128,-1,5
 266.918945312 1016 266.918945312 1016 365.500976562 1076.5 c 128,-1,6
 464.083007812 1137 464.083007812 1137 570.083007812 1137 c 0,7,8
 775.083007812 1137 775.083007812 1137 835.57421875 957 c 1,9,-1
 741.626953125 850 l 1,10,-1
 726.458984375 830 l 1,11,-1
 713.04296875 840 l 1,12,13
 714.051757812 859 714.051757812 859 712.616210938 881.5 c 128,-1,14
 711.1796875 904 711.1796875 904 692.08984375 935 c 1,15,16
 639.54296875 1001 639.54296875 1001 537.54296875 1001 c 0,17,18
 479.54296875 1001 479.54296875 1001 419.07421875 957 c 128,-1,19
 358.60546875 913 358.60546875 913 306.821289062 816.5 c 128,-1,20
 255.037109375 720 255.037109375 720 229.853515625 561 c 0,21,22
 193.424804688 331 193.424804688 331 246.740234375 222.5 c 128,-1,23
 300.055664062 114 300.055664062 114 415.055664062 114 c 0,24,25
 476.055664062 114 476.055664062 114 531.88671875 144.5 c 128,-1,26
 587.716796875 175 587.716796875 175 643.012695312 240 c 1,27,-1
 691.055664062 114 l 1,28,29
 623.494140625 41 623.494140625 41 546.108398438 7 c 128,-1,30
 468.723632812 -27 468.723632812 -27 387.723632812 -27 c 0,0,1
EndSplineSet
EndChar

StartChar: d
Encoding: 100 100 268
Width: 768
VWidth: 2441
GlyphClass: 2
Flags: HW
AnchorPoint: "Anchor-4" 735.235 1340 basechar 0
AnchorPoint: "Anchor-2" 335 0 basechar 0
AnchorPoint: "Anchor-1" 888.757 1116 basechar 0
AnchorPoint: "Anchor-0" 511.757 1116 basechar 0
LayerCount: 2
Fore
SplineSet
336.84765625 119 m 0,0,1
 434.84765625 119 434.84765625 119 500.953125 227 c 128,-1,2
 567.05859375 335 567.05859375 335 603.329101562 564 c 0,3,4
 638.490234375 786 638.490234375 786 603.858398438 892.5 c 128,-1,5
 569.225585938 999 569.225585938 999 474.225585938 999 c 0,6,7
 374.225585938 999 374.225585938 999 310.05078125 909.5 c 128,-1,8
 245.875 820 245.875 820 210.397460938 596 c 0,9,10
 181.25390625 412 181.25390625 412 190.361328125 308.5 c 128,-1,11
 199.46875 205 199.46875 205 239.158203125 162 c 128,-1,12
 278.84765625 119 278.84765625 119 336.84765625 119 c 0,0,1
291.19921875 -24 m 0,13,14
 210.19921875 -24 210.19921875 -24 146.013671875 28.5 c 128,-1,15
 81.8291015625 81 81.8291015625 81 58.33984375 210.5 c 128,-1,16
 34.8505859375 340 34.8505859375 340 71.12109375 569 c 0,17,18
 106.598632812 793 106.598632812 793 172.055664062 919 c 128,-1,19
 237.51171875 1045 237.51171875 1045 319.693359375 1093.5 c 128,-1,20
 401.875 1142 401.875 1142 487.875 1142 c 0,21,22
 653.875 1142 653.875 1142 673.366210938 962 c 1,23,-1
 778.216796875 1624 l 1,24,-1
 934.216796875 1624 l 1,25,-1
 931.5234375 1607 l 1,26,27
 915.306640625 1593 915.306640625 1593 909.03515625 1575.5 c 128,-1,28
 902.762695312 1558 902.762695312 1558 896.110351562 1516 c 2,29,-1
 685.400390625 173 l 2,30,31
 678.431640625 129 678.431640625 129 673.200195312 86.5 c 128,-1,32
 667.96875 44 667.96875 44 675 0 c 1,33,-1
 538 0 l 1,34,35
 529.54296875 35 529.54296875 35 530.641601562 73.5 c 128,-1,36
 531.739257812 112 531.739257812 112 538.708007812 156 c 1,37,38
 494.1953125 77 494.1953125 77 430.197265625 26.5 c 128,-1,39
 366.19921875 -24 366.19921875 -24 291.19921875 -24 c 0,13,14
EndSplineSet
EndChar

StartChar: eth
Encoding: 240 240 269
Width: 768
VWidth: 2441
GlyphClass: 1
Flags: HW
LayerCount: 2
Fore
SplineSet
360.421875 110 m 0,0,1
 418.421875 110 418.421875 110 472.440429688 148 c 128,-1,2
 526.459960938 186 526.459960938 186 571.639648438 285 c 128,-1,3
 616.819335938 384 616.819335938 384 645.645507812 566 c 0,4,5
 683.182617188 803 683.182617188 803 630.758789062 904.5 c 128,-1,6
 579.34765625 1004.0390625 579.34765625 1004.0390625 500.149414062 1004.0390625 c 0,0,0
 498.588867188 1004.0390625 498.588867188 1004.0390625 497.017578125 1004 c 0,7,8
 404.017578125 1004 404.017578125 1004 323.837890625 905 c 128,-1,9
 243.658203125 806 243.658203125 806 205.645507812 566 c 0,10,11
 167 322 167 322 214.7109375 216 c 128,-1,12
 262.421875 110 262.421875 110 360.421875 110 c 0,0,1
338.248046875 -30 m 0,13,14
 240.248046875 -30 240.248046875 -30 165.489257812 31.5 c 128,-1,15
 90.7294921875 93 90.7294921875 93 59.8447265625 220 c 128,-1,16
 28.958984375 347 28.958984375 347 60.3193359375 545 c 0,17,18
 108.309570312 848 108.309570312 848 233.934570312 994 c 128,-1,19
 359.55859375 1140 359.55859375 1140 498.55859375 1140 c 0,20,21
 561.55859375 1140 561.55859375 1140 609.415039062 1117 c 128,-1,22
 657.272460938 1094 657.272460938 1094 687.245117188 1037 c 1,23,24
 676.07421875 1118 676.07421875 1118 654.665039062 1197.5 c 128,-1,25
 633.256835938 1277 633.256835938 1277 595.34375 1347 c 1,26,-1
 379.672851562 1267 l 1,27,-1
 354.095703125 1377 l 1,28,-1
 537.865234375 1445 l 1,29,30
 508.151367188 1491 508.151367188 1491 471.907226562 1530.5 c 128,-1,31
 435.663085938 1570 435.663085938 1570 391.573242188 1601 c 1,32,-1
 549.75 1640 l 1,33,34
 583.682617188 1608 583.682617188 1608 614.401367188 1571.5 c 128,-1,35
 645.120117188 1535 645.120117188 1535 673.833984375 1489 c 1,36,-1
 863.080078125 1560 l 1,37,-1
 886.1328125 1453 l 1,38,-1
 728.104492188 1396 l 1,39,40
 798.396484375 1240 798.396484375 1240 814.174804688 1055.5 c 128,-1,41
 829.953125 871 829.953125 871 789.723632812 617 c 0,42,43
 734.447265625 268 734.447265625 268 621.34765625 119 c 128,-1,44
 508.248046875 -30 508.248046875 -30 338.248046875 -30 c 0,13,14
EndSplineSet
EndChar

StartChar: dcaron
Encoding: 271 271 270
Width: 768
VWidth: 2441
GlyphClass: 1
Flags: HW
LayerCount: 2
Fore
SplineSet
238.84765625 119 m 0,0,1
 301.84765625 119 301.84765625 119 356.02734375 218 c 128,-1,2
 410.208007812 317 410.208007812 317 449.329101562 564 c 0,3,4
 487.340820312 804 487.340820312 804 464.783203125 901.5 c 128,-1,5
 442.225585938 999 442.225585938 999 383.225585938 999 c 0,6,7
 334.225585938 999 334.225585938 999 295.76171875 964.5 c 128,-1,8
 257.297851562 930 257.297851562 930 228.59765625 843.5 c 128,-1,9
 199.897460938 757 199.897460938 757 174.397460938 596 c 0,10,11
 142.720703125 396 142.720703125 396 144.985351562 293.5 c 128,-1,12
 147.250976562 191 147.250976562 191 174.049804688 155 c 128,-1,13
 200.84765625 119 200.84765625 119 238.84765625 119 c 0,0,1
193.19921875 -24 m 0,14,15
 128.19921875 -24 128.19921875 -24 81.984375 22 c 128,-1,16
 35.7705078125 68 35.7705078125 68 24.54296875 196 c 128,-1,17
 13.31640625 324 13.31640625 324 52.12109375 569 c 0,18,19
 89.3408203125 804 89.3408203125 804 140.559570312 928.5 c 128,-1,20
 191.779296875 1053 191.779296875 1053 254.327148438 1097.5 c 128,-1,21
 316.875 1142 316.875 1142 386.875 1142 c 0,22,23
 515.875 1142 515.875 1142 516.474609375 969 c 1,24,-1
 620.216796875 1624 l 1,25,-1
 763.216796875 1624 l 1,26,-1
 760.5234375 1607 l 1,27,28
 744.306640625 1593 744.306640625 1593 738.03515625 1575.5 c 128,-1,29
 731.762695312 1558 731.762695312 1558 725.110351562 1516 c 2,30,-1
 512.400390625 173 l 2,31,32
 505.431640625 129 505.431640625 129 499.700195312 86.5 c 128,-1,33
 493.96875 44 493.96875 44 499 0 c 1,34,-1
 380 0 l 1,35,36
 376.068359375 32 376.068359375 32 375.349609375 68.5 c 128,-1,37
 374.629882812 105 374.629882812 105 381.599609375 149 c 1,38,39
 347.037109375 76 347.037109375 76 298.118164062 26 c 128,-1,40
 249.19921875 -24 249.19921875 -24 193.19921875 -24 c 0,14,15
882.325195312 1631 m 0,41,42
 911.325195312 1631 911.325195312 1631 928.440429688 1597 c 128,-1,43
 945.5546875 1563 945.5546875 1563 936.209960938 1504 c 0,44,45
 924.331054688 1429 924.331054688 1429 877.467773438 1332 c 128,-1,46
 830.604492188 1235 830.604492188 1235 764.55859375 1140 c 1,47,-1
 715.051757812 1181 l 1,48,49
 748.020507812 1225 748.020507812 1225 779.3359375 1277.5 c 128,-1,50
 810.651367188 1330 810.651367188 1330 818.887695312 1382 c 0,51,52
 822.688476562 1406 822.688476562 1406 811.5390625 1424 c 128,-1,53
 800.390625 1442 800.390625 1442 791.270507812 1466.5 c 128,-1,54
 782.151367188 1491 782.151367188 1491 788.803710938 1533 c 128,-1,55
 795.455078125 1575 795.455078125 1575 821.390625 1603 c 128,-1,56
 847.325195312 1631 847.325195312 1631 882.325195312 1631 c 0,41,42
EndSplineSet
EndChar

StartChar: e
Encoding: 101 101 274
Width: 768
VWidth: 2441
GlyphClass: 2
Flags: HW
AnchorPoint: "Anchor-3" 461.801 24 basechar 0
AnchorPoint: "Anchor-2" 395 0 basechar 0
AnchorPoint: "Anchor-0" 522.757 1116 basechar 0
LayerCount: 2
Fore
SplineSet
235.484375 666 m 1,0,-1
 626.484375 666 l 1,1,2
 681.443359375 1013 681.443359375 1013 498.443359375 1013 c 0,3,4
 412.443359375 1013 412.443359375 1013 348.143554688 938.5 c 128,-1,5
 283.84375 864 283.84375 864 235.484375 666 c 1,0,-1
366.19921875 -24 m 0,6,7
 182.19921875 -24 182.19921875 -24 104.555664062 114 c 128,-1,8
 26.9130859375 252 26.9130859375 252 74.7451171875 554 c 0,9,10
 123.051757812 859 123.051757812 859 242.463867188 1000.5 c 128,-1,11
 361.875 1142 361.875 1142 526.875 1142 c 0,12,13
 624.875 1142 624.875 1142 686.956054688 1092 c 128,-1,14
 749.036132812 1042 749.036132812 1042 771.243164062 926.5 c 128,-1,15
 793.450195312 811 793.450195312 811 762.08984375 613 c 0,16,17
 755.913085938 574 755.913085938 574 745.735351562 535 c 1,18,-1
 209.735351562 535 l 1,19,20
 177.198242188 298 177.198242188 298 227.46875 205 c 128,-1,21
 277.739257812 112 277.739257812 112 389.739257812 112 c 0,22,23
 455.739257812 112 455.739257812 112 505.173828125 140 c 128,-1,24
 554.608398438 168 554.608398438 168 597.686523438 219 c 1,25,-1
 663.907226562 132 l 1,26,27
 603.344726562 59 603.344726562 59 528.771484375 17.5 c 128,-1,28
 454.19921875 -24 454.19921875 -24 366.19921875 -24 c 0,6,7
EndSplineSet
EndChar

StartChar: uni029A
Encoding: 666 666 296
Width: 768
VWidth: 2441
GlyphClass: 1
Flags: HW
LayerCount: 2
Fore
SplineSet
329.53125 117 m 0,0,1
 439.53125 117 439.53125 117 514.02734375 218 c 128,-1,2
 588.524414062 319 588.524414062 319 626.853515625 561 c 0,3,4
 664.07421875 796 664.07421875 796 622.045898438 900 c 128,-1,5
 580.017578125 1004 580.017578125 1004 480.017578125 1004 c 0,6,7
 407.017578125 1004 407.017578125 1004 362.653320312 957.5 c 128,-1,8
 318.288085938 911 318.288085938 911 304.984375 827 c 0,9,10
 294.213867188 759 294.213867188 759 321.586914062 714 c 128,-1,11
 348.958984375 669 348.958984375 669 426.958984375 669 c 0,12,13
 436.958984375 669 436.958984375 669 446.958984375 669 c 128,-1,14
 456.958984375 669 456.958984375 669 466.276367188 671 c 1,15,-1
 442.676757812 522 l 1,16,17
 425.993164062 524 425.993164062 524 412.889648438 526.5 c 128,-1,18
 399.78515625 529 399.78515625 529 382.78515625 529 c 0,19,20
 309.78515625 529 309.78515625 529 252.866210938 479 c 128,-1,21
 195.947265625 429 195.947265625 429 181.05859375 335 c 0,22,23
 164.428710938 230 164.428710938 230 205.479492188 173.5 c 128,-1,24
 246.53125 117 246.53125 117 329.53125 117 c 0,0,1
307.990234375 -19 m 0,25,26
 161.307617188 -17 161.307617188 -17 85.8837890625 84.5 c 128,-1,27
 10.4599609375 186 10.4599609375 186 36.2763671875 349 c 0,28,29
 52.58984375 452 52.58984375 452 106.834960938 523 c 128,-1,30
 161.080078125 594 161.080078125 594 233.40625 615 c 1,31,32
 140.02734375 701 140.02734375 701 161.04296875 840 c 0,33,34
 183.850585938 984 183.850585938 984 283.204101562 1062 c 128,-1,35
 382.55859375 1140 382.55859375 1140 503.55859375 1140 c 0,36,37
 678.55859375 1140 678.55859375 1140 747.434570312 994 c 128,-1,38
 816.309570312 848 816.309570312 848 770.537109375 559 c 0,39,40
 724.921875 271 724.921875 271 603.797851562 125 c 128,-1,41
 484.310546875 -19.02734375 484.310546875 -19.02734375 312.702148438 -19.02734375 c 0,0,0
 310.3515625 -19.02734375 310.3515625 -19.02734375 307.990234375 -19 c 0,25,26
EndSplineSet
EndChar

StartChar: f
Encoding: 102 102 300
Width: 768
VWidth: 2441
GlyphClass: 1
Flags: HW
LayerCount: 2
Fore
SplineSet
311.958984375 991 m 1,0,-1
 150.958984375 991 l 1,1,-1
 170.756835938 1116 l 1,2,-1
 331.756835938 1116 l 1,3,-1
 346.486328125 1209 l 2,4,5
 381.96484375 1433 381.96484375 1433 487.19921875 1535.5 c 128,-1,6
 592.43359375 1638 592.43359375 1638 717.43359375 1638 c 0,7,8
 790.43359375 1638 790.43359375 1638 856.494140625 1600.5 c 128,-1,9
 922.5546875 1563 922.5546875 1563 952.04296875 1484 c 1,10,-1
 860.303710938 1372 l 1,11,-1
 841.977539062 1351 l 1,12,-1
 829.403320312 1360 l 1,13,14
 830.412109375 1379 830.412109375 1379 831.633789062 1402.5 c 128,-1,15
 832.856445312 1426 832.856445312 1426 814.924804688 1458 c 1,16,17
 772.477539062 1512 772.477539062 1512 702.477539062 1512 c 0,18,19
 627.477539062 1512 627.477539062 1512 566.994140625 1439.5 c 128,-1,20
 506.51171875 1367 506.51171875 1367 481.486328125 1209 c 2,21,-1
 466.756835938 1116 l 1,22,-1
 714.756835938 1116 l 1,23,-1
 694.958984375 991 l 1,24,-1
 446.958984375 991 l 1,25,-1
 290 0 l 1,26,-1
 155 0 l 1,27,-1
 311.958984375 991 l 1,0,-1
EndSplineSet
EndChar

StartChar: g
Encoding: 103 103 301
Width: 768
VWidth: 2298
GlyphClass: 2
Flags: HW
AnchorPoint: "Anchor-2" 250.363 -225 basechar 0
AnchorPoint: "Anchor-0" 433.391 1120 basechar 0
LayerCount: 2
Fore
SplineSet
95.4345703125 28 m 0,0,1
 83.7138671875 -46 83.7138671875 -46 130.458007812 -85.5 c 128,-1,2
 177.202148438 -125 177.202148438 -125 270.202148438 -125 c 0,3,4
 368.202148438 -125 368.202148438 -125 415.93359375 -82.5 c 128,-1,5
 463.665039062 -40 463.665039062 -40 474.751953125 30 c 0,6,7
 486.155273438 102 486.155273438 102 462.619140625 136.5 c 128,-1,8
 439.083984375 171 439.083984375 171 337.083984375 171 c 0,9,10
 237.083984375 171 237.083984375 171 175.7265625 194 c 1,11,12
 139.5 161 139.5 161 122.21875 124.5 c 128,-1,13
 104.9375 88 104.9375 88 95.4345703125 28 c 0,0,1
349.447265625 590 m 0,14,15
 416.447265625 590 416.447265625 590 459.108398438 651 c 128,-1,16
 501.76953125 712 501.76953125 712 517.608398438 812 c 128,-1,17
 533.446289062 912 533.446289062 912 510.029296875 972.5 c 128,-1,18
 486.611328125 1033 486.611328125 1033 419.611328125 1033 c 0,19,20
 354.611328125 1033 354.611328125 1033 310.94921875 972 c 128,-1,21
 267.288085938 911 267.288085938 911 251.608398438 812 c 0,22,23
 235.76953125 712 235.76953125 712 260.108398438 651 c 128,-1,24
 284.447265625 590 284.447265625 590 349.447265625 590 c 0,14,15
329.490234375 464 m 0,25,26
 275.490234375 464 275.490234375 464 233.291992188 488 c 1,27,28
 202.481445312 445 202.481445312 445 195.829101562 403 c 0,29,30
 187.592773438 351 187.592773438 351 224.37109375 327.5 c 128,-1,31
 261.1484375 304 261.1484375 304 382.1484375 304 c 0,32,33
 534.1484375 304 534.1484375 304 574.903320312 233 c 128,-1,34
 615.658203125 162 615.658203125 162 598.39453125 53 c 0,35,36
 586.357421875 -23 586.357421875 -23 546.428710938 -92 c 128,-1,37
 506.5 -161 506.5 -161 433.268554688 -203.5 c 128,-1,38
 360.037109375 -246 360.037109375 -246 249.037109375 -246 c 0,39,40
 104.037109375 -246 104.037109375 -246 28.173828125 -182 c 128,-1,41
 -47.689453125 -118 -47.689453125 -118 -27.416015625 10 c 0,42,43
 -14.5869140625 91 -14.5869140625 91 24.861328125 147.5 c 128,-1,44
 64.310546875 204 64.310546875 204 114.586914062 231 c 1,45,46
 68.189453125 279 68.189453125 279 81.96875 366 c 0,47,48
 89.5712890625 414 89.5712890625 414 114.619140625 458.5 c 128,-1,49
 139.666992188 503 139.666992188 503 174.477539062 546 c 1,50,51
 113.524414062 641 113.524414062 641 140.608398438 812 c 0,52,53
 164.999023438 966 164.999023438 966 245.704101562 1062 c 128,-1,54
 326.409179688 1158 326.409179688 1158 439.409179688 1158 c 0,55,56
 555.409179688 1158 555.409179688 1158 603.5703125 1058 c 1,57,58
 650.490234375 1108 650.490234375 1108 697.553710938 1130.5 c 0,59,60
 734.708984375 1148.26269531 734.708984375 1148.26269531 778.711914062 1148.26269531 c 0,61,62
 790.446289062 1148.26269531 790.446289062 1148.26269531 802.666992188 1147 c 1,63,-1
 797.393554688 1019 l 1,64,65
 779.374023438 1021.40039062 779.374023438 1021.40039062 761.93359375 1021.40039062 c 0,66,67
 735.7734375 1021.40039062 735.7734375 1021.40039062 710.918945312 1016 c 0,68,69
 669.493164062 1007 669.493164062 1007 630.741210938 977 c 1,70,71
 642.530273438 905.959960938 642.530273438 905.959960938 628.796875 819.252929688 c 0,72,73
 628.224609375 815.639648438 628.224609375 815.639648438 627.608398438 812 c 0,74,75
 603.216796875 658 603.216796875 658 522.353515625 561 c 128,-1,76
 441.490234375 464 441.490234375 464 329.490234375 464 c 0,25,26
EndSplineSet
EndChar

StartChar: h
Encoding: 104 104 308
Width: 768
VWidth: 2441
GlyphClass: 2
Flags: HW
AnchorPoint: "Anchor-4" 340.235 1340 basechar 0
AnchorPoint: "Anchor-2" 333 0 basechar 0
AnchorPoint: "Anchor-0" 366.217 1624 basechar 0
LayerCount: 2
Fore
SplineSet
280.216796875 1624 m 1,0,-1
 436.216796875 1624 l 1,1,-1
 433.5234375 1607 l 1,2,3
 417.306640625 1593 417.306640625 1593 411.03515625 1575.5 c 128,-1,4
 404.762695312 1558 404.762695312 1558 398.110351562 1516 c 2,5,-1
 305.614257812 932 l 1,6,7
 367.927734375 1035 367.927734375 1035 440.901367188 1088.5 c 128,-1,8
 513.875 1142 513.875 1142 587.875 1142 c 0,9,10
 704.875 1142 704.875 1142 752.298828125 1040.5 c 128,-1,11
 799.72265625 939 799.72265625 939 758.068359375 676 c 2,12,-1
 651 0 l 1,13,-1
 516 0 l 1,14,-1
 622.276367188 671 l 2,15,16
 649.993164062 846 649.993164062 846 627.267578125 923.5 c 128,-1,17
 604.54296875 1001 604.54296875 1001 540.54296875 1001 c 0,18,19
 486.54296875 1001 486.54296875 1001 428.07421875 957 c 128,-1,20
 369.60546875 913 369.60546875 913 323.35546875 832.5 c 128,-1,21
 277.10546875 752 277.10546875 752 259.840820312 643 c 2,22,-1
 158 0 l 1,23,-1
 23 0 l 1,24,-1
 280.216796875 1624 l 1,0,-1
EndSplineSet
EndChar

StartChar: i
Encoding: 105 105 313
Width: 768
VWidth: 2441
GlyphClass: 2
Flags: HW
AnchorPoint: "Anchor-3" 500 0 basechar 0
AnchorPoint: "Anchor-2" 335 0 basechar 0
AnchorPoint: "Anchor-0" 568.934 1477 basechar 0
LayerCount: 2
Fore
SplineSet
72 0 m 1,0,-1
 93.6982421875 137 l 1,1,-1
 293.698242188 137 l 1,2,-1
 427.05859375 979 l 1,3,-1
 236.05859375 979 l 1,4,-1
 257.756835938 1116 l 1,5,-1
 585.756835938 1116 l 1,6,-1
 430.698242188 137 l 1,7,-1
 612.698242188 137 l 1,8,-1
 591 0 l 1,9,-1
 72 0 l 1,0,-1
549.51171875 1367 m 0,10,11
 510.51171875 1367 510.51171875 1367 486.080078125 1399 c 128,-1,12
 461.6484375 1431 461.6484375 1431 468.6171875 1475 c 0,13,14
 475.90234375 1521 475.90234375 1521 509.391601562 1552.5 c 128,-1,15
 542.880859375 1584 542.880859375 1584 583.880859375 1584 c 0,16,17
 625.880859375 1584 625.880859375 1584 649.733398438 1551.5 c 128,-1,18
 673.5859375 1519 673.5859375 1519 666.6171875 1475 c 128,-1,19
 659.6484375 1431 659.6484375 1431 625.580078125 1399 c 128,-1,20
 591.51171875 1367 591.51171875 1367 549.51171875 1367 c 0,10,11
EndSplineSet
Substitution2: "'locl' Localized Forms in Latin lookup 18 subtable" i.loclTRK
Substitution2: "'locl' Localized Forms in Latin lookup 17 subtable" i.loclTRK
Substitution2: "'locl' Localized Forms in Latin lookup 16 subtable" i.loclTRK
Substitution2: "'locl' Localized Forms in Latin lookup 15 subtable" i.loclTRK
Substitution2: "'locl' Localized Forms in Latin lookup 14 subtable" i.loclTRK
Substitution2: "Single Substitution lookup 4 subtable" dotlessi
Substitution2: "Single Substitution lookup 3 subtable" dotlessi
AlternateSubs2: "'aalt' Access All Alternates in Latin lookup 1 subtable" dotlessi i.loclTRK
EndChar

StartChar: dotlessi
Encoding: 305 305 314
Width: 768
VWidth: 2441
GlyphClass: 2
Flags: HW
AnchorPoint: "Anchor-3" 500 0 basechar 0
AnchorPoint: "Anchor-2" 335 0 basechar 0
AnchorPoint: "Anchor-0" 511.757 1116 basechar 0
LayerCount: 2
Fore
SplineSet
72 0 m 1,0,-1
 93.6982421875 137 l 1,1,-1
 293.698242188 137 l 1,2,-1
 427.05859375 979 l 1,3,-1
 236.05859375 979 l 1,4,-1
 257.756835938 1116 l 1,5,-1
 585.756835938 1116 l 1,6,-1
 430.698242188 137 l 1,7,-1
 612.698242188 137 l 1,8,-1
 591 0 l 1,9,-1
 72 0 l 1,0,-1
EndSplineSet
EndChar

StartChar: j
Encoding: 106 106 329
Width: 768
VWidth: 2363
GlyphClass: 2
Flags: HW
AnchorPoint: "Anchor-2" 268.336 -282 basechar 0
AnchorPoint: "Anchor-0" 670.518 1487 basechar 0
LayerCount: 2
Fore
SplineSet
174.037109375 -246 m 0,0,1
 108.037109375 -246 108.037109375 -246 48.630859375 -217 c 128,-1,2
 -10.7763671875 -188 -10.7763671875 -188 -46.748046875 -131 c 1,3,-1
 44.7333984375 -8 l 1,4,-1
 58.42578125 9 l 1,5,-1
 71.4755859375 3 l 1,6,7
 75.7822265625 -14 75.7822265625 -14 75.5361328125 -34.5 c 128,-1,8
 75.2890625 -55 75.2890625 -55 94.6953125 -84 c 1,9,10
 130.994140625 -120 130.994140625 -120 193.994140625 -120 c 0,11,12
 261.994140625 -120 261.994140625 -120 316.713867188 -46 c 128,-1,13
 371.434570312 28 371.434570312 28 395.66796875 181 c 2,14,-1
 530.453125 1032 l 1,15,-1
 258.453125 1032 l 1,16,-1
 278.250976562 1157 l 1,17,-1
 674.250976562 1157 l 1,18,-1
 521.092773438 190 l 2,19,20
 495.276367188 27 495.276367188 27 445.571289062 -69 c 128,-1,21
 395.866210938 -165 395.866210938 -165 327.452148438 -205.5 c 128,-1,22
 259.037109375 -246 259.037109375 -246 174.037109375 -246 c 0,0,1
652.6796875 1387 m 0,23,24
 616.6796875 1387 616.6796875 1387 594.693359375 1415.5 c 128,-1,25
 572.70703125 1444 572.70703125 1444 579.04296875 1484 c 0,26,27
 585.694335938 1526 585.694335938 1526 616.288085938 1555 c 128,-1,28
 646.880859375 1584 646.880859375 1584 683.880859375 1584 c 0,29,30
 721.880859375 1584 721.880859375 1584 743.708984375 1554.5 c 128,-1,31
 765.536132812 1525 765.536132812 1525 759.04296875 1484 c 0,32,33
 752.70703125 1444 752.70703125 1444 721.693359375 1415.5 c 128,-1,34
 690.6796875 1387 690.6796875 1387 652.6796875 1387 c 0,23,24
EndSplineSet
Substitution2: "Single Substitution lookup 4 subtable" uni0237
Substitution2: "Single Substitution lookup 3 subtable" uni0237
Substitution2: "'aalt' Access All Alternates in Latin lookup 0 subtable" uni0237
EndChar

StartChar: uni0237
Encoding: 567 567 330
Width: 768
VWidth: 2286
GlyphClass: 2
Flags: HW
AnchorPoint: "Anchor-2" 256.494 -281 basechar 0
AnchorPoint: "Anchor-0" 595.757 1116 basechar 0
LayerCount: 2
Fore
SplineSet
165.037109375 -246 m 0,0,1
 101.037109375 -246 101.037109375 -246 43.47265625 -218 c 128,-1,2
 -14.0927734375 -190 -14.0927734375 -190 -49.2236328125 -134 c 1,3,-1
 39.6240234375 -15 l 1,4,-1
 53.31640625 2 l 1,5,-1
 65.2080078125 -5 l 1,6,7
 68.515625 -22 68.515625 -22 69.005859375 -41 c 128,-1,8
 69.4970703125 -60 69.4970703125 -60 87.9033203125 -89 c 1,9,10
 123.360351562 -124 123.360351562 -124 184.360351562 -124 c 0,11,12
 250.360351562 -124 250.360351562 -124 303.263671875 -52 c 128,-1,13
 356.16796875 20 356.16796875 20 379.608398438 168 c 2,14,-1
 510.592773438 995 l 1,15,-1
 246.592773438 995 l 1,16,-1
 265.756835938 1116 l 1,17,-1
 650.756835938 1116 l 1,18,-1
 502.034179688 177 l 2,19,20
 477.009765625 19 477.009765625 19 428.779296875 -74 c 128,-1,21
 380.549804688 -167 380.549804688 -167 313.793945312 -206.5 c 128,-1,22
 247.037109375 -246 247.037109375 -246 165.037109375 -246 c 0,0,1
EndSplineSet
EndChar

StartChar: k
Encoding: 107 107 332
Width: 768
VWidth: 2441
GlyphClass: 2
Flags: HW
AnchorPoint: "Anchor-2" 328 0 basechar 0
AnchorPoint: "Anchor-0" 336.217 1624 basechar 0
LayerCount: 2
Fore
SplineSet
328.844726562 542 m 1,0,-1
 212.62109375 408 l 1,1,-1
 146 0 l 1,2,-1
 9 0 l 1,3,-1
 266.216796875 1624 l 1,4,-1
 424.216796875 1624 l 1,5,-1
 421.5234375 1607 l 1,6,7
 405.306640625 1593 405.306640625 1593 399.03515625 1575.5 c 128,-1,8
 392.762695312 1558 392.762695312 1558 386.110351562 1516 c 2,9,-1
 241.189453125 601 l 1,10,-1
 698.548828125 1121 l 1,11,12
 740.6484375 1109 740.6484375 1109 796.6484375 1109 c 2,13,-1
 840.6484375 1109 l 1,14,-1
 444.583007812 654 l 1,15,-1
 721 0 l 1,16,-1
 558.416015625 -10 l 1,17,-1
 328.844726562 542 l 1,0,-1
EndSplineSet
EndChar

StartChar: kgreenlandic
Encoding: 312 312 334
Width: 768
VWidth: 2441
GlyphClass: 2
Flags: HW
AnchorPoint: "Anchor-2" 333 0 basechar 0
AnchorPoint: "Anchor-0" 261.757 1116 basechar 0
LayerCount: 2
Fore
SplineSet
328.844726562 542 m 1,0,-1
 212.62109375 408 l 1,1,-1
 146 0 l 1,2,-1
 9 0 l 1,3,-1
 185.756835938 1116 l 1,4,-1
 343.756835938 1116 l 1,5,-1
 341.064453125 1099 l 1,6,7
 324.846679688 1085 324.846679688 1085 318.575195312 1067.5 c 128,-1,8
 312.303710938 1050 312.303710938 1050 305.809570312 1009 c 2,9,-1
 241.189453125 601 l 1,10,-1
 698.548828125 1121 l 1,11,12
 740.6484375 1109 740.6484375 1109 796.6484375 1109 c 2,13,-1
 840.6484375 1109 l 1,14,-1
 444.583007812 654 l 1,15,-1
 721 0 l 1,16,-1
 558.416015625 -10 l 1,17,-1
 328.844726562 542 l 1,0,-1
EndSplineSet
EndChar

StartChar: l
Encoding: 108 108 335
Width: 768
VWidth: 2441
GlyphClass: 2
Flags: HW
AnchorPoint: "Anchor-4" 423.537 559 basechar 0
AnchorPoint: "Anchor-2" 335 0 basechar 0
AnchorPoint: "Anchor-1" 905.757 1116 basechar 0
AnchorPoint: "Anchor-0" 592.217 1624 basechar 0
LayerCount: 2
Fore
SplineSet
43 0 m 1,0,-1
 64.6982421875 137 l 1,1,-1
 288.698242188 137 l 1,2,-1
 502.517578125 1487 l 1,3,-1
 288.517578125 1487 l 1,4,-1
 310.216796875 1624 l 1,5,-1
 661.216796875 1624 l 1,6,-1
 425.698242188 137 l 1,7,-1
 647.698242188 137 l 1,8,-1
 626 0 l 1,9,-1
 43 0 l 1,0,-1
EndSplineSet
EndChar

StartChar: ldot
Encoding: 320 320 339
Width: 768
VWidth: 2441
GlyphClass: 1
Flags: HW
LayerCount: 2
Fore
SplineSet
681.126953125 689 m 128,-1,1
 635.126953125 689 635.126953125 689 609.169921875 724 c 128,-1,2
 583.213867188 759 583.213867188 759 591.450195312 811 c 0,3,4
 599.2109375 860 599.2109375 860 637.25390625 895 c 128,-1,5
 675.297851562 930 675.297851562 930 719.297851562 930 c 128,-1,6
 763.297851562 930 763.297851562 930 790.674804688 894.5 c 128,-1,7
 818.051757812 859 818.051757812 859 810.450195312 811 c 0,8,9
 802.688476562 762 802.688476562 762 764.908203125 725.5 c 128,-1,0
 727.126953125 689 727.126953125 689 681.126953125 689 c 128,-1,1
23 0 m 1,10,-1
 46.6982421875 137 l 1,11,-1
 242.698242188 137 l 1,12,-1
 456.517578125 1487 l 1,13,-1
 271.517578125 1487 l 1,14,-1
 293.216796875 1624 l 1,15,-1
 615.216796875 1624 l 1,16,-1
 379.698242188 137 l 1,17,-1
 630.698242188 137 l 1,18,-1
 609 0 l 1,19,-1
 23 0 l 1,10,-1
EndSplineSet
EndChar

StartChar: uni01C9
Encoding: 457 457 341
Width: 768
VWidth: 2368
GlyphClass: 1
Flags: HW
LayerCount: 2
Fore
SplineSet
254.037109375 -246 m 0,0,1
 185.037109375 -246 185.037109375 -246 134.447265625 -215 c 128,-1,2
 83.857421875 -184 83.857421875 -184 55.7265625 -128 c 1,3,-1
 151.791992188 5 l 1,4,5
 160.416015625 -10 160.416015625 -10 160.936523438 -22.5 c 128,-1,6
 161.45703125 -35 161.45703125 -35 169.763671875 -52 c 128,-1,7
 178.071289062 -69 178.071289062 -69 211.953125 -95 c 0,8,9
 240.786132812 -115 240.786132812 -115 281.786132812 -115 c 0,10,11
 357.786132812 -115 357.786132812 -115 410.818359375 -48.5 c 128,-1,12
 463.850585938 18 463.850585938 18 489.826171875 182 c 2,13,-1
 624.927734375 1035 l 1,14,-1
 405.927734375 1035 l 1,15,-1
 425.725585938 1160 l 1,16,-1
 769.725585938 1160 l 1,17,-1
 616.092773438 190 l 2,18,19
 590.276367188 27 590.276367188 27 538.30859375 -67.5 c 128,-1,20
 486.341796875 -162 486.341796875 -162 412.84765625 -203 c 128,-1,21
 339.354492188 -244 339.354492188 -244 254.037109375 -246 c 0,0,1
726.154296875 1390 m 128,-1,23
 690.154296875 1390 690.154296875 1390 667.66796875 1418.5 c 128,-1,24
 645.182617188 1447 645.182617188 1447 651.67578125 1488 c 0,25,26
 658.328125 1530 658.328125 1530 688.920898438 1559 c 128,-1,27
 719.514648438 1588 719.514648438 1588 757.514648438 1588 c 0,28,29
 793.514648438 1588 793.514648438 1588 815.262695312 1558 c 128,-1,30
 837.01171875 1528 837.01171875 1528 830.67578125 1488 c 128,-1,31
 824.340820312 1448 824.340820312 1448 793.247070312 1419 c 128,-1,22
 762.154296875 1390 762.154296875 1390 726.154296875 1390 c 128,-1,23
-42.66796875 141 m 1,32,-1
 -19.7109375 267 l 1,33,-1
 75.2890625 267 l 1,34,-1
 270.259765625 1498 l 1,35,-1
 183.259765625 1498 l 1,36,-1
 203.216796875 1624 l 1,37,-1
 414.216796875 1624 l 1,38,-1
 199.2890625 267 l 1,39,-1
 387.2890625 267 l 1,40,-1
 367.33203125 141 l 1,41,-1
 -42.66796875 141 l 1,32,-1
EndSplineSet
EndChar

StartChar: lslash
Encoding: 322 322 343
Width: 768
VWidth: 2441
GlyphClass: 1
Flags: HW
LayerCount: 2
Fore
SplineSet
41 0 m 1,0,-1
 64.6982421875 137 l 1,1,-1
 286.698242188 137 l 1,2,-1
 373.176757812 683 l 1,3,-1
 235.723632812 617 l 1,4,-1
 261.22265625 778 l 1,5,-1
 398.834960938 845 l 1,6,-1
 500.517578125 1487 l 1,7,-1
 288.517578125 1487 l 1,8,-1
 310.216796875 1624 l 1,9,-1
 661.216796875 1624 l 1,10,-1
 547.49609375 906 l 1,11,-1
 709.166992188 986 l 1,12,-1
 682.55859375 818 l 1,13,-1
 521.6796875 743 l 1,14,-1
 425.698242188 137 l 1,15,-1
 647.698242188 137 l 1,16,-1
 626 0 l 1,17,-1
 41 0 l 1,0,-1
EndSplineSet
EndChar

StartChar: m
Encoding: 109 109 344
Width: 768
VWidth: 2441
GlyphClass: 2
Flags: HW
AnchorPoint: "Anchor-2" 335 0 basechar 0
AnchorPoint: "Anchor-0" 688.757 1116 basechar 0
LayerCount: 2
Fore
SplineSet
-29 0 m 1,0,-1
 147.756835938 1116 l 1,1,-1
 279.756835938 1116 l 1,2,-1
 262.334960938 1006 l 1,3,4
 295.99609375 1067 295.99609375 1067 339.435546875 1104.5 c 128,-1,5
 382.875 1142 382.875 1142 428.875 1142 c 0,6,7
 479.875 1142 479.875 1142 508.588867188 1096 c 128,-1,8
 537.303710938 1050 537.303710938 1050 536.05859375 979 c 1,9,10
 568.620117188 1052 568.620117188 1052 623.748046875 1097 c 128,-1,11
 678.875 1142 678.875 1142 736.875 1142 c 0,12,13
 814.875 1142 814.875 1142 841.021484375 1064 c 0,14,15
 864.706054688 993.340820312 864.706054688 993.340820312 846.88671875 880.831054688 c 0,16,17
 845.03515625 869.141601562 845.03515625 869.141601562 842.735351562 857 c 1,18,-1
 707 0 l 1,19,-1
 575 0 l 1,20,-1
 700.440429688 792 l 2,21,22
 716.75390625 895 716.75390625 895 718.119140625 941.5 c 128,-1,23
 719.483398438 988 719.483398438 988 708.359375 1003 c 128,-1,24
 697.235351562 1018 697.235351562 1018 676.235351562 1018 c 0,25,26
 644.235351562 1018 644.235351562 1018 612.766601562 974 c 128,-1,27
 581.297851562 930 581.297851562 930 557.08203125 865.5 c 128,-1,28
 532.866210938 801 532.866210938 801 522.729492188 737 c 2,29,-1
 406 0 l 1,30,-1
 272 0 l 1,31,-1
 394.90625 776 l 2,32,33
 416.921875 915 416.921875 915 411.682617188 964 c 128,-1,34
 406.443359375 1013 406.443359375 1013 364.443359375 1013 c 0,35,36
 332.443359375 1013 332.443359375 1013 286.540039062 941 c 128,-1,37
 240.635742188 869 240.635742188 869 220.99609375 745 c 2,38,-1
 103 0 l 1,39,-1
 -29 0 l 1,0,-1
EndSplineSet
EndChar

StartChar: n
Encoding: 110 110 346
Width: 768
VWidth: 2441
GlyphClass: 2
Flags: HW
AnchorPoint: "Anchor-2" 351 0 basechar 0
AnchorPoint: "Anchor-0" 536.757 1116 basechar 0
LayerCount: 2
Fore
SplineSet
20 0 m 1,0,-1
 196.756835938 1116 l 1,1,-1
 331.756835938 1116 l 1,2,-1
 302.614257812 932 l 1,3,4
 428.875 1142 428.875 1142 594.875 1142 c 0,5,6
 667.875 1142 667.875 1142 713.77734375 1103.5 c 128,-1,7
 759.6796875 1065 759.6796875 1065 773.999023438 966 c 128,-1,8
 788.319335938 867 788.319335938 867 760.443359375 691 c 2,9,-1
 651 0 l 1,10,-1
 516 0 l 1,11,-1
 624.493164062 685 l 2,12,13
 652.2109375 860 652.2109375 860 627.376953125 930.5 c 128,-1,14
 602.54296875 1001 602.54296875 1001 537.54296875 1001 c 0,15,16
 486.54296875 1001 486.54296875 1001 427.469726562 959.5 c 128,-1,17
 368.396484375 918 368.396484375 918 322.201171875 841 c 128,-1,18
 276.005859375 764 276.005859375 764 259.05859375 657 c 2,19,-1
 155 0 l 1,20,-1
 20 0 l 1,0,-1
EndSplineSet
EndChar

StartChar: eng
Encoding: 331 331 352
Width: 768
VWidth: 2288
GlyphClass: 1
Flags: HW
LayerCount: 2
Fore
SplineSet
262.037109375 -246 m 0,0,1
 180.037109375 -246 180.037109375 -246 128.173828125 -182 c 1,2,-1
 200.081054688 -50 l 1,3,4
 207.763671875 -52 207.763671875 -52 211.650390625 -68.5 c 128,-1,5
 215.537109375 -85 215.537109375 -85 229.661132812 -100 c 128,-1,6
 243.786132812 -115 243.786132812 -115 286.786132812 -115 c 0,7,8
 360.786132812 -115 360.786132812 -115 408.9609375 -25.5 c 128,-1,9
 457.13671875 64 457.13671875 64 483.428710938 230 c 2,10,-1
 561.987304688 726 l 2,11,12
 580.518554688 843 580.518554688 843 574.416992188 905.5 c 128,-1,13
 568.31640625 968 568.31640625 968 545.275390625 993 c 128,-1,14
 522.235351562 1018 522.235351562 1018 485.235351562 1018 c 0,15,16
 438.235351562 1018 438.235351562 1018 386.400390625 978 c 128,-1,17
 334.564453125 938 334.564453125 938 293.319335938 867 c 128,-1,18
 252.07421875 796 252.07421875 796 237.02734375 701 c 2,19,-1
 147.065429688 133 l 1,20,-1
 24.0654296875 133 l 1,21,-1
 180.232421875 1119 l 1,22,-1
 303.232421875 1119 l 1,23,-1
 277.57421875 957 l 1,24,25
 388.875 1142 388.875 1142 526.875 1142 c 0,26,27
 586.875 1142 586.875 1142 630.751953125 1106.5 c 128,-1,28
 674.629882812 1071 674.629882812 1071 689.954101562 981.5 c 128,-1,29
 705.279296875 892 705.279296875 892 679.62109375 730 c 2,30,-1
 604.229492188 254 l 2,31,32
 560.83203125 -20 560.83203125 -20 469.934570312 -133 c 128,-1,33
 379.037109375 -246 379.037109375 -246 262.037109375 -246 c 0,0,1
EndSplineSet
EndChar

StartChar: o
Encoding: 111 111 355
Width: 768
VWidth: 2441
GlyphClass: 2
Flags: HW
AnchorPoint: "Anchor-4" 423.537 559 basechar 0
AnchorPoint: "Anchor-3" 400.801 24 basechar 0
AnchorPoint: "Anchor-2" 335 0 basechar 0
AnchorPoint: "Anchor-1" 689.68 1065 basechar 0
AnchorPoint: "Anchor-0" 511.757 1116 basechar 0
LayerCount: 2
Fore
SplineSet
353.53125 117 m 0,0,1
 451.53125 117 451.53125 117 527.953125 227 c 128,-1,2
 604.375976562 337 604.375976562 337 639.853515625 561 c 0,3,4
 675.6484375 787 675.6484375 787 633.833007812 895.5 c 128,-1,5
 592.017578125 1004 592.017578125 1004 494.017578125 1004 c 128,-1,6
 396.017578125 1004 396.017578125 1004 319.491210938 896.5 c 128,-1,7
 242.96484375 789 242.96484375 789 206.853515625 561 c 0,8,9
 171.375976562 337 171.375976562 337 212.453125 227 c 128,-1,10
 253.53125 117 253.53125 117 353.53125 117 c 0,0,1
331.990234375 -19 m 128,-1,12
 172.990234375 -19 172.990234375 -19 94.560546875 123.5 c 128,-1,13
 16.1298828125 266 16.1298828125 266 62.537109375 559 c 0,14,15
 109.418945312 855 109.418945312 855 233.48828125 997.5 c 128,-1,16
 357.55859375 1140 357.55859375 1140 515.55859375 1140 c 0,17,18
 674.55859375 1140 674.55859375 1140 752.48828125 997.5 c 128,-1,19
 830.418945312 855 830.418945312 855 783.537109375 559 c 0,20,21
 737.129882812 266 737.129882812 266 614.060546875 123.5 c 128,-1,11
 490.990234375 -19 490.990234375 -19 331.990234375 -19 c 128,-1,12
EndSplineSet
Substitution2: "Single Substitution lookup 29 subtable" ordmasculine
Substitution2: "'aalt' Access All Alternates in Latin lookup 0 subtable" ordmasculine
EndChar

StartChar: oslash
Encoding: 248 248 383
Width: 768
VWidth: 2441
GlyphClass: 2
Flags: HW
AnchorPoint: "Anchor-4" 423.537 559 basechar 0
AnchorPoint: "Anchor-3" 400.801 24 basechar 0
AnchorPoint: "Anchor-2" 335 0 basechar 0
AnchorPoint: "Anchor-1" 689.68 1065 basechar 0
AnchorPoint: "Anchor-0" 511.757 1116 basechar 0
LayerCount: 2
Fore
SplineSet
353.53125 117 m 0,0,1
 451.53125 117 451.53125 117 527.953125 227 c 128,-1,2
 604.375976562 337 604.375976562 337 639.853515625 561 c 0,3,4
 670.421875 754 670.421875 754 641.319335938 867 c 1,5,-1
 253.18359375 159 l 1,6,7
 290.53125 117 290.53125 117 353.53125 117 c 0,0,1
206.853515625 561 m 0,8,9
 178.186523438 380 178.186523438 380 200.921875 271 c 1,10,-1
 584.474609375 969 l 1,11,12
 548.017578125 1004 548.017578125 1004 494.017578125 1004 c 0,13,14
 396.017578125 1004 396.017578125 1004 319.333007812 895.5 c 128,-1,15
 242.6484375 787 242.6484375 787 206.853515625 561 c 0,8,9
92.41015625 -130 m 1,16,-1
 3.5869140625 -91 l 1,17,-1
 107.838867188 100 l 1,18,19
 62.92578125 170 62.92578125 170 50.21875 285.5 c 128,-1,20
 37.51171875 401 37.51171875 401 62.537109375 559 c 0,21,22
 109.418945312 855 109.418945312 855 231.98828125 997.5 c 128,-1,23
 354.55859375 1140 354.55859375 1140 515.55859375 1140 c 0,24,25
 596.55859375 1140 596.55859375 1140 656.856445312 1104 c 1,26,-1
 743.248046875 1258 l 1,27,-1
 832.595703125 1216 l 1,28,-1
 733.135742188 1030 l 1,29,30
 780.048828125 960 780.048828125 960 794.938476562 842.5 c 128,-1,31
 809.829101562 725 809.829101562 725 783.537109375 559 c 0,32,33
 737.129882812 266 737.129882812 266 614.560546875 123.5 c 128,-1,34
 491.990234375 -19 491.990234375 -19 331.990234375 -19 c 0,35,36
 240.990234375 -19 240.990234375 -19 177.80078125 24 c 1,37,-1
 92.41015625 -130 l 1,16,-1
EndSplineSet
EndChar

StartChar: oe
Encoding: 339 339 389
Width: 768
VWidth: 2441
GlyphClass: 1
Flags: HW
LayerCount: 2
Fore
SplineSet
159.055664062 114 m 0,0,1
 189.055664062 114 189.055664062 114 214.728515625 143.5 c 128,-1,2
 240.400390625 173 240.400390625 173 247.369140625 217 c 0,3,4
 248.161132812 222 248.161132812 222 249.299804688 235.5 c 128,-1,5
 250.4375 249 250.4375 249 251.239257812 273 c 0,6,7
 254.860351562 359 254.860351562 359 264.213867188 437 c 128,-1,8
 273.568359375 515 273.568359375 515 284.021484375 581 c 0,9,10
 306.51171875 723 306.51171875 723 324.916015625 795 c 128,-1,11
 343.319335938 867 343.319335938 867 345.853515625 883 c 0,12,13
 353.138671875 929 353.138671875 929 340.682617188 964 c 128,-1,14
 328.225585938 999 328.225585938 999 297.225585938 999 c 0,15,16
 252.225585938 999 252.225585938 999 199.392578125 908.5 c 128,-1,17
 146.55859375 818 146.55859375 818 109.337890625 583 c 0,18,19
 68.7919921875 327 68.7919921875 327 84.923828125 220.5 c 128,-1,20
 101.055664062 114 101.055664062 114 159.055664062 114 c 0,0,1
412.384765625 678 m 1,21,-1
 636.384765625 678 l 1,22,23
 663.78515625 851 663.78515625 851 652.456054688 931 c 128,-1,24
 641.126953125 1011 641.126953125 1011 577.126953125 1011 c 0,25,26
 519.126953125 1011 519.126953125 1011 478.34765625 924 c 128,-1,27
 437.567382812 837 437.567382812 837 412.384765625 678 c 1,21,-1
450.248046875 -30 m 128,-1,29
 345.248046875 -30 345.248046875 -30 286.661132812 61 c 1,30,31
 210.723632812 -27 210.723632812 -27 124.723632812 -27 c 0,32,33
 85.7236328125 -27 85.7236328125 -27 51.0244140625 -3 c 128,-1,34
 16.326171875 21 16.326171875 21 -7.1953125 84 c 128,-1,35
 -30.7177734375 147 -30.7177734375 147 -33.08203125 261.5 c 128,-1,36
 -35.447265625 376 -35.447265625 376 -6.7802734375 557 c 0,37,38
 28.3818359375 779 28.3818359375 779 79.9169921875 905.5 c 128,-1,39
 131.453125 1032 131.453125 1032 192.267578125 1084.5 c 128,-1,40
 253.083007812 1137 253.083007812 1137 319.083007812 1137 c 0,41,42
 409.083007812 1137 409.083007812 1137 445.927734375 1035 c 1,43,44
 517.545898438 1137.00976562 517.545898438 1137.00976562 610.280273438 1137.00976562 c 0,0,0
 611.180664062 1137.00976562 611.180664062 1137.00976562 612.083007812 1137 c 0,45,46
 706.083007812 1137 706.083007812 1137 744.0859375 1036 c 128,-1,47
 782.08984375 935 782.08984375 935 743.443359375 691 c 2,48,-1
 719.52734375 540 l 1,49,-1
 388.52734375 540 l 1,50,51
 365.126953125 367 365.126953125 367 365.739257812 273 c 128,-1,52
 366.350585938 179 366.350585938 179 391.649414062 143 c 128,-1,53
 416.947265625 107 416.947265625 107 459.947265625 107 c 0,54,55
 506.947265625 107 506.947265625 107 546.723632812 134 c 128,-1,56
 586.5 161 586.5 161 618.78515625 207 c 1,57,-1
 657.313476562 103 l 1,58,28
 555.248046875 -30 555.248046875 -30 450.248046875 -30 c 128,-1,29
EndSplineSet
EndChar

StartChar: p
Encoding: 112 112 390
Width: 768
VWidth: 2304
GlyphClass: 2
Flags: HW
AnchorPoint: "Anchor-2" 337.848 119 basechar 0
AnchorPoint: "Anchor-0" 496.074 1118 basechar 0
LayerCount: 2
Fore
SplineSet
343.161132812 222 m 0,0,1
 391.161132812 222 391.161132812 222 437.67578125 250.5 c 128,-1,2
 484.189453125 279 484.189453125 279 523.810546875 365 c 128,-1,3
 563.431640625 451 563.431640625 451 590.198242188 620 c 0,4,5
 625.201171875 841 625.201171875 841 595.005859375 925 c 128,-1,6
 564.809570312 1009 564.809570312 1009 479.28515625 1012 c 0,7,8
 477.631835938 1012.04003906 477.631835938 1012.04003906 475.981445312 1012.04003906 c 0,9,10
 395.111328125 1012.04003906 395.111328125 1012.04003906 322.080078125 916 c 0,11,12
 247.55859375 818 247.55859375 818 210.655273438 585 c 0,13,14
 181.611328125 389 181.611328125 389 219.88671875 305.5 c 128,-1,15
 258.161132812 222 258.161132812 222 343.161132812 222 c 0,0,1
-42.962890625 -246 m 1,16,-1
 173.07421875 1118 l 1,17,-1
 295.07421875 1118 l 1,18,-1
 267.990234375 947 l 1,19,20
 307.245117188 1037 307.245117188 1037 371.901367188 1088.5 c 128,-1,21
 436.55859375 1140 436.55859375 1140 510.55859375 1140 c 0,22,23
 591.55859375 1140 591.55859375 1140 649.088867188 1096 c 128,-1,24
 706.620117188 1052 706.620117188 1052 728.540039062 941 c 128,-1,25
 750.458984375 830 750.458984375 830 718.1484375 626 c 0,26,27
 687.10546875 430 687.10546875 430 629.07421875 313 c 128,-1,28
 571.04296875 196 571.04296875 196 496.307617188 144 c 128,-1,29
 421.571289062 92 421.571289062 92 340.571289062 92 c 0,30,31
 275.571289062 92 275.571289062 92 226.723632812 134 c 128,-1,32
 177.875976562 176 177.875976562 176 157.595703125 250 c 1,33,-1
 79.037109375 -246 l 1,34,-1
 -42.962890625 -246 l 1,16,-1
EndSplineSet
EndChar

StartChar: thorn
Encoding: 254 254 391
Width: 768
VWidth: 2374
GlyphClass: 1
Flags: HW
LayerCount: 2
Fore
SplineSet
357.220703125 235 m 0,0,1
 406.220703125 235 406.220703125 235 453.892578125 264.5 c 128,-1,2
 501.565429688 294 501.565429688 294 542.002929688 382 c 128,-1,3
 582.440429688 470 582.440429688 470 610 644 c 0,4,5
 645.953125 871 645.953125 871 614.653320312 957.5 c 128,-1,6
 583.353515625 1044 583.353515625 1044 496.669921875 1046 c 0,7,8
 494.990234375 1046.0390625 494.990234375 1046.0390625 493.313476562 1046.0390625 c 0,0,0
 409.490234375 1046.0390625 409.490234375 1046.0390625 334.6484375 948 c 128,-1,9
 258.309570312 848 258.309570312 848 220.297851562 608 c 0,10,11
 190.303710938 406 190.303710938 406 229.762695312 320.5 c 128,-1,12
 269.220703125 235 269.220703125 235 357.220703125 235 c 0,0,1
255.216796875 1624 m 1,13,-1
 401.216796875 1624 l 1,14,-1
 398.682617188 1608 l 1,15,16
 383.623046875 1595 383.623046875 1595 377.588867188 1579 c 128,-1,17
 371.5546875 1563 371.5546875 1563 365.536132812 1525 c 2,18,-1
 279.375 981 l 1,19,20
 318.946289062 1073 318.946289062 1073 385.76171875 1125.5 c 128,-1,21
 452.577148438 1178 452.577148438 1178 528.577148438 1178 c 0,22,23
 611.577148438 1178 611.577148438 1178 670.94921875 1133 c 128,-1,24
 730.322265625 1088 730.322265625 1088 752.766601562 974 c 128,-1,25
 775.2109375 860 775.2109375 860 741.950195312 650 c 0,26,27
 709.956054688 448 709.956054688 448 650.450195312 328 c 128,-1,28
 590.944335938 208 590.944335938 208 514.049804688 155 c 128,-1,29
 437.155273438 102 437.155273438 102 353.155273438 102 c 0,30,31
 286.155273438 102 286.155273438 102 236.38671875 144.5 c 128,-1,32
 186.618164062 187 186.618164062 187 165.813476562 264 c 1,33,-1
 85.037109375 -246 l 1,34,-1
 -40.962890625 -246 l 1,35,-1
 255.216796875 1624 l 1,13,-1
EndSplineSet
EndChar

StartChar: q
Encoding: 113 113 392
Width: 768
VWidth: 2305
GlyphClass: 1
Flags: HW
LayerCount: 2
Fore
SplineSet
314.428710938 230 m 0,0,1
 393.428710938 230 393.428710938 230 462.108398438 329 c 128,-1,2
 530.788085938 428 530.788085938 428 565.474609375 647 c 0,3,4
 598.1015625 853 598.1015625 853 561.564453125 938 c 128,-1,5
 525.02734375 1023 525.02734375 1023 450.02734375 1023 c 0,6,7
 360.02734375 1023 360.02734375 1023 292.614257812 932 c 128,-1,8
 225.201171875 841 225.201171875 841 191.624023438 629 c 0,9,10
 128.428710938 230 128.428710938 230 314.428710938 230 c 0,0,1
427.037109375 -246 m 1,11,-1
 507.337890625 261 l 1,12,13
 419.98046875 97.90625 419.98046875 97.90625 280.24609375 97.90625 c 0,0,0
 276.8984375 97.90625 276.8984375 97.90625 273.521484375 98 c 0,14,15
 140.838867188 100 140.838867188 100 83.0615234375 234 c 128,-1,16
 25.28515625 368 25.28515625 368 65.5146484375 622 c 0,17,18
 97.033203125 821 97.033203125 821 156.748046875 936 c 128,-1,19
 216.461914062 1051 216.461914062 1051 293.985351562 1098.5 c 128,-1,20
 371.508789062 1146 371.508789062 1146 454.508789062 1146 c 0,21,22
 531.508789062 1146 531.508789062 1146 571.748046875 1097 c 128,-1,23
 611.987304688 1048 611.987304688 1048 623.31640625 968 c 1,24,-1
 647.232421875 1119 l 1,25,-1
 765.232421875 1119 l 1,26,-1
 549.037109375 -246 l 1,27,-1
 427.037109375 -246 l 1,11,-1
EndSplineSet
EndChar

StartChar: r
Encoding: 114 114 393
Width: 768
VWidth: 2441
GlyphClass: 2
Flags: HW
AnchorPoint: "Anchor-2" 365 0 basechar 0
AnchorPoint: "Anchor-0" 588.074 1118 basechar 0
LayerCount: 2
Fore
SplineSet
248.756835938 1116 m 1,0,-1
 397.756835938 1116 l 1,1,-1
 364.188476562 923 l 1,2,3
 416.611328125 1033 416.611328125 1033 499.743164062 1087.5 c 128,-1,4
 582.875 1142 582.875 1142 662.875 1142 c 0,5,6
 792.875 1142 792.875 1142 856.551757812 1020 c 1,7,-1
 779.853515625 883 l 1,8,-1
 769.051757812 859 l 1,9,-1
 753.319335938 867 l 1,10,11
 746.329101562 886 746.329101562 886 746.971679688 909 c 128,-1,12
 747.614257812 932 747.614257812 932 724.366210938 962 c 1,13,14
 680.334960938 1006 680.334960938 1006 631.334960938 1006 c 0,15,16
 573.334960938 1006 573.334960938 1006 507.70703125 961 c 128,-1,17
 442.080078125 916 442.080078125 916 388.008789062 824 c 128,-1,18
 333.9375 732 333.9375 732 311.60546875 591 c 2,19,-1
 217.68359375 -2 l 1,20,-1
 71.68359375 -2 l 1,21,-1
 248.756835938 1116 l 1,0,-1
EndSplineSet
EndChar

StartChar: uni027B
Encoding: 635 635 399
Width: 768
VWidth: 2281
GlyphClass: 1
Flags: HW
LayerCount: 2
Fore
SplineSet
461.037109375 -246 m 0,0,1
 418.037109375 -246 418.037109375 -246 375.076171875 -220.5 c 128,-1,2
 332.115234375 -195 332.115234375 -195 311.092773438 -132 c 128,-1,3
 290.071289062 -69 290.071289062 -69 308.286132812 46 c 2,4,-1
 349.40625 293 l 1,5,6
 306.834960938 201 306.834960938 201 247.12890625 155.5 c 128,-1,7
 187.421875 110 187.421875 110 122.421875 110 c 0,8,9
 75.421875 110 75.421875 110 41.1689453125 130.5 c 128,-1,10
 6.916015625 151 6.916015625 151 -23.53125 205 c 1,11,-1
 40.474609375 325 l 1,12,-1
 50.958984375 347 l 1,13,-1
 58.326171875 343 l 1,14,15
 61.6337890625 326 61.6337890625 326 62.51953125 309.5 c 128,-1,16
 63.40625 293 63.40625 293 78.2392578125 273 c 0,17,18
 103.487304688 243 103.487304688 243 152.487304688 243 c 0,19,20
 221.487304688 243 221.487304688 243 293.791992188 327 c 128,-1,21
 366.095703125 411 366.095703125 411 395.397460938 596 c 2,22,-1
 478.07421875 1118 l 1,23,-1
 605.07421875 1118 l 1,24,-1
 435.286132812 46 l 2,25,26
 422.931640625 -32 422.931640625 -32 440.9375 -73 c 128,-1,27
 458.944335938 -114 458.944335938 -114 499.944335938 -114 c 0,28,29
 514.944335938 -114 514.944335938 -114 530.736328125 -109 c 128,-1,30
 546.528320312 -104 546.528320312 -104 561.428710938 -92 c 0,31,32
 576.012695312 -82 576.012695312 -82 580.150390625 -68.5 c 128,-1,33
 584.2890625 -55 584.2890625 -55 593.922851562 -51 c 1,34,-1
 611.807617188 -178 l 1,35,36
 549.037109375 -246 549.037109375 -246 461.037109375 -246 c 0,0,1
EndSplineSet
EndChar

StartChar: uni024D
Encoding: 589 589 402
Width: 768
VWidth: 2441
GlyphClass: 2
Flags: HW
AnchorPoint: "Anchor-2" 365 0 basechar 0
AnchorPoint: "Anchor-0" 588.074 1118 basechar 0
LayerCount: 2
Fore
SplineSet
33.521484375 420 m 1,0,-1
 55.2197265625 557 l 1,1,-1
 160.219726562 557 l 1,2,-1
 248.756835938 1116 l 1,3,-1
 397.756835938 1116 l 1,4,-1
 364.188476562 923 l 1,5,6
 416.611328125 1033 416.611328125 1033 499.743164062 1087.5 c 128,-1,7
 582.875 1142 582.875 1142 662.875 1142 c 0,8,9
 792.875 1142 792.875 1142 856.551757812 1020 c 1,10,-1
 779.853515625 883 l 1,11,-1
 769.051757812 859 l 1,12,-1
 753.319335938 867 l 1,13,14
 746.329101562 886 746.329101562 886 746.971679688 909 c 128,-1,15
 747.614257812 932 747.614257812 932 724.366210938 962 c 1,16,17
 680.334960938 1006 680.334960938 1006 631.334960938 1006 c 0,18,19
 573.334960938 1006 573.334960938 1006 507.70703125 961 c 128,-1,20
 442.080078125 916 442.080078125 916 388.008789062 824 c 128,-1,21
 333.9375 732 333.9375 732 311.60546875 591 c 2,22,-1
 306.219726562 557 l 1,23,-1
 516.219726562 557 l 1,24,-1
 494.521484375 420 l 1,25,-1
 284.521484375 420 l 1,26,-1
 217.68359375 -2 l 1,27,-1
 71.68359375 -2 l 1,28,-1
 138.521484375 420 l 1,29,-1
 33.521484375 420 l 1,0,-1
EndSplineSet
EndChar

StartChar: s
Encoding: 115 115 403
Width: 768
VWidth: 2441
GlyphClass: 1
Flags: HW
LayerCount: 2
Fore
SplineSet
317.19921875 -24 m 0,0,1
 203.19921875 -24 203.19921875 -24 129.638671875 13.5 c 128,-1,2
 56.0771484375 51 56.0771484375 51 9.7392578125 112 c 1,3,-1
 102.546875 256 l 1,4,-1
 116.03125 278 l 1,5,-1
 129.921875 271 l 1,6,7
 133.913085938 252 133.913085938 252 135.349609375 229.5 c 128,-1,8
 136.78515625 207 136.78515625 207 153.350585938 179 c 1,9,10
 186.807617188 144 186.807617188 144 231.71875 124.5 c 128,-1,11
 276.629882812 105 276.629882812 105 339.629882812 105 c 0,12,13
 427.629882812 105 427.629882812 105 486.4453125 157.5 c 128,-1,14
 545.260742188 210 545.260742188 210 559.515625 300 c 0,15,16
 570.602539062 370 570.602539062 370 539.30859375 415.5 c 128,-1,17
 508.015625 461 508.015625 461 410.776367188 510 c 0,18,19
 281.75390625 573 281.75390625 573 213.450195312 650 c 128,-1,20
 145.145507812 727 145.145507812 727 165.735351562 857 c 0,21,22
 185.692382812 983 185.692382812 983 272.783203125 1062.5 c 128,-1,23
 359.875 1142 359.875 1142 510.875 1142 c 0,24,25
 627.875 1142 627.875 1142 695.77734375 1103.5 c 128,-1,26
 763.6796875 1065 763.6796875 1065 798.375 981 c 1,27,-1
 704.84375 864 l 1,28,-1
 689.518554688 843 l 1,29,-1
 674.943359375 852 l 1,30,31
 672.953125 871 672.953125 871 674.674804688 894.5 c 128,-1,32
 676.396484375 918 676.396484375 918 659.782226562 952 c 1,33,34
 630.325195312 987 630.325195312 987 587.938476562 1003.5 c 128,-1,35
 545.551757812 1020 545.551757812 1020 499.551757812 1020 c 0,36,37
 416.551757812 1020 416.551757812 1020 366.8203125 977.5 c 128,-1,38
 317.08984375 935 317.08984375 935 306.953125 871 c 0,39,40
 295.390625 798 295.390625 798 330.10546875 752 c 128,-1,41
 364.819335938 706 364.819335938 706 484.158203125 645 c 0,42,43
 571.397460938 596 571.397460938 596 624.982421875 555.5 c 128,-1,44
 678.568359375 515 678.568359375 515 697.094726562 461.5 c 128,-1,45
 715.62109375 408 715.62109375 408 702.31640625 324 c 0,46,47
 675.708007812 156 675.708007812 156 574.453125 66 c 128,-1,48
 473.19921875 -24 473.19921875 -24 317.19921875 -24 c 0,0,1
EndSplineSet
EndChar

StartChar: germandbls
Encoding: 223 223 414
Width: 768
VWidth: 2441
GlyphClass: 1
Flags: HW
LayerCount: 2
Fore
SplineSet
391.19921875 -24 m 0,0,1
 342.19921875 -24 342.19921875 -24 295.653320312 -8.5 c 128,-1,2
 249.108398438 7 249.108398438 7 217.65234375 42 c 1,3,-1
 297.716796875 175 l 1,4,5
 339.53125 117 339.53125 117 413.53125 117 c 0,6,7
 462.53125 117 462.53125 117 508.5546875 164.5 c 128,-1,8
 554.577148438 212 554.577148438 212 590.827148438 292.5 c 128,-1,9
 627.077148438 373 627.077148438 373 642.598632812 471 c 0,10,11
 663.981445312 606 663.981445312 606 624.7109375 699 c 128,-1,12
 585.440429688 792 585.440429688 792 448.440429688 792 c 2,13,-1
 397.440429688 792 l 1,14,-1
 418.505859375 925 l 1,15,-1
 481.505859375 925 l 2,16,17
 542.505859375 925 542.505859375 925 599.854492188 993.5 c 128,-1,18
 657.204101562 1062 657.204101562 1062 678.5859375 1197 c 0,19,20
 698.225585938 1321 698.225585938 1321 667.42578125 1407.5 c 128,-1,21
 636.625976562 1494 636.625976562 1494 554.625976562 1494 c 0,22,23
 463.625976562 1494 463.625976562 1494 398.01171875 1367 c 128,-1,24
 332.396484375 1240 332.396484375 1240 300.245117188 1037 c 2,25,-1
 136 0 l 1,26,-1
 -6 0 l 1,27,-1
 157.453125 1032 l 2,28,29
 192.138671875 1251 192.138671875 1251 253.125 1383.5 c 128,-1,30
 314.110351562 1516 314.110351562 1516 393.375976562 1574.5 c 128,-1,31
 472.641601562 1633 472.641601562 1633 560.641601562 1633 c 0,32,33
 704.641601562 1633 704.641601562 1633 779.006835938 1518.5 c 128,-1,34
 853.372070312 1404 853.372070312 1404 821.6953125 1204 c 0,35,36
 805.064453125 1099 805.064453125 1099 758.126953125 1011 c 128,-1,37
 711.188476562 923 711.188476562 923 640.745117188 876 c 1,38,39
 729.092773438 834 729.092773438 834 767.541015625 729.5 c 128,-1,40
 805.990234375 625 805.990234375 625 777.005859375 442 c 0,41,42
 741.52734375 218 741.52734375 218 634.86328125 97 c 128,-1,43
 528.19921875 -24 528.19921875 -24 391.19921875 -24 c 0,0,1
EndSplineSet
EndChar

StartChar: t
Encoding: 116 116 415
Width: 768
VWidth: 2441
GlyphClass: 2
Flags: HW
AnchorPoint: "Anchor-4" 382.688 762 basechar 0
AnchorPoint: "Anchor-2" 355 0 basechar 0
AnchorPoint: "Anchor-1" 604.757 1116 basechar 0
AnchorPoint: "Anchor-0" 530.173 1428 basechar 0
LayerCount: 2
Fore
SplineSet
419.19921875 -24 m 0,0,1
 319.19921875 -24 319.19921875 -24 274.123046875 35.5 c 128,-1,2
 229.046875 95 229.046875 95 230.903320312 233 c 0,3,4
 232.389648438 343.400390625 232.389648438 343.400390625 259.70703125 515.879882812 c 0,5,6
 266.537109375 559 266.537109375 559 274.981445312 606 c 2,7,-1
 341.256835938 955 l 1,8,-1
 169.256835938 955 l 1,9,-1
 190.797851562 1091 l 1,10,-1
 364.797851562 1091 l 1,11,-1
 424.0546875 1402 l 1,12,-1
 571.380859375 1423 l 1,13,-1
 596.172851562 1428 l 1,14,-1
 595.48046875 1411 l 1,15,16
 580.470703125 1392 580.470703125 1392 569.278320312 1375 c 128,-1,17
 558.0859375 1358 558.0859375 1358 549.43359375 1316 c 2,18,-1
 500.797851562 1091 l 1,19,-1
 767.797851562 1091 l 1,20,-1
 746.256835938 955 l 1,21,-1
 481.256835938 955 l 1,22,-1
 412.080078125 594 l 2,23,24
 399.365234375 529.122070312 399.365234375 529.122070312 390.611328125 473.8515625 c 0,25,26
 363.474609375 302.51171875 363.474609375 302.51171875 374.3984375 223.5 c 0,27,28
 388.84765625 119 388.84765625 119 464.84765625 119 c 0,29,30
 520.84765625 119 520.84765625 119 572.811523438 153.5 c 128,-1,31
 624.776367188 188 624.776367188 188 668.478515625 224 c 1,32,-1
 687.413085938 91 l 1,33,34
 619.434570312 28 619.434570312 28 552.31640625 2 c 128,-1,35
 485.19921875 -24 485.19921875 -24 419.19921875 -24 c 0,0,1
EndSplineSet
EndChar

StartChar: tbar
Encoding: 359 359 416
Width: 768
VWidth: 2441
GlyphClass: 2
Flags: HW
AnchorPoint: "Anchor-4" 382.688 762 basechar 0
AnchorPoint: "Anchor-2" 355 0 basechar 0
AnchorPoint: "Anchor-1" 604.757 1116 basechar 0
AnchorPoint: "Anchor-0" 530.173 1428 basechar 0
LayerCount: 2
Fore
SplineSet
419.19921875 -24 m 0,0,1
 324.19921875 -24 324.19921875 -24 277.671875 29.5 c 128,-1,2
 231.145507812 83 231.145507812 83 230.126953125 206 c 0,3,4
 229.19921875 318.06640625 229.19921875 318.06640625 258.518554688 503.184570312 c 0,5,6
 261.37890625 521.244140625 261.37890625 521.244140625 264.52734375 540 c 1,7,-1
 96.52734375 540 l 1,8,-1
 118.068359375 676 l 1,9,-1
 288.068359375 676 l 1,10,-1
 341.256835938 955 l 1,11,-1
 169.256835938 955 l 1,12,-1
 190.797851562 1091 l 1,13,-1
 364.797851562 1091 l 1,14,-1
 424.0546875 1402 l 1,15,-1
 571.380859375 1423 l 1,16,-1
 596.172851562 1428 l 1,17,-1
 595.48046875 1411 l 1,18,19
 580.470703125 1392 580.470703125 1392 569.278320312 1375 c 128,-1,20
 558.0859375 1358 558.0859375 1358 549.43359375 1316 c 2,21,-1
 500.797851562 1091 l 1,22,-1
 767.797851562 1091 l 1,23,-1
 746.256835938 955 l 1,24,-1
 481.256835938 955 l 1,25,-1
 428.068359375 676 l 1,26,-1
 679.068359375 676 l 1,27,-1
 657.52734375 540 l 1,28,-1
 401.52734375 540 l 1,29,30
 395.700195312 507.534179688 395.700195312 507.534179688 390.989257812 477.7890625 c 0,31,32
 361.309570312 290.397460938 361.309570312 290.397460938 375.918945312 211 c 0,33,34
 392.84765625 119 392.84765625 119 464.84765625 119 c 0,35,36
 520.84765625 119 520.84765625 119 572.811523438 153.5 c 128,-1,37
 624.776367188 188 624.776367188 188 668.478515625 224 c 1,38,-1
 687.413085938 91 l 1,39,40
 619.434570312 28 619.434570312 28 552.31640625 2 c 128,-1,41
 485.19921875 -24 485.19921875 -24 419.19921875 -24 c 0,0,1
EndSplineSet
EndChar

StartChar: u
Encoding: 117 117 423
Width: 768
VWidth: 2441
GlyphClass: 2
Flags: HW
AnchorPoint: "Anchor-3" 553 0 basechar 0
AnchorPoint: "Anchor-2" 297 0 basechar 0
AnchorPoint: "Anchor-1" 816.757 1116 basechar 0
AnchorPoint: "Anchor-0" 504.757 1116 basechar 0
LayerCount: 2
Fore
SplineSet
281.723632812 -27 m 0,0,1
 195.723632812 -27 195.723632812 -27 142.350585938 18 c 128,-1,2
 88.978515625 63 88.978515625 63 75.5341796875 177 c 128,-1,3
 62.08984375 291 62.08984375 291 94.2421875 494 c 2,4,-1
 194.756835938 1116 l 1,5,-1
 336.756835938 1116 l 1,6,-1
 238.2421875 494 l 2,7,8
 211.31640625 324 211.31640625 324 219.25 241.5 c 128,-1,9
 227.18359375 159 227.18359375 159 258.302734375 134.5 c 128,-1,10
 289.421875 110 289.421875 110 333.421875 110 c 0,11,12
 408.421875 110 408.421875 110 479.96875 205 c 128,-1,13
 551.515625 300 551.515625 300 583.350585938 501 c 2,14,-1
 680.756835938 1116 l 1,15,-1
 822.756835938 1116 l 1,16,-1
 673.400390625 173 l 2,17,18
 666.431640625 129 666.431640625 129 662.200195312 86.5 c 128,-1,19
 657.96875 44 657.96875 44 663 0 c 1,20,-1
 528 0 l 1,21,22
 522.65234375 42 522.65234375 42 524.853515625 78 c 128,-1,23
 527.055664062 114 527.055664062 114 533.708007812 156 c 1,24,25
 488.5625 73 488.5625 73 425.642578125 23 c 128,-1,26
 362.723632812 -27 362.723632812 -27 281.723632812 -27 c 0,0,1
EndSplineSet
EndChar

StartChar: v
Encoding: 118 118 446
Width: 768
VWidth: 2441
GlyphClass: 2
Flags: HW
AnchorPoint: "Anchor-2" 335 0 basechar 0
AnchorPoint: "Anchor-0" 511.757 1116 basechar 0
LayerCount: 2
Fore
SplineSet
274 0 m 1,0,-1
 152.756835938 1116 l 1,1,-1
 294.756835938 1116 l 1,2,-1
 384.021484375 259 l 1,3,-1
 561.583007812 654 l 2,4,5
 621.96484375 789 621.96484375 789 661.600585938 903.5 c 128,-1,6
 701.235351562 1018 701.235351562 1018 729.756835938 1116 c 1,7,-1
 863.756835938 1116 l 1,8,9
 833.443359375 1013 833.443359375 1013 787.120117188 891 c 128,-1,10
 740.797851562 769 740.797851562 769 676.306640625 627 c 2,11,-1
 397 0 l 1,12,-1
 274 0 l 1,0,-1
EndSplineSet
EndChar

StartChar: w
Encoding: 119 119 447
Width: 768
VWidth: 2441
GlyphClass: 2
Flags: HW
AnchorPoint: "Anchor-2" 301 0 basechar 0
AnchorPoint: "Anchor-0" 477.757 1116 basechar 0
LayerCount: 2
Fore
SplineSet
71.68359375 -2 m 1,0,-1
 107.756835938 1116 l 1,1,-1
 227.756835938 1116 l 1,2,-1
 195.021484375 259 l 1,3,-1
 408.782226562 952 l 1,4,-1
 511.782226562 952 l 1,5,-1
 532.337890625 261 l 1,6,7
 617.080078125 594 617.080078125 594 659.782226562 791 c 128,-1,8
 702.483398438 988 702.483398438 988 716.896484375 1079 c 2,9,-1
 722.756835938 1116 l 1,10,-1
 843.756835938 1116 l 1,11,12
 776.775390625 832 776.775390625 832 705.666015625 553.5 c 128,-1,13
 634.555664062 275 634.555664062 275 554.68359375 -2 c 1,14,-1
 418.68359375 -2 l 1,15,-1
 416.166992188 664 l 1,16,-1
 199.68359375 -2 l 1,17,-1
 71.68359375 -2 l 1,0,-1
EndSplineSet
EndChar

StartChar: x
Encoding: 120 120 452
Width: 768
VWidth: 2441
GlyphClass: 2
Flags: HW
AnchorPoint: "Anchor-2" 333 0 basechar 0
AnchorPoint: "Anchor-0" 509.757 1116 basechar 0
LayerCount: 2
Fore
SplineSet
-13 0 m 1,0,-1
 344.645507812 566 l 1,1,-1
 168.756835938 1116 l 1,2,-1
 312.756835938 1116 l 1,3,-1
 443.719726562 718 l 1,4,-1
 692.756835938 1116 l 1,5,-1
 827.756835938 1116 l 1,6,-1
 494.75390625 573 l 1,7,-1
 684 0 l 1,8,-1
 535 0 l 1,9,-1
 396.521484375 420 l 1,10,-1
 136 0 l 1,11,-1
 -13 0 l 1,0,-1
EndSplineSet
EndChar

StartChar: y
Encoding: 121 121 453
Width: 768
VWidth: 2286
GlyphClass: 2
Flags: HW
AnchorPoint: "Anchor-2" 492.432 129 basechar 0
AnchorPoint: "Anchor-0" 471.757 1116 basechar 0
LayerCount: 2
Fore
SplineSet
65.037109375 -246 m 0,0,1
 -31.962890625 -246 -31.962890625 -246 -80.658203125 -162 c 1,2,-1
 -16.869140625 -56 l 1,3,-1
 -2.54296875 -35 l 1,4,-1
 9.03125 -44 l 1,5,6
 12.3388671875 -61 12.3388671875 -61 17.646484375 -78 c 128,-1,7
 22.953125 -95 22.953125 -95 45.626953125 -116 c 1,8,9
 68.3603515625 -124 68.3603515625 -124 92.0439453125 -126 c 0,10,11
 152.043945312 -126 152.043945312 -126 189.313476562 -58 c 128,-1,12
 226.583984375 10 226.583984375 10 278.490234375 142 c 1,13,-1
 278.807617188 144 l 1,14,-1
 156.756835938 1116 l 1,15,-1
 285.756835938 1116 l 1,16,-1
 369.869140625 378 l 1,17,-1
 502.51171875 723 l 2,18,19
 542.192382812 822 542.192382812 822 577.634765625 919.5 c 128,-1,20
 613.077148438 1017 613.077148438 1017 636.756835938 1116 c 1,21,-1
 762.756835938 1116 l 1,22,23
 736.077148438 1017 736.077148438 1017 696.421875 915 c 128,-1,24
 656.766601562 813 656.766601562 813 616.76953125 712 c 2,25,-1
 333.850585938 18 l 2,26,27
 274.043945312 -126 274.043945312 -126 206.540039062 -186 c 128,-1,28
 139.037109375 -246 139.037109375 -246 65.037109375 -246 c 0,0,1
EndSplineSet
EndChar

StartChar: z
Encoding: 122 122 463
Width: 768
VWidth: 2441
GlyphClass: 2
Flags: HW
AnchorPoint: "Anchor-2" 370 0 basechar 0
AnchorPoint: "Anchor-0" 546.757 1116 basechar 0
LayerCount: 2
Fore
SplineSet
9.421875 110 m 1,0,-1
 621.266601562 974 l 1,1,-1
 182.266601562 974 l 1,2,-1
 204.756835938 1116 l 1,3,-1
 809.756835938 1116 l 1,4,-1
 792.334960938 1006 l 1,5,-1
 189.015625 139 l 1,6,-1
 590.015625 139 l 2,7,8
 632.015625 139 632.015625 139 649.307617188 144 c 128,-1,9
 666.599609375 149 666.599609375 149 683.81640625 163 c 1,10,-1
 700.81640625 163 l 1,11,-1
 675 0 l 1,12,-1
 -8 0 l 1,13,-1
 9.421875 110 l 1,0,-1
EndSplineSet
EndChar

StartChar: u.i
Encoding: 65539 -1 468
Width: 768
VWidth: 2441
GlyphClass: 2
Flags: HW
AnchorPoint: "Anchor-3" 500 0 basechar 0
AnchorPoint: "Anchor-2" 258 0 basechar 0
AnchorPoint: "Anchor-1" 734.757 1116 basechar 0
AnchorPoint: "Anchor-0" 443.757 1116 basechar 0
LayerCount: 2
Fore
SplineSet
225.723632812 -27 m 0,0,1
 144.723632812 -27 144.723632812 -27 95.3505859375 18 c 128,-1,2
 45.978515625 63 45.978515625 63 33.0341796875 177 c 128,-1,3
 20.08984375 291 20.08984375 291 52.2421875 494 c 2,4,-1
 152.756835938 1116 l 1,5,-1
 287.756835938 1116 l 1,6,-1
 189.2421875 494 l 2,7,8
 162.31640625 324 162.31640625 324 168.75 241.5 c 128,-1,9
 175.18359375 159 175.18359375 159 205.302734375 134.5 c 128,-1,10
 235.421875 110 235.421875 110 277.421875 110 c 0,11,12
 347.421875 110 347.421875 110 416.46875 205 c 128,-1,13
 485.515625 300 485.515625 300 517.350585938 501 c 2,14,-1
 614.756835938 1116 l 1,15,-1
 748.756835938 1116 l 1,16,-1
 599.400390625 173 l 2,17,18
 592.431640625 129 592.431640625 129 588.200195312 86.5 c 128,-1,19
 583.96875 44 583.96875 44 589 0 c 1,20,-1
 460 0 l 1,21,22
 454.65234375 42 454.65234375 42 458.353515625 78 c 128,-1,23
 462.055664062 114 462.055664062 114 468.708007812 156 c 1,24,25
 425.5625 73 425.5625 73 365.142578125 23 c 128,-1,26
 304.723632812 -27 304.723632812 -27 225.723632812 -27 c 0,0,1
EndSplineSet
EndChar

StartChar: r.serif
Encoding: 65540 -1 469
Width: 768
VWidth: 2441
GlyphClass: 1
Flags: HW
LayerCount: 2
Fore
SplineSet
24.68359375 -2 m 1,0,-1
 45.58984375 130 l 1,1,-1
 145.58984375 130 l 1,2,-1
 280.05859375 979 l 1,3,-1
 185.05859375 979 l 1,4,-1
 206.756835938 1116 l 1,5,-1
 450.756835938 1116 l 1,6,-1
 415.396484375 918 l 1,7,8
 468.235351562 1018 468.235351562 1018 540.896484375 1079 c 128,-1,9
 613.55859375 1140 613.55859375 1140 699.55859375 1140 c 0,10,11
 816.55859375 1140 816.55859375 1140 880.551757812 1020 c 1,12,-1
 797.943359375 852 l 1,13,14
 781.735351562 857 781.735351562 857 775.45703125 880.5 c 128,-1,15
 769.1796875 904 769.1796875 904 760.376953125 930.5 c 128,-1,16
 751.57421875 957 751.57421875 957 727.741210938 977 c 128,-1,17
 703.909179688 997 703.909179688 997 650.909179688 997 c 0,18,19
 596.909179688 997 596.909179688 997 535.168945312 935.5 c 128,-1,20
 473.427734375 874 473.427734375 874 425.248046875 775 c 128,-1,21
 377.068359375 676 377.068359375 676 358.853515625 561 c 2,22,-1
 290.58984375 130 l 1,23,-1
 443.58984375 130 l 1,24,-1
 422.68359375 -2 l 1,25,-1
 24.68359375 -2 l 1,0,-1
EndSplineSet
EndChar

StartChar: ordfeminine
Encoding: 170 170 470
Width: 768
VWidth: 2441
GlyphClass: 1
Flags: HW
LayerCount: 2
Fore
SplineSet
117.250976562 513 m 1,0,-1
 714.250976562 513 l 1,1,-1
 694.611328125 389 l 1,2,-1
 97.611328125 389 l 1,3,-1
 117.250976562 513 l 1,0,-1
330.645507812 888 m 0,4,5
 319.083007812 815 319.083007812 815 342.698242188 781 c 128,-1,6
 366.313476562 747 366.313476562 747 413.313476562 747 c 0,7,8
 576.313476562 747 576.313476562 747 634.412109375 1057 c 1,9,10
 586.521484375 1064 586.521484375 1064 542.6796875 1065 c 0,11,12
 454.6796875 1065 454.6796875 1065 400.422851562 1025.5 c 128,-1,13
 346.166992188 986 346.166992188 986 330.645507812 888 c 0,4,5
377.098632812 632 m 0,14,15
 282.098632812 632 282.098632812 632 239.344726562 703 c 128,-1,16
 196.58984375 774 196.58984375 774 213.219726562 879 c 0,17,18
 238.719726562 1040 238.719726562 1040 333.227539062 1109.5 c 128,-1,19
 427.735351562 1179 427.735351562 1179 556.735351562 1179 c 0,20,21
 595.735351562 1179 595.735351562 1179 650.151367188 1169 c 1,22,23
 667.958984375 1313 667.958984375 1313 643.45703125 1363.5 c 128,-1,24
 618.956054688 1414 618.956054688 1414 539.956054688 1414 c 0,25,26
 458.956054688 1414 458.956054688 1414 380.91796875 1338 c 1,27,-1
 339.6484375 1431 l 1,28,29
 440.977539062 1533.00976562 440.977539062 1533.00976562 566.366210938 1533.00976562 c 0,0,0
 567.583984375 1533.00976562 567.583984375 1533.00976562 568.803710938 1533 c 0,30,31
 651.803710938 1533 651.803710938 1533 702.259765625 1498 c 128,-1,32
 752.716796875 1463 752.716796875 1463 766.303710938 1372 c 128,-1,33
 779.890625 1281 779.890625 1281 753.282226562 1113 c 2,34,-1
 680.266601562 652 l 1,35,-1
 566.266601562 652 l 1,36,-1
 585.114257812 771 l 1,37,38
 536.493164062 685 536.493164062 685 482.295898438 658.5 c 128,-1,39
 428.098632812 632 428.098632812 632 377.098632812 632 c 0,14,15
EndSplineSet
EndChar

StartChar: ordmasculine
Encoding: 186 186 471
Width: 768
VWidth: 2441
GlyphClass: 1
Flags: HW
LayerCount: 2
Fore
SplineSet
117.250976562 513 m 1,0,-1
 714.250976562 513 l 1,1,-1
 694.611328125 389 l 1,2,-1
 97.611328125 389 l 1,3,-1
 117.250976562 513 l 1,0,-1
454.580078125 755 m 0,4,5
 522.580078125 755 522.580078125 755 574.830078125 835.5 c 128,-1,6
 627.080078125 916 627.080078125 916 653.688476562 1084 c 0,7,8
 681.40625 1259 681.40625 1259 653.838867188 1337.5 c 128,-1,9
 626.272460938 1416 626.272460938 1416 559.272460938 1416 c 0,10,11
 493.272460938 1416 493.272460938 1416 439.91796875 1338 c 128,-1,12
 386.564453125 1260 386.564453125 1260 358.688476562 1084 c 0,13,14
 332.080078125 916 332.080078125 916 358.330078125 835.5 c 128,-1,15
 384.580078125 755 384.580078125 755 454.580078125 755 c 0,4,5
436.048828125 638 m 0,16,17
 317.048828125 638 317.048828125 638 258.337890625 744 c 128,-1,18
 199.626953125 850 199.626953125 850 236.213867188 1081 c 0,19,20
 273.750976562 1318 273.750976562 1318 366.27734375 1425.5 c 128,-1,21
 458.803710938 1533 458.803710938 1533 577.803710938 1533 c 0,22,23
 694.803710938 1533 694.803710938 1533 752.77734375 1425.5 c 128,-1,24
 810.750976562 1318 810.750976562 1318 773.213867188 1081 c 0,25,26
 736.46875 849 736.46875 849 644.758789062 743.5 c 128,-1,27
 553.048828125 638 553.048828125 638 436.048828125 638 c 0,16,17
EndSplineSet
EndChar

StartChar: uni2124
Encoding: 8484 8484 473
Width: 768
VWidth: 2441
GlyphClass: 1
Flags: HW
LayerCount: 2
Fore
SplineSet
836.272460938 1416 m 1,0,-1
 736.272460938 1416 l 1,1,-1
 97.3134765625 103 l 1,2,-1
 197.313476562 103 l 1,3,-1
 836.272460938 1416 l 1,0,-1
940.90234375 1521 m 1,4,-1
 922.0546875 1402 l 1,5,-1
 293.313476562 103 l 1,6,-1
 605.313476562 103 l 2,7,8
 647.313476562 103 647.313476562 103 665.026367188 107.5 c 128,-1,9
 682.739257812 112 682.739257812 112 699.956054688 126 c 1,10,-1
 717.956054688 126 l 1,11,-1
 698 0 l 1,12,-1
 -8 0 l 1,13,-1
 10.84765625 119 l 1,14,-1
 645.272460938 1416 l 1,15,-1
 218.272460938 1416 l 1,16,-1
 234.90234375 1521 l 1,17,-1
 940.90234375 1521 l 1,4,-1
EndSplineSet
EndChar

StartChar: zero
Encoding: 48 48 474
Width: 768
VWidth: 2441
GlyphClass: 1
Flags: HW
LayerCount: 2
Fore
SplineSet
351.055664062 114 m 0,0,1
 442.055664062 114 442.055664062 114 516.342773438 270.5 c 128,-1,2
 590.629882812 427 590.629882812 427 642.10546875 752 c 0,3,4
 660.635742188 869 660.635742188 869 669.158203125 967 c 1,5,-1
 228.642578125 345 l 1,6,7
 241.055664062 114 241.055664062 114 351.055664062 114 c 0,0,1
260.10546875 752 m 0,8,9
 238.08984375 613 238.08984375 613 229.350585938 501 c 1,10,-1
 676.291015625 1132 l 1,11,12
 667.837890625 1388 667.837890625 1388 552.99609375 1389 c 0,13,14
 466.99609375 1389 466.99609375 1389 388.100585938 1225.5 c 128,-1,15
 309.204101562 1062 309.204101562 1062 260.10546875 752 c 0,8,9
328.723632812 -27 m 128,-1,17
 169.723632812 -27 169.723632812 -27 111.5546875 164.5 c 128,-1,18
 53.384765625 356 53.384765625 356 116.10546875 752 c 0,19,20
 176.924804688 1136 176.924804688 1136 296.706054688 1333.5 c 128,-1,21
 416.486328125 1531 416.486328125 1531 575.486328125 1531 c 128,-1,22
 734.486328125 1531 734.486328125 1531 791.125976562 1333 c 128,-1,23
 847.766601562 1135 847.766601562 1135 787.10546875 752 c 0,24,25
 724.384765625 356 724.384765625 356 606.0546875 164.5 c 128,-1,16
 487.723632812 -27 487.723632812 -27 328.723632812 -27 c 128,-1,17
EndSplineSet
Substitution2: "'ss02' Style Set 2 in Latin lookup 36 subtable" zero.ss02
Substitution2: "'zero' Slashed Zero in Latin lookup 33 subtable" zero.zero
Substitution2: "'frac' Diagonal Fractions in Latin lookup 24 subtable" zero.numr
Substitution2: "'dnom' Denominators in Latin lookup 22 subtable" zero.dnom
Substitution2: "'numr' Numerators in Latin lookup 21 subtable" zero.numr
Substitution2: "'sups' Superscript in Latin lookup 20 subtable" uni2070
Substitution2: "'subs' Subscript in Latin lookup 19 subtable" uni2080
AlternateSubs2: "'aalt' Access All Alternates in Latin lookup 1 subtable" zero.zero zero.ss02 uni2080 zero.dnom zero.numr uni2070
EndChar

StartChar: one
Encoding: 49 49 475
Width: 768
VWidth: 2441
GlyphClass: 1
Flags: HW
LayerCount: 2
Fore
SplineSet
286 0 m 1,0,-1
 491.266601562 1296 l 1,1,-1
 265.01171875 1206 l 1,2,-1
 256.43359375 1316 l 1,3,-1
 576.219726562 1523 l 1,4,-1
 672.219726562 1523 l 1,5,-1
 431 0 l 1,6,-1
 286 0 l 1,0,-1
EndSplineSet
Substitution2: "'frac' Diagonal Fractions in Latin lookup 24 subtable" one.numr
Substitution2: "'dnom' Denominators in Latin lookup 22 subtable" one.dnom
Substitution2: "'numr' Numerators in Latin lookup 21 subtable" one.numr
Substitution2: "'sups' Superscript in Latin lookup 20 subtable" uni00B9
Substitution2: "'subs' Subscript in Latin lookup 19 subtable" uni2081
AlternateSubs2: "'aalt' Access All Alternates in Latin lookup 1 subtable" uni2081 one.dnom one.numr uni00B9
EndChar

StartChar: two
Encoding: 50 50 476
Width: 768
VWidth: 2441
GlyphClass: 1
Flags: HW
LayerCount: 2
Fore
SplineSet
50.9072265625 132 m 1,0,1
 240.384765625 356 240.384765625 356 371.939453125 520.5 c 128,-1,2
 503.493164062 685 503.493164062 685 581.271484375 822.5 c 128,-1,3
 659.048828125 960 659.048828125 960 681.380859375 1101 c 0,4,5
 682.501953125 1107.55664062 682.501953125 1107.55664062 683.515625 1113.953125 c 0,0,0
 707.068359375 1262.66015625 707.068359375 1262.66015625 672.280273438 1324.5 c 128,-1,6
 635.99609375 1389 635.99609375 1389 567.99609375 1389 c 0,7,8
 506.99609375 1389 506.99609375 1389 457.561523438 1361 c 128,-1,9
 408.125976562 1333 408.125976562 1333 357.880859375 1262 c 0,10,11
 335.020507812 1225 335.020507812 1225 329.828125 1208 c 128,-1,12
 324.635742188 1191 324.635742188 1191 331.626953125 1172 c 1,13,-1
 321.409179688 1158 l 1,14,-1
 300.517578125 1165 l 1,15,-1
 195.020507812 1225 l 1,16,17
 268.51171875 1367 268.51171875 1367 367.999023438 1449 c 128,-1,18
 467.486328125 1531 467.486328125 1531 588.486328125 1531 c 0,19,20
 735.486328125 1531 735.486328125 1531 796.90625 1420 c 128,-1,21
 858.325195312 1309 858.325195312 1309 824.748046875 1097 c 0,22,23
 799.248046875 936 799.248046875 936 712.673828125 784 c 128,-1,24
 626.098632812 632 626.098632812 632 499.653320312 474.5 c 128,-1,25
 373.208007812 317 373.208007812 317 228.490234375 142 c 1,26,-1
 573.490234375 142 l 2,27,28
 612.490234375 142 612.490234375 142 631.203125 146.5 c 128,-1,29
 649.916015625 151 649.916015625 151 666.291992188 166 c 1,30,-1
 684.291992188 166 l 1,31,-1
 658 0 l 1,32,-1
 30 0 l 1,33,-1
 50.9072265625 132 l 1,0,1
EndSplineSet
Substitution2: "'frac' Diagonal Fractions in Latin lookup 24 subtable" two.numr
Substitution2: "'dnom' Denominators in Latin lookup 22 subtable" two.dnom
Substitution2: "'numr' Numerators in Latin lookup 21 subtable" two.numr
Substitution2: "'sups' Superscript in Latin lookup 20 subtable" uni00B2
Substitution2: "'subs' Subscript in Latin lookup 19 subtable" uni2082
AlternateSubs2: "'aalt' Access All Alternates in Latin lookup 1 subtable" uni2082 two.dnom two.numr uni00B2
EndChar

StartChar: three
Encoding: 51 51 477
Width: 768
VWidth: 2441
GlyphClass: 1
Flags: HW
LayerCount: 2
Fore
SplineSet
311.723632812 -27 m 0,0,1
 211.723632812 -27 211.723632812 -27 145.30078125 24 c 128,-1,2
 78.87890625 75 78.87890625 75 36.81640625 163 c 1,3,-1
 157.021484375 259 l 1,4,-1
 175.555664062 275 l 1,5,-1
 187.655273438 263 l 1,6,7
 182.329101562 242 182.329101562 242 183.8984375 223.5 c 128,-1,8
 185.46875 205 185.46875 205 200.92578125 170 c 1,9,10
 223.649414062 143 223.649414062 143 254.194335938 127.5 c 128,-1,11
 284.739257812 112 284.739257812 112 328.739257812 112 c 0,12,13
 421.739257812 112 421.739257812 112 481.622070312 196.5 c 128,-1,14
 541.505859375 281 541.505859375 281 564.155273438 424 c 0,15,16
 591.555664062 597 591.555664062 597 527.776367188 671 c 128,-1,17
 476.474609375 730.521484375 476.474609375 730.521484375 372.72265625 730.521484375 c 0,0,0
 347.486328125 730.521484375 347.486328125 730.521484375 319.145507812 727 c 1,18,-1
 339.735351562 857 l 1,19,20
 453.735351562 857 453.735351562 857 514.545898438 900 c 128,-1,21
 575.356445312 943 575.356445312 943 603.28515625 1012 c 128,-1,22
 631.213867188 1081 631.213867188 1081 643.725585938 1160 c 0,23,24
 661.782226562 1274 661.782226562 1274 632.046875 1332.5 c 128,-1,25
 602.3125 1391 602.3125 1391 538.3125 1391 c 0,26,27
 440.3125 1391 440.3125 1391 347.46484375 1272 c 1,28,-1
 258.34375 1347 l 1,29,30
 399.486328125 1531 399.486328125 1531 565.486328125 1531 c 0,31,32
 695.486328125 1531 695.486328125 1531 756.806640625 1432 c 128,-1,33
 818.125976562 1333 818.125976562 1333 789.6171875 1153 c 0,34,35
 770.76953125 1034 770.76953125 1034 715.540039062 941 c 128,-1,36
 660.309570312 848 660.309570312 848 568.974609375 808 c 1,37,38
 653.322265625 766 653.322265625 766 692.038085938 669.5 c 128,-1,39
 730.75390625 573 730.75390625 573 706.045898438 417 c 0,40,41
 674.686523438 219 674.686523438 219 570.205078125 96 c 128,-1,42
 465.723632812 -27 465.723632812 -27 311.723632812 -27 c 0,0,1
EndSplineSet
Substitution2: "'frac' Diagonal Fractions in Latin lookup 24 subtable" three.numr
Substitution2: "'dnom' Denominators in Latin lookup 22 subtable" three.dnom
Substitution2: "'numr' Numerators in Latin lookup 21 subtable" three.numr
Substitution2: "'sups' Superscript in Latin lookup 20 subtable" uni00B3
Substitution2: "'subs' Subscript in Latin lookup 19 subtable" uni2083
AlternateSubs2: "'aalt' Access All Alternates in Latin lookup 1 subtable" uni2083 three.dnom three.numr uni00B3
EndChar

StartChar: four
Encoding: 52 52 478
Width: 768
VWidth: 2441
GlyphClass: 1
Flags: HW
LayerCount: 2
Fore
SplineSet
241.884765625 517 m 1,0,-1
 534.884765625 517 l 1,1,-1
 635.6171875 1153 l 1,2,-1
 241.884765625 517 l 1,0,-1
453 0 m 1,3,-1
 512.869140625 378 l 1,4,-1
 63.869140625 378 l 1,5,-1
 82.875 498 l 1,6,-1
 720.219726562 1523 l 1,7,-1
 843.219726562 1523 l 1,8,-1
 683.568359375 515 l 1,9,-1
 807.568359375 515 l 1,10,-1
 785.552734375 376 l 1,11,-1
 661.552734375 376 l 1,12,-1
 602 0 l 1,13,-1
 453 0 l 1,3,-1
EndSplineSet
Substitution2: "'frac' Diagonal Fractions in Latin lookup 24 subtable" four.numr
Substitution2: "'dnom' Denominators in Latin lookup 22 subtable" four.dnom
Substitution2: "'numr' Numerators in Latin lookup 21 subtable" four.numr
Substitution2: "'sups' Superscript in Latin lookup 20 subtable" uni2074
Substitution2: "'subs' Subscript in Latin lookup 19 subtable" uni2084
AlternateSubs2: "'aalt' Access All Alternates in Latin lookup 1 subtable" uni2084 four.dnom four.numr uni2074
EndChar

StartChar: five
Encoding: 53 53 479
Width: 768
VWidth: 2441
GlyphClass: 1
Flags: HW
LayerCount: 2
Fore
SplineSet
328.723632812 -27 m 0,0,1
 230.723632812 -27 230.723632812 -27 152.776367188 27 c 128,-1,2
 74.8291015625 81 74.8291015625 81 39.568359375 193 c 1,3,-1
 156.555664062 275 l 1,4,-1
 178.08984375 291 l 1,5,-1
 187.03125 278 l 1,6,7
 182.021484375 259 182.021484375 259 183.353515625 239 c 128,-1,8
 184.686523438 219 184.686523438 219 201.776367188 188 c 0,9,10
 252.897460938 113 252.897460938 113 352.739257812 112 c 0,11,12
 433.739257812 112 433.739257812 112 502.5234375 208.5 c 128,-1,13
 571.307617188 305 571.307617188 305 599.658203125 484 c 0,14,15
 628.80078125 668 628.80078125 668 588.872070312 760 c 128,-1,16
 548.943359375 852 548.943359375 852 462.943359375 852 c 0,17,18
 350.943359375 852 350.943359375 852 251.245117188 715 c 1,19,-1
 171.313476562 747 l 1,20,-1
 327.90234375 1521 l 1,21,-1
 866.90234375 1521 l 1,22,-1
 844.095703125 1377 l 1,23,-1
 434.095703125 1377 l 1,24,-1
 345.822265625 927 l 1,25,26
 389.098632812 954 389.098632812 954 431.395507812 968.5 c 128,-1,27
 473.692382812 983 473.692382812 983 518.692382812 983 c 0,28,29
 660.692382812 983 660.692382812 983 721.760742188 854 c 128,-1,30
 782.829101562 725 782.829101562 725 743.708007812 478 c 128,-1,31
 704.586914062 231 704.586914062 231 593.655273438 102 c 128,-1,32
 482.723632812 -27 482.723632812 -27 328.723632812 -27 c 0,0,1
EndSplineSet
Substitution2: "'frac' Diagonal Fractions in Latin lookup 24 subtable" five.numr
Substitution2: "'dnom' Denominators in Latin lookup 22 subtable" five.dnom
Substitution2: "'numr' Numerators in Latin lookup 21 subtable" five.numr
Substitution2: "'sups' Superscript in Latin lookup 20 subtable" uni2075
Substitution2: "'subs' Subscript in Latin lookup 19 subtable" uni2085
AlternateSubs2: "'aalt' Access All Alternates in Latin lookup 1 subtable" uni2085 five.dnom five.numr uni2075
EndChar

StartChar: six
Encoding: 54 54 480
Width: 768
VWidth: 2441
GlyphClass: 1
Flags: HW
LayerCount: 2
Fore
SplineSet
376.84765625 119 m 0,0,1
 444.84765625 119 444.84765625 119 504.815429688 213.5 c 128,-1,2
 564.782226562 308 564.782226562 308 592.024414062 480 c 0,3,4
 621.166992188 664 621.166992188 664 586.971679688 748 c 128,-1,5
 552.775390625 832 552.775390625 832 486.775390625 832 c 0,6,7
 425.775390625 832 425.775390625 832 369.9609375 779.5 c 128,-1,8
 314.145507812 727 314.145507812 727 266.840820312 643 c 1,9,10
 257.579101562 604.25 257.579101562 604.25 251.47265625 565.6953125 c 0,0,0
 238.038085938 480.875 238.038085938 480.875 239.87890625 397 c 128,-1,11
 242.555664062 275 242.555664062 275 278.202148438 197 c 128,-1,12
 313.84765625 119 313.84765625 119 376.84765625 119 c 0,0,1
349.19921875 -24 m 0,13,14
 190.19921875 -24 190.19921875 -24 132.024414062 158 c 128,-1,15
 73.8505859375 340 73.8505859375 340 129.918945312 694 c 0,16,17
 198.340820312 1126 198.340820312 1126 329.967773438 1332 c 128,-1,18
 461.595703125 1538 461.595703125 1538 640.595703125 1538 c 0,19,20
 721.595703125 1538 721.595703125 1538 774.314453125 1501.5 c 128,-1,21
 827.033203125 1465 827.033203125 1465 857.104492188 1396 c 1,22,-1
 758.256835938 1277 l 1,23,-1
 743.564453125 1260 l 1,24,-1
 731.672851562 1267 l 1,25,26
 732.365234375 1284 732.365234375 1284 732.454101562 1303.5 c 128,-1,27
 732.54296875 1323 732.54296875 1323 716.293945312 1353 c 1,28,29
 681.768554688 1394.0234375 681.768554688 1394.0234375 625.48046875 1394.0234375 c 0,0,0
 624.140625 1394.0234375 624.140625 1394.0234375 622.788085938 1394 c 0,30,31
 585.788085938 1394 585.788085938 1394 543.19921875 1374.5 c 128,-1,32
 500.611328125 1355 500.611328125 1355 456.50390625 1297.5 c 128,-1,33
 412.396484375 1240 412.396484375 1240 370.870117188 1132.5 c 128,-1,34
 329.34375 1025 329.34375 1025 301.943359375 852 c 1,35,36
 348.60546875 913 348.60546875 913 407.490234375 947 c 128,-1,37
 466.375 981 466.375 981 534.375 981 c 0,38,39
 651.375 981 651.375 981 710.755859375 844.5 c 128,-1,40
 770.135742188 708 770.135742188 708 734.658203125 484 c 0,41,42
 698.86328125 258 698.86328125 258 592.53125 117 c 128,-1,43
 486.19921875 -24 486.19921875 -24 349.19921875 -24 c 0,13,14
EndSplineSet
Substitution2: "'frac' Diagonal Fractions in Latin lookup 24 subtable" six.numr
Substitution2: "'dnom' Denominators in Latin lookup 22 subtable" six.dnom
Substitution2: "'numr' Numerators in Latin lookup 21 subtable" six.numr
Substitution2: "'sups' Superscript in Latin lookup 20 subtable" uni2076
Substitution2: "'subs' Subscript in Latin lookup 19 subtable" uni2086
AlternateSubs2: "'aalt' Access All Alternates in Latin lookup 1 subtable" uni2086 six.dnom six.numr uni2076
EndChar

StartChar: seven
Encoding: 55 55 481
Width: 768
VWidth: 2441
GlyphClass: 1
Flags: HW
LayerCount: 2
Fore
SplineSet
158 0 m 1,0,1
 288.276367188 349 288.276367188 349 418.260742188 693 c 128,-1,2
 548.245117188 1037 548.245117188 1037 692.620117188 1374 c 1,3,-1
 258.620117188 1374 l 1,4,-1
 281.90234375 1521 l 1,5,-1
 883.90234375 1521 l 1,6,-1
 870.28125 1435 l 1,7,8
 716.530273438 1083 716.530273438 1083 579.25 724.5 c 128,-1,9
 441.96875 366 441.96875 366 314 0 c 1,10,-1
 158 0 l 1,0,1
EndSplineSet
Substitution2: "'frac' Diagonal Fractions in Latin lookup 24 subtable" seven.numr
Substitution2: "'dnom' Denominators in Latin lookup 22 subtable" seven.dnom
Substitution2: "'numr' Numerators in Latin lookup 21 subtable" seven.numr
Substitution2: "'sups' Superscript in Latin lookup 20 subtable" uni2077
Substitution2: "'subs' Subscript in Latin lookup 19 subtable" uni2087
AlternateSubs2: "'aalt' Access All Alternates in Latin lookup 1 subtable" uni2087 seven.dnom seven.numr uni2077
EndChar

StartChar: eight
Encoding: 56 56 482
Width: 768
VWidth: 2441
GlyphClass: 1
Flags: HW
LayerCount: 2
Fore
SplineSet
353.53125 117 m 0,0,1
 441.53125 117 441.53125 117 501.884765625 195 c 128,-1,2
 562.239257812 273 562.239257812 273 581.245117188 393 c 0,3,4
 619.890625 637 619.890625 637 437.729492188 737 c 1,5,6
 351.760742188 693 351.760742188 693 293.71875 607.5 c 128,-1,7
 235.676757812 522 235.676757812 522 216.51171875 401 c 0,8,9
 197.6640625 282 197.6640625 282 235.09765625 199.5 c 128,-1,10
 272.53125 117 272.53125 117 353.53125 117 c 0,0,1
498.329101562 886 m 1,11,12
 569.40625 937 569.40625 937 614.364257812 1012.5 c 128,-1,13
 659.322265625 1088 659.322265625 1088 672.943359375 1174 c 0,14,15
 688.46484375 1272 688.46484375 1272 660.759765625 1337 c 128,-1,16
 633.0546875 1402 633.0546875 1402 560.0546875 1402 c 128,-1,17
 487.0546875 1402 487.0546875 1402 442.91796875 1338 c 128,-1,18
 398.782226562 1274 398.782226562 1274 384.051757812 1181 c 0,19,20
 366.3125 1069 366.3125 1069 397.651367188 1008 c 128,-1,21
 428.990234375 947 428.990234375 947 498.329101562 886 c 1,11,12
329.19921875 -24 m 128,-1,23
 178.19921875 -24 178.19921875 -24 109.67578125 89.5 c 128,-1,24
 41.15234375 203 41.15234375 203 69.8193359375 384 c 0,25,26
 92.626953125 528 92.626953125 528 164.866210938 640 c 128,-1,27
 237.10546875 752 237.10546875 752 345.55859375 818 c 1,28,29
 280.635742188 869 280.635742188 869 253.866210938 962 c 128,-1,30
 227.095703125 1055 227.095703125 1055 244.517578125 1165 c 0,31,32
 270.809570312 1331 270.809570312 1331 358.361328125 1435.5 c 128,-1,33
 445.912109375 1540 445.912109375 1540 586.912109375 1540 c 0,34,35
 733.912109375 1540 733.912109375 1540 784.915039062 1439 c 128,-1,36
 835.91796875 1338 835.91796875 1338 810.735351562 1179 c 0,37,38
 793.3125 1069 793.3125 1069 737.474609375 969 c 128,-1,39
 681.635742188 869 681.635742188 869 593.450195312 811 c 1,40,41
 676.788085938 750 676.788085938 750 711.5 644 c 128,-1,42
 746.2109375 538 746.2109375 538 723.245117188 393 c 0,43,44
 693.46875 205 693.46875 205 586.833984375 90.5 c 128,-1,22
 480.19921875 -24 480.19921875 -24 329.19921875 -24 c 128,-1,23
EndSplineSet
Substitution2: "'frac' Diagonal Fractions in Latin lookup 24 subtable" eight.numr
Substitution2: "'dnom' Denominators in Latin lookup 22 subtable" eight.dnom
Substitution2: "'numr' Numerators in Latin lookup 21 subtable" eight.numr
Substitution2: "'sups' Superscript in Latin lookup 20 subtable" uni2078
Substitution2: "'subs' Subscript in Latin lookup 19 subtable" uni2088
AlternateSubs2: "'aalt' Access All Alternates in Latin lookup 1 subtable" uni2088 eight.dnom eight.numr uni2078
EndChar

StartChar: nine
Encoding: 57 57 483
Width: 768
VWidth: 2441
GlyphClass: 1
Flags: HW
LayerCount: 2
Fore
SplineSet
324.245117188 1037 m 0,0,1
 301.4375 893 301.4375 893 340.237304688 806.5 c 128,-1,2
 379.037109375 720 379.037109375 720 449.037109375 720 c 0,3,4
 568.037109375 720 568.037109375 720 650.55859375 818 c 1,5,6
 696.866210938 1123 696.866210938 1123 674.088867188 1257 c 128,-1,7
 651.3125 1391 651.3125 1391 553.3125 1391 c 0,8,9
 478.3125 1391 478.3125 1391 415.849609375 1306 c 128,-1,10
 353.387695312 1221 353.387695312 1221 324.245117188 1037 c 0,0,1
293.19921875 -24 m 1,11,12
 130.19921875 -24 130.19921875 -24 54.6298828125 105 c 1,13,-1
 146.161132812 222 l 1,14,-1
 161.645507812 244 l 1,15,-1
 173.537109375 237 l 1,16,17
 177.2109375 216 177.2109375 216 179.805664062 194.5 c 128,-1,18
 182.400390625 173 182.400390625 173 201.807617188 144 c 1,19,20
 240.739257812 112 240.739257812 112 301.739257812 112 c 0,21,22
 382.739257812 112 382.739257812 112 444.092773438 190 c 128,-1,23
 505.447265625 268 505.447265625 268 549.903320312 394 c 128,-1,24
 594.360351562 520 594.360351562 520 623.850585938 662 c 1,25,26
 580.673828125 623 580.673828125 623 532.34765625 602 c 128,-1,27
 484.021484375 581 484.021484375 581 425.021484375 581 c 0,28,29
 290.021484375 581 290.021484375 581 222.3984375 706.5 c 128,-1,30
 154.775390625 832 154.775390625 832 186.927734375 1035 c 0,31,32
 224.46484375 1272 224.46484375 1272 334.475585938 1401.5 c 128,-1,33
 444.486328125 1531 444.486328125 1531 570.486328125 1531 c 0,34,35
 733.486328125 1531 733.486328125 1531 790.932617188 1366.5 c 128,-1,36
 848.377929688 1202 848.377929688 1202 798.329101562 886 c 0,37,38
 722.303710938 406 722.303710938 406 598.647460938 193.5 c 128,-1,39
 474.990234375 -19 474.990234375 -19 293.19921875 -24 c 1,11,12
EndSplineSet
Substitution2: "'frac' Diagonal Fractions in Latin lookup 24 subtable" nine.numr
Substitution2: "'dnom' Denominators in Latin lookup 22 subtable" nine.dnom
Substitution2: "'numr' Numerators in Latin lookup 21 subtable" nine.numr
Substitution2: "'sups' Superscript in Latin lookup 20 subtable" uni2079
Substitution2: "'subs' Subscript in Latin lookup 19 subtable" uni2089
AlternateSubs2: "'aalt' Access All Alternates in Latin lookup 1 subtable" uni2089 nine.dnom nine.numr uni2079
EndChar

StartChar: zero.zero
Encoding: 65541 -1 484
Width: 768
VWidth: 2441
GlyphClass: 1
Flags: HW
LayerCount: 2
Fore
SplineSet
434.05859375 657 m 0,0,1
 392.05859375 657 392.05859375 657 368.047851562 688.5 c 128,-1,2
 344.037109375 720 344.037109375 720 351.005859375 764 c 0,3,4
 358.291015625 810 358.291015625 810 393.359375 842 c 128,-1,5
 428.427734375 874 428.427734375 874 468.427734375 874 c 0,6,7
 510.427734375 874 510.427734375 874 535.938476562 842.5 c 128,-1,8
 561.450195312 811 561.450195312 811 554.005859375 764 c 0,9,10
 547.037109375 720 547.037109375 720 512.547851562 688.5 c 128,-1,11
 478.05859375 657 478.05859375 657 434.05859375 657 c 0,0,1
351.055664062 114 m 0,12,13
 442.055664062 114 442.055664062 114 516.342773438 270.5 c 128,-1,14
 590.629882812 427 590.629882812 427 642.10546875 752 c 0,15,16
 691.204101562 1062 691.204101562 1062 667.100585938 1225.5 c 128,-1,17
 642.99609375 1389 642.99609375 1389 552.99609375 1389 c 0,18,19
 466.99609375 1389 466.99609375 1389 388.100585938 1225.5 c 128,-1,20
 309.204101562 1062 309.204101562 1062 260.10546875 752 c 0,21,22
 208.788085938 428 208.788085938 428 236.921875 271 c 128,-1,23
 265.055664062 114 265.055664062 114 351.055664062 114 c 0,12,13
328.723632812 -27 m 128,-1,25
 169.723632812 -27 169.723632812 -27 111.5546875 164.5 c 128,-1,26
 53.384765625 356 53.384765625 356 116.10546875 752 c 0,27,28
 176.924804688 1136 176.924804688 1136 296.706054688 1333.5 c 128,-1,29
 416.486328125 1531 416.486328125 1531 575.486328125 1531 c 128,-1,30
 734.486328125 1531 734.486328125 1531 791.125976562 1333 c 128,-1,31
 847.766601562 1135 847.766601562 1135 787.10546875 752 c 0,32,33
 724.384765625 356 724.384765625 356 606.0546875 164.5 c 128,-1,24
 487.723632812 -27 487.723632812 -27 328.723632812 -27 c 128,-1,25
EndSplineSet
EndChar

StartChar: zero.ss02
Encoding: 65542 -1 485
Width: 768
VWidth: 2441
GlyphClass: 1
Flags: HW
LayerCount: 2
Fore
SplineSet
351.055664062 114 m 0,0,1
 442.055664062 114 442.055664062 114 516.342773438 270.5 c 128,-1,2
 590.629882812 427 590.629882812 427 642.10546875 752 c 0,3,4
 691.204101562 1062 691.204101562 1062 667.100585938 1225.5 c 128,-1,5
 642.99609375 1389 642.99609375 1389 552.99609375 1389 c 0,6,7
 466.99609375 1389 466.99609375 1389 388.100585938 1225.5 c 128,-1,8
 309.204101562 1062 309.204101562 1062 260.10546875 752 c 0,9,10
 208.788085938 428 208.788085938 428 236.921875 271 c 128,-1,11
 265.055664062 114 265.055664062 114 351.055664062 114 c 0,0,1
328.723632812 -27 m 128,-1,13
 169.723632812 -27 169.723632812 -27 111.5546875 164.5 c 128,-1,14
 53.384765625 356 53.384765625 356 116.10546875 752 c 0,15,16
 176.924804688 1136 176.924804688 1136 296.706054688 1333.5 c 128,-1,17
 416.486328125 1531 416.486328125 1531 575.486328125 1531 c 128,-1,18
 734.486328125 1531 734.486328125 1531 791.125976562 1333 c 128,-1,19
 847.766601562 1135 847.766601562 1135 787.10546875 752 c 0,20,21
 724.384765625 356 724.384765625 356 606.0546875 164.5 c 128,-1,12
 487.723632812 -27 487.723632812 -27 328.723632812 -27 c 128,-1,13
EndSplineSet
EndChar

StartChar: uni2070
Encoding: 8304 8304 516
Width: 768
VWidth: 2441
GlyphClass: 1
Flags: HW
LayerCount: 2
Fore
SplineSet
442.126953125 689 m 0,0,1
 503.126953125 689 503.126953125 689 550.77734375 781.5 c 128,-1,2
 598.427734375 874 598.427734375 874 628.99609375 1067 c 0,3,4
 639.44921875 1133 639.44921875 1133 643.84375 1186 c 1,5,-1
 358.350585938 823 l 1,6,7
 369.126953125 689 369.126953125 689 442.126953125 689 c 0,0,1
374.99609375 1067 m 0,8,9
 363.1171875 992 363.1171875 992 358.297851562 930 c 1,10,-1
 647.216796875 1302 l 1,11,12
 638.086914062 1445.00683594 638.086914062 1445.00683594 562.913085938 1445.00683594 c 0,13,14
 562.390625 1445.00683594 562.390625 1445.00683594 561.865234375 1445 c 0,15,16
 503.865234375 1445 503.865234375 1445 454.16015625 1349 c 128,-1,17
 404.456054688 1253 404.456054688 1253 374.99609375 1067 c 0,8,9
425.337890625 583 m 128,-1,19
 315.337890625 583 315.337890625 583 272.106445312 701.5 c 128,-1,20
 228.875 820 228.875 820 267.99609375 1067 c 0,21,22
 306.325195312 1309 306.325195312 1309 387.41015625 1429.5 c 128,-1,23
 468.49609375 1550 468.49609375 1550 578.49609375 1550 c 128,-1,24
 688.49609375 1550 688.49609375 1550 731.91015625 1429.5 c 128,-1,25
 775.325195312 1309 775.325195312 1309 736.99609375 1067 c 0,26,27
 697.875 820 697.875 820 616.606445312 701.5 c 128,-1,18
 535.337890625 583 535.337890625 583 425.337890625 583 c 128,-1,19
EndSplineSet
Substitution2: "'ss02' Style Set 2 in Latin lookup 36 subtable" uni2070.ss02
Substitution2: "'zero' Slashed Zero in Latin lookup 33 subtable" uni2070.zero
AlternateSubs2: "'aalt' Access All Alternates in Latin lookup 1 subtable" uni2070.ss02 uni2070.zero
EndChar

StartChar: uni00B9
Encoding: 185 185 517
Width: 768
VWidth: 2441
GlyphClass: 1
Flags: HW
LayerCount: 2
Fore
SplineSet
390.189453125 601 m 1,0,-1
 514.520507812 1386 l 1,1,-1
 368.651367188 1330 l 1,2,-1
 356.272460938 1416 l 1,3,-1
 572.704101562 1545 l 1,4,-1
 651.704101562 1545 l 1,5,-1
 502.189453125 601 l 1,6,-1
 390.189453125 601 l 1,0,-1
EndSplineSet
EndChar

StartChar: uni00B2
Encoding: 178 178 518
Width: 768
VWidth: 2441
GlyphClass: 1
Flags: HW
LayerCount: 2
Fore
SplineSet
230.443359375 691 m 1,0,1
 357.934570312 833 357.934570312 833 445.693359375 932.5 c 128,-1,2
 533.453125 1032 533.453125 1032 583.51953125 1114.5 c 128,-1,3
 633.5859375 1197 633.5859375 1197 649.365234375 1284 c 0,4,5
 662.51171875 1367 662.51171875 1367 638.688476562 1406 c 128,-1,6
 614.865234375 1445 614.865234375 1445 569.865234375 1445 c 0,7,8
 508.865234375 1445 508.865234375 1445 462.1640625 1409 c 1,9,10
 437.620117188 1374 437.620117188 1374 429.26953125 1356 c 128,-1,11
 420.91796875 1338 420.91796875 1338 422.750976562 1318 c 1,12,-1
 413.008789062 1307 l 1,13,-1
 392.43359375 1316 l 1,14,-1
 317.877929688 1363 l 1,15,16
 368.815429688 1451 368.815429688 1451 434.65625 1500.5 c 128,-1,17
 500.49609375 1550 500.49609375 1550 586.49609375 1550 c 0,18,19
 684.49609375 1550 684.49609375 1550 731.98828125 1480.5 c 128,-1,20
 779.48046875 1411 779.48046875 1411 758.573242188 1279 c 0,21,22
 743.051757812 1181 743.051757812 1181 689.53515625 1092.5 c 128,-1,23
 636.017578125 1004 636.017578125 1004 555.55078125 909.5 c 128,-1,24
 475.083007812 815 475.083007812 815 378.819335938 706 c 1,25,-1
 562.819335938 706 l 2,26,27
 604.819335938 706 604.819335938 706 622.032226562 710.5 c 128,-1,28
 639.245117188 715 639.245117188 715 655.62109375 730 c 1,29,-1
 673.62109375 730 l 1,30,-1
 653.189453125 601 l 1,31,-1
 216.189453125 601 l 1,32,-1
 230.443359375 691 l 1,0,1
EndSplineSet
EndChar

StartChar: uni00B3
Encoding: 179 179 519
Width: 768
VWidth: 2441
GlyphClass: 1
Flags: HW
LayerCount: 2
Fore
SplineSet
410.337890625 583 m 0,0,1
 344.337890625 583 344.337890625 583 296.40625 615 c 128,-1,2
 248.474609375 647 248.474609375 647 220.02734375 701 c 1,3,-1
 301.114257812 771 l 1,4,-1
 323.96484375 789 l 1,5,-1
 331.58984375 774 l 1,6,7
 328.580078125 755 328.580078125 755 335.704101562 740 c 128,-1,8
 342.829101562 725 342.829101562 725 368.235351562 696 c 1,9,10
 390.334960938 684 390.334960938 684 422.176757812 683 c 0,11,12
 546.176757812 683 546.176757812 683 574.84375 864 c 0,13,14
 591.474609375 969 591.474609375 969 546.78515625 1012 c 0,15,16
 512.469726562 1045.01757812 512.469726562 1045.01757812 449.045898438 1045.01757812 c 0,17,18
 429.872070312 1045.01757812 429.872070312 1045.01757812 408.036132812 1042 c 1,19,-1
 423.55859375 1140 l 1,20,21
 533.55859375 1140 533.55859375 1140 572.135742188 1191 c 128,-1,22
 610.713867188 1242 610.713867188 1242 622.43359375 1316 c 0,23,24
 632.887695312 1382 632.887695312 1382 612.8515625 1416.5 c 128,-1,25
 592.815429688 1451 592.815429688 1451 550.815429688 1451 c 0,26,27
 482.815429688 1451 482.815429688 1451 422.412109375 1379 c 1,28,-1
 355.28125 1435 l 1,29,30
 452.337890625 1549 452.337890625 1549 568.49609375 1550 c 0,31,32
 659.49609375 1550 659.49609375 1550 705.833984375 1489 c 128,-1,33
 752.172851562 1428 752.172851562 1428 734.43359375 1316 c 0,34,35
 722.5546875 1241 722.5546875 1241 685.369140625 1183 c 128,-1,36
 648.182617188 1125 648.182617188 1125 590.856445312 1104 c 1,37,38
 644.580078125 1077 644.580078125 1077 672.577148438 1017 c 128,-1,39
 700.57421875 957 700.57421875 957 685.051757812 859 c 0,40,41
 665.412109375 735 665.412109375 735 592.875 659 c 128,-1,42
 520.337890625 583 520.337890625 583 410.337890625 583 c 0,0,1
EndSplineSet
EndChar

StartChar: uni2074
Encoding: 8308 8308 520
Width: 768
VWidth: 2441
GlyphClass: 1
Flags: HW
LayerCount: 2
Fore
SplineSet
365.614257812 932 m 1,0,-1
 554.614257812 932 l 1,1,-1
 611.157226562 1289 l 1,2,-1
 365.614257812 932 l 1,0,-1
499.189453125 601 m 1,3,-1
 535.458984375 830 l 1,4,-1
 233.458984375 830 l 1,5,-1
 247.080078125 916 l 1,6,-1
 672.704101562 1545 l 1,7,-1
 758.704101562 1545 l 1,8,-1
 661.614257812 932 l 1,9,-1
 747.614257812 932 l 1,10,-1
 730.984375 827 l 1,11,-1
 644.984375 827 l 1,12,-1
 609.189453125 601 l 1,13,-1
 499.189453125 601 l 1,3,-1
EndSplineSet
EndChar

StartChar: uni2075
Encoding: 8309 8309 521
Width: 768
VWidth: 2441
GlyphClass: 1
Flags: HW
LayerCount: 2
Fore
SplineSet
425.337890625 583 m 0,0,1
 357.337890625 583 357.337890625 583 301.802734375 617.5 c 128,-1,2
 246.266601562 652 246.266601562 652 223.829101562 725 c 1,3,-1
 311.014648438 783 l 1,4,-1
 332.548828125 799 l 1,5,-1
 340.014648438 783 l 1,6,7
 335.005859375 764 335.005859375 764 341.971679688 748 c 128,-1,8
 348.9375 732 348.9375 732 371.344726562 703 c 1,9,10
 400.651367188 686 400.651367188 686 441.493164062 685 c 0,11,12
 495.493164062 685 495.493164062 685 540.021484375 742 c 128,-1,13
 584.548828125 799 584.548828125 799 600.704101562 901 c 0,14,15
 617.651367188 1008 617.651367188 1008 590.362304688 1063 c 128,-1,16
 563.07421875 1118 563.07421875 1118 507.07421875 1118 c 0,17,18
 432.07421875 1118 432.07421875 1118 370.245117188 1037 c 1,19,-1
 305.887695312 1060 l 1,20,-1
 404.38671875 1543 l 1,21,-1
 779.38671875 1543 l 1,22,-1
 763.073242188 1440 l 1,23,-1
 488.073242188 1440 l 1,24,-1
 437.735351562 1179 l 1,25,26
 494.595703125 1216 494.595703125 1216 552.595703125 1216 c 0,27,28
 647.595703125 1216 647.595703125 1216 691.345703125 1135.5 c 128,-1,29
 735.095703125 1055 735.095703125 1055 710.704101562 901 c 128,-1,30
 686.313476562 747 686.313476562 747 609.325195312 665 c 128,-1,31
 532.337890625 583 532.337890625 583 425.337890625 583 c 0,0,1
EndSplineSet
EndChar

StartChar: uni2076
Encoding: 8310 8310 522
Width: 768
VWidth: 2441
GlyphClass: 1
Flags: HW
LayerCount: 2
Fore
SplineSet
460.443359375 691 m 128,-1,1
 502.443359375 691 502.443359375 691 540.99609375 745 c 128,-1,2
 579.548828125 799 579.548828125 799 595.704101562 901 c 0,3,4
 612.334960938 1006 612.334960938 1006 588.75390625 1056 c 128,-1,5
 565.172851562 1106 565.172851562 1106 523.172851562 1106 c 0,6,7
 484.172851562 1106 484.172851562 1106 449.080078125 1077 c 128,-1,8
 413.987304688 1048 413.987304688 1048 383.225585938 999 c 1,9,10
 378.877929688 979.244140625 378.877929688 979.244140625 375.852539062 960.142578125 c 0,11,12
 366.473632812 900.926757812 366.473632812 900.926757812 369.809570312 848 c 0,13,14
 374.22265625 778 374.22265625 778 396.333007812 734.5 c 128,-1,0
 418.443359375 691 418.443359375 691 460.443359375 691 c 128,-1,1
438.971679688 587 m 0,15,16
 326.971679688 587 326.971679688 587 284.2109375 699 c 128,-1,17
 241.450195312 811 241.450195312 811 276.135742188 1030 c 0,18,19
 318.266601562 1296 318.266601562 1296 409.856445312 1426 c 128,-1,20
 501.446289062 1556 501.446289062 1556 623.446289062 1556 c 0,21,22
 728.446289062 1556 728.446289062 1556 781.033203125 1465 c 1,23,-1
 705.887695312 1382 l 1,24,-1
 691.194335938 1365 l 1,25,-1
 680.620117188 1374 l 1,26,27
 681.3125 1391 681.3125 1391 676.188476562 1406 c 128,-1,28
 671.064453125 1421 671.064453125 1421 647.390625 1442 c 0,29,30
 640.70703125 1444 640.70703125 1444 630.944335938 1445.5 c 128,-1,31
 621.182617188 1447 621.182617188 1447 611.182617188 1447 c 0,32,33
 581.182617188 1447 581.182617188 1447 542.77734375 1425.5 c 128,-1,34
 504.372070312 1404 504.372070312 1404 466.522460938 1335.5 c 128,-1,35
 428.672851562 1267 428.672851562 1267 402.291015625 1132 c 1,36,37
 465.803710938 1211 465.803710938 1211 558.803710938 1211 c 0,38,39
 639.803710938 1211 639.803710938 1211 681.895507812 1129.5 c 128,-1,40
 723.987304688 1048 723.987304688 1048 701.1796875 904 c 0,41,42
 678.688476562 762 678.688476562 762 607.830078125 674.5 c 128,-1,43
 536.971679688 587 536.971679688 587 438.971679688 587 c 0,15,16
EndSplineSet
EndChar

StartChar: uni2077
Encoding: 8311 8311 523
Width: 768
VWidth: 2441
GlyphClass: 1
Flags: HW
LayerCount: 2
Fore
SplineSet
299.189453125 601 m 1,0,1
 384.2421875 816 384.2421875 816 469.369140625 1022 c 128,-1,2
 554.49609375 1228 554.49609375 1228 648.28125 1435 c 1,3,-1
 355.28125 1435 l 1,4,-1
 372.38671875 1543 l 1,5,-1
 795.38671875 1543 l 1,6,-1
 784.6171875 1475 l 1,7,8
 584.669921875 1046 584.669921875 1046 421.189453125 601 c 1,9,-1
 299.189453125 601 l 1,0,1
EndSplineSet
EndChar

StartChar: uni2078
Encoding: 8312 8312 524
Width: 768
VWidth: 2441
GlyphClass: 1
Flags: HW
LayerCount: 2
Fore
SplineSet
444.443359375 691 m 0,0,1
 500.443359375 691 500.443359375 691 539.516601562 732.5 c 128,-1,2
 578.58984375 774 578.58984375 774 590.309570312 848 c 0,3,4
 612.80078125 990 612.80078125 990 486.987304688 1048 c 1,5,6
 436.7109375 1021 436.7109375 1021 398.44921875 972 c 128,-1,7
 360.188476562 923 360.188476562 923 348.943359375 852 c 0,8,9
 337.381835938 779 337.381835938 779 363.912109375 735 c 128,-1,10
 390.443359375 691 390.443359375 691 444.443359375 691 c 0,0,1
533.93359375 1155 m 1,11,12
 625.4921875 1215.2734375 625.4921875 1215.2734375 642.616210938 1323.38769531 c 0,13,14
 651.896484375 1381.98339844 651.896484375 1381.98339844 632.009765625 1417.5 c 128,-1,15
 612.1328125 1453 612.1328125 1453 565.1328125 1453 c 0,16,17
 519.1328125 1453 519.1328125 1453 490.509765625 1417.5 c 128,-1,18
 461.887695312 1382 461.887695312 1382 453.651367188 1330 c 0,19,20
 442.880859375 1262 442.880859375 1262 466.44140625 1224.5 c 128,-1,21
 490.001953125 1187 490.001953125 1187 533.93359375 1155 c 1,11,12
425.971679688 587 m 0,22,23
 320.971679688 587 320.971679688 587 270.900390625 656 c 128,-1,24
 220.829101562 725 220.829101562 725 238.567382812 837 c 0,25,26
 252.98046875 928 252.98046875 928 300.48828125 997.5 c 128,-1,27
 347.99609375 1067 347.99609375 1067 418.6484375 1109 c 1,28,29
 327.619140625 1178.32714844 327.619140625 1178.32714844 349.78515625 1318.27636719 c 0,30,31
 366.844726562 1425.98730469 366.844726562 1425.98730469 428.151367188 1491 c 128,-1,32
 489.446289062 1556 489.446289062 1556 587.446289062 1556 c 0,33,34
 687.446289062 1556 687.446289062 1556 725.809570312 1492 c 128,-1,35
 764.172851562 1428 764.172851562 1428 748.651367188 1330 c 0,36,37
 737.564453125 1260 737.564453125 1260 700.82421875 1198.5 c 128,-1,38
 664.083007812 1137 664.083007812 1137 607.380859375 1101 c 1,39,40
 724.869140625 1022 724.869140625 1022 696.834960938 845 c 0,41,42
 678.303710938 728 678.303710938 728 605.637695312 657.5 c 128,-1,43
 532.971679688 587 532.971679688 587 425.971679688 587 c 0,22,23
EndSplineSet
EndChar

StartChar: uni2079
Encoding: 8313 8313 525
Width: 768
VWidth: 2441
GlyphClass: 1
Flags: HW
LayerCount: 2
Fore
SplineSet
414.396484375 1240 m 0,0,1
 400.775390625 1154 400.775390625 1154 426.935546875 1104.5 c 128,-1,2
 453.095703125 1055 453.095703125 1055 502.095703125 1055 c 0,3,4
 577.095703125 1055 577.095703125 1055 631.96484375 1111 c 1,5,6
 659.424804688 1297 659.424804688 1297 641.803710938 1372 c 128,-1,7
 624.182617188 1447 624.182617188 1447 562.182617188 1447 c 0,8,9
 511.182617188 1447 511.182617188 1447 471.262695312 1397 c 128,-1,10
 431.34375 1347 431.34375 1347 414.396484375 1240 c 0,0,1
399.971679688 587 m 0,11,12
 282.971679688 587 282.971679688 587 226.958984375 669 c 1,13,-1
 298.580078125 755 l 1,14,-1
 314.58984375 774 l 1,15,-1
 327.005859375 764 l 1,16,17
 328.99609375 745 328.99609375 745 337.62109375 730 c 128,-1,18
 346.245117188 715 346.245117188 715 374.443359375 691 c 0,19,20
 379.126953125 689 379.126953125 689 388.810546875 687 c 128,-1,21
 398.493164062 685 398.493164062 685 407.493164062 685 c 0,22,23
 480.493164062 685 480.493164062 685 531.4609375 779.5 c 128,-1,24
 582.427734375 874 582.427734375 874 611.54296875 1001 c 1,25,26
 552.782226562 952 552.782226562 952 480.782226562 952 c 0,27,28
 387.782226562 952 387.782226562 952 338.21484375 1030.5 c 128,-1,29
 288.6484375 1109 288.6484375 1109 309.713867188 1242 c 0,30,31
 332.99609375 1389 332.99609375 1389 409.74609375 1469.5 c 128,-1,32
 486.49609375 1550 486.49609375 1550 575.49609375 1550 c 0,33,34
 689.49609375 1550 689.49609375 1550 730.26171875 1447.5 c 128,-1,35
 771.02734375 1345 771.02734375 1345 739.508789062 1146 c 0,36,37
 693.1015625 853 693.1015625 853 608.6953125 721 c 128,-1,38
 524.288085938 589 524.288085938 589 399.971679688 587 c 0,11,12
EndSplineSet
EndChar

StartChar: fraction
Encoding: 8260 8260 526
Width: 768
VWidth: 2441
GlyphClass: 1
Flags: HW
LayerCount: 2
Fore
SplineSet
99.6865234375 -103 m 1,0,-1
 19.447265625 -54 l 1,1,-1
 827.216796875 1624 l 1,2,-1
 909.98046875 1572 l 1,3,-1
 99.6865234375 -103 l 1,0,-1
EndSplineSet
EndChar

StartChar: onehalf
Encoding: 189 189 527
Width: 768
VWidth: 2441
GlyphClass: 1
Flags: HW
LayerCount: 2
Fore
SplineSet
318.07421875 -170 m 1,0,-1
 330.270507812 -93 l 1,1,2
 425.009765625 19 425.009765625 19 488.36328125 97 c 128,-1,3
 551.716796875 175 551.716796875 175 588.116210938 237.5 c 128,-1,4
 624.515625 300 624.515625 300 635.28515625 368 c 0,5,6
 644.947265625 429 644.947265625 429 630.198242188 459 c 128,-1,7
 615.450195312 489 615.450195312 489 581.450195312 489 c 128,-1,8
 547.450195312 489 547.450195312 489 518.624023438 468 c 128,-1,9
 489.797851562 447 489.797851562 447 461.245117188 393 c 1,10,-1
 399.421875 432 l 1,11,12
 437.192382812 500 437.192382812 500 486.606445312 540.5 c 128,-1,13
 536.021484375 581 536.021484375 581 598.021484375 581 c 0,14,15
 670.021484375 581 670.021484375 581 704.810546875 526 c 128,-1,16
 739.598632812 471 739.598632812 471 722.96875 366 c 0,17,18
 704.4375 249 704.4375 249 630.7578125 150 c 128,-1,19
 557.077148438 51 557.077148438 51 451.170898438 -81 c 1,20,-1
 654.170898438 -81 l 1,21,-1
 640.07421875 -170 l 1,22,-1
 318.07421875 -170 l 1,0,-1
81.6865234375 -103 m 1,23,-1
 9.447265625 -54 l 1,24,-1
 772.216796875 1624 l 1,25,-1
 846.98046875 1572 l 1,26,-1
 81.6865234375 -103 l 1,23,-1
191.822265625 927 m 1,27,-1
 288.912109375 1540 l 1,28,-1
 185.625976562 1494 l 1,29,-1
 179.98046875 1572 l 1,30,-1
 337.293945312 1675 l 1,31,-1
 402.293945312 1675 l 1,32,-1
 283.822265625 927 l 1,33,-1
 191.822265625 927 l 1,27,-1
EndSplineSet
EndChar

StartChar: onequarter
Encoding: 188 188 528
Width: 768
VWidth: 2441
GlyphClass: 1
Flags: HW
LayerCount: 2
Fore
SplineSet
405.521484375 98 m 1,0,-1
 528.521484375 98 l 1,1,-1
 569.860351562 359 l 1,2,-1
 405.521484375 98 l 1,0,-1
484.07421875 -170 m 1,3,-1
 512.108398438 7 l 1,4,-1
 301.108398438 7 l 1,5,-1
 313.145507812 83 l 1,6,-1
 624.229492188 576 l 1,7,-1
 690.229492188 576 l 1,8,-1
 614.521484375 98 l 1,9,-1
 674.521484375 98 l 1,10,-1
 659.791992188 5 l 1,11,-1
 599.791992188 5 l 1,12,-1
 572.07421875 -170 l 1,13,-1
 484.07421875 -170 l 1,3,-1
71.6865234375 -103 m 1,14,-1
 -0.552734375 -54 l 1,15,-1
 755.216796875 1624 l 1,16,-1
 827.98046875 1572 l 1,17,-1
 71.6865234375 -103 l 1,14,-1
181.822265625 927 m 1,18,-1
 278.912109375 1540 l 1,19,-1
 176.625976562 1494 l 1,20,-1
 171.98046875 1572 l 1,21,-1
 327.293945312 1675 l 1,22,-1
 390.293945312 1675 l 1,23,-1
 271.822265625 927 l 1,24,-1
 181.822265625 927 l 1,18,-1
EndSplineSet
EndChar

StartChar: threequarters
Encoding: 190 190 529
Width: 768
VWidth: 2441
GlyphClass: 1
Flags: HW
LayerCount: 2
Fore
SplineSet
512.521484375 98 m 1,0,-1
 553.860351562 359 l 1,1,-1
 392.521484375 98 l 1,2,-1
 512.521484375 98 l 1,0,-1
496.108398438 7 m 1,3,-1
 290.108398438 7 l 1,4,-1
 302.145507812 83 l 1,5,-1
 608.229492188 576 l 1,6,-1
 671.229492188 576 l 1,7,-1
 595.521484375 98 l 1,8,-1
 654.521484375 98 l 1,9,-1
 639.791992188 5 l 1,10,-1
 580.791992188 5 l 1,11,-1
 553.07421875 -170 l 1,12,-1
 468.07421875 -170 l 1,13,-1
 496.108398438 7 l 1,3,-1
66.6865234375 -103 m 1,14,-1
 -2.552734375 -54 l 1,15,-1
 739.216796875 1624 l 1,16,-1
 810.98046875 1572 l 1,17,-1
 66.6865234375 -103 l 1,14,-1
198.080078125 916 m 0,18,19
 151.080078125 916 151.080078125 916 116.381835938 940 c 128,-1,20
 81.6826171875 964 81.6826171875 964 62.3349609375 1006 c 1,21,-1
 122.99609375 1067 l 1,22,-1
 143.688476562 1084 l 1,23,-1
 148.421875 1076 l 1,24,25
 147.448242188 1072.82324219 147.448242188 1072.82324219 146.931640625 1069.56445312 c 0,0,0
 143.059570312 1045.1171875 143.059570312 1045.1171875 164.918945312 1016 c 0,26,27
 179.701171875 1002 179.701171875 1002 207.54296875 1001 c 0,28,29
 288.5546875 1001 288.5546875 1001 309.270507812 1131.79101562 c 0,0,0
 322.922851562 1217.98828125 322.922851562 1217.98828125 294.901367188 1249.5 c 128,-1,32
 273.115234375 1274 273.115234375 1274 226.880859375 1274 c 0,0,0
 213.670898438 1274 213.670898438 1274 198.46484375 1272 c 1,33,-1
 212.0859375 1358 l 1,34,35
 215.78125 1357.90332031 215.78125 1357.90332031 219.365234375 1357.90332031 c 0,0,0
 290.130859375 1357.90332031 290.130859375 1357.90332031 317.025390625 1395.5 c 128,-1,36
 345.28125 1435 345.28125 1435 353.833984375 1489 c 0,37,38
 361.912109375 1540 361.912109375 1540 347.451171875 1565.5 c 128,-1,39
 332.989257812 1591 332.989257812 1591 304.989257812 1591 c 0,40,41
 257.989257812 1591 257.989257812 1591 217.120117188 1535 c 1,42,-1
 169.356445312 1587 l 1,43,44
 202.641601562 1633 202.641601562 1633 242.864257812 1656.5 c 128,-1,45
 283.0859375 1680 283.0859375 1680 322.0859375 1680 c 0,46,47
 386.0859375 1680 386.0859375 1680 418.825195312 1631 c 128,-1,48
 451.564453125 1582 451.564453125 1582 437.151367188 1491 c 0,49,50
 417.194335938 1365 417.194335938 1365 336.017578125 1326 c 1,51,52
 371.69140625 1305 371.69140625 1305 389.748046875 1258 c 128,-1,53
 407.803710938 1211 407.803710938 1211 395.291015625 1132 c 0,54,55
 379.453125 1032 379.453125 1032 327.266601562 974 c 128,-1,56
 275.080078125 916 275.080078125 916 198.080078125 916 c 0,18,19
EndSplineSet
EndChar

StartChar: uni2070.ss02
Encoding: 65566 -1 533
Width: 768
VWidth: 2441
GlyphClass: 1
Flags: HW
LayerCount: 2
Fore
SplineSet
442.126953125 689 m 0,0,1
 503.126953125 689 503.126953125 689 550.77734375 781.5 c 128,-1,2
 598.427734375 874 598.427734375 874 628.99609375 1067 c 0,3,4
 658.456054688 1253 658.456054688 1253 641.16015625 1349 c 128,-1,5
 623.865234375 1445 623.865234375 1445 561.865234375 1445 c 0,6,7
 503.865234375 1445 503.865234375 1445 454.16015625 1349 c 128,-1,8
 404.456054688 1253 404.456054688 1253 374.99609375 1067 c 0,9,10
 344.427734375 874 344.427734375 874 364.27734375 781.5 c 128,-1,11
 384.126953125 689 384.126953125 689 442.126953125 689 c 0,0,1
425.337890625 583 m 128,-1,13
 315.337890625 583 315.337890625 583 272.106445312 701.5 c 128,-1,14
 228.875 820 228.875 820 267.99609375 1067 c 0,15,16
 306.325195312 1309 306.325195312 1309 387.41015625 1429.5 c 128,-1,17
 468.49609375 1550 468.49609375 1550 578.49609375 1550 c 128,-1,18
 688.49609375 1550 688.49609375 1550 731.91015625 1429.5 c 128,-1,19
 775.325195312 1309 775.325195312 1309 736.99609375 1067 c 0,20,21
 697.875 820 697.875 820 616.606445312 701.5 c 128,-1,12
 535.337890625 583 535.337890625 583 425.337890625 583 c 128,-1,13
EndSplineSet
EndChar

StartChar: uni2070.zero
Encoding: 65570 -1 537
Width: 768
VWidth: 2441
GlyphClass: 1
Flags: HW
LayerCount: 2
Fore
SplineSet
501.453125 1032 m 128,-1,1
 477.453125 1032 477.453125 1032 462.120117188 1052 c 128,-1,2
 446.788085938 1072 446.788085938 1072 451.064453125 1099 c 128,-1,3
 455.340820312 1126 455.340820312 1126 476.9296875 1145.5 c 128,-1,4
 498.517578125 1165 498.517578125 1165 522.517578125 1165 c 128,-1,5
 546.517578125 1165 546.517578125 1165 562.350585938 1145 c 128,-1,6
 578.182617188 1125 578.182617188 1125 574.064453125 1099 c 0,7,8
 569.788085938 1072 569.788085938 1072 547.620117188 1052 c 128,-1,0
 525.453125 1032 525.453125 1032 501.453125 1032 c 128,-1,1
442.126953125 689 m 0,9,10
 503.126953125 689 503.126953125 689 550.77734375 781.5 c 128,-1,11
 598.427734375 874 598.427734375 874 628.99609375 1067 c 0,12,13
 658.456054688 1253 658.456054688 1253 641.16015625 1349 c 128,-1,14
 623.865234375 1445 623.865234375 1445 561.865234375 1445 c 0,15,16
 503.865234375 1445 503.865234375 1445 454.16015625 1349 c 128,-1,17
 404.456054688 1253 404.456054688 1253 374.99609375 1067 c 0,18,19
 344.427734375 874 344.427734375 874 364.27734375 781.5 c 128,-1,20
 384.126953125 689 384.126953125 689 442.126953125 689 c 0,9,10
425.337890625 583 m 128,-1,22
 315.337890625 583 315.337890625 583 272.106445312 701.5 c 128,-1,23
 228.875 820 228.875 820 267.99609375 1067 c 0,24,25
 306.325195312 1309 306.325195312 1309 387.41015625 1429.5 c 128,-1,26
 468.49609375 1550 468.49609375 1550 578.49609375 1550 c 128,-1,27
 688.49609375 1550 688.49609375 1550 731.91015625 1429.5 c 128,-1,28
 775.325195312 1309 775.325195312 1309 736.99609375 1067 c 0,29,30
 697.875 820 697.875 820 616.606445312 701.5 c 128,-1,21
 535.337890625 583 535.337890625 583 425.337890625 583 c 128,-1,22
EndSplineSet
EndChar

StartChar: period
Encoding: 46 46 538
Width: 768
VWidth: 2607
GlyphClass: 1
Flags: HW
LayerCount: 2
Fore
SplineSet
337.540039062 136 m 0,0,1
 291.540039062 136 291.540039062 136 265.400390625 173 c 128,-1,2
 239.260742188 210 239.260742188 210 247.021484375 259 c 128,-1,3
 254.782226562 308 254.782226562 308 292.326171875 343 c 128,-1,4
 329.869140625 378 329.869140625 378 375.869140625 378 c 0,5,6
 419.869140625 378 419.869140625 378 445.826171875 343 c 128,-1,7
 471.782226562 308 471.782226562 308 464.021484375 259 c 128,-1,8
 456.260742188 210 456.260742188 210 418.900390625 173 c 128,-1,9
 381.540039062 136 381.540039062 136 337.540039062 136 c 0,0,1
EndSplineSet
EndChar

StartChar: comma
Encoding: 44 44 539
Width: 768
VWidth: 2607
GlyphClass: 1
Flags: HW
LayerCount: 2
Fore
SplineSet
233.354492188 -244 m 1,0,-1
 177.015625 -183 l 1,1,2
 235.994140625 -120 235.994140625 -120 277.7890625 -55 c 128,-1,3
 319.583984375 10 319.583984375 10 326.869140625 56 c 0,4,5
 332.413085938 91 332.413085938 91 314.213867188 115 c 128,-1,6
 296.015625 139 296.015625 139 278.6875 168.5 c 128,-1,7
 261.360351562 198 261.360351562 198 268.170898438 241 c 0,8,9
 277.83203125 302 277.83203125 302 316.350585938 340 c 128,-1,10
 354.869140625 378 354.869140625 378 397.869140625 378 c 0,11,12
 443.869140625 378 443.869140625 378 474.900390625 334 c 128,-1,13
 505.931640625 290 505.931640625 290 491.834960938 201 c 0,14,15
 476.313476562 103 476.313476562 103 411.024414062 -3 c 128,-1,16
 345.736328125 -109 345.736328125 -109 233.354492188 -244 c 1,0,-1
EndSplineSet
EndChar

StartChar: colon
Encoding: 58 58 540
Width: 768
VWidth: 2716
GlyphClass: 1
Flags: HW
LayerCount: 2
Fore
SplineSet
368.803710938 245 m 128,-1,1
 322.803710938 245 322.803710938 245 297.005859375 281 c 128,-1,2
 271.208007812 317 271.208007812 317 279.28515625 368 c 0,3,4
 287.045898438 417 287.045898438 417 325.08984375 452 c 128,-1,5
 363.1328125 487 363.1328125 487 407.1328125 487 c 128,-1,6
 451.1328125 487 451.1328125 487 479.08984375 452 c 128,-1,7
 507.045898438 417 507.045898438 417 499.28515625 368 c 128,-1,8
 491.524414062 319 491.524414062 319 453.1640625 282 c 128,-1,0
 414.803710938 245 414.803710938 245 368.803710938 245 c 128,-1,1
495.669921875 1046 m 128,-1,10
 451.669921875 1046 451.669921875 1046 424.872070312 1082 c 128,-1,11
 398.07421875 1118 398.07421875 1118 405.834960938 1167 c 128,-1,12
 413.595703125 1216 413.595703125 1216 451.796875 1252 c 128,-1,13
 489.999023438 1288 489.999023438 1288 533.999023438 1288 c 128,-1,14
 577.999023438 1288 577.999023438 1288 605.638671875 1251 c 128,-1,15
 633.278320312 1214 633.278320312 1214 625.834960938 1167 c 0,16,17
 618.07421875 1118 618.07421875 1118 578.872070312 1082 c 128,-1,9
 539.669921875 1046 539.669921875 1046 495.669921875 1046 c 128,-1,10
EndSplineSet
EndChar

StartChar: semicolon
Encoding: 59 59 541
Width: 768
VWidth: 2716
GlyphClass: 1
Flags: HW
LayerCount: 2
Fore
SplineSet
243.618164062 -135 m 1,0,-1
 187.279296875 -74 l 1,1,2
 246.2578125 -11 246.2578125 -11 288.052734375 54 c 128,-1,3
 329.84765625 119 329.84765625 119 337.133789062 165 c 0,4,5
 342.676757812 200 342.676757812 200 324.478515625 224 c 128,-1,6
 306.279296875 248 306.279296875 248 288.952148438 277.5 c 128,-1,7
 271.624023438 307 271.624023438 307 278.434570312 350 c 0,8,9
 288.095703125 411 288.095703125 411 325.614257812 449 c 128,-1,10
 363.1328125 487 363.1328125 487 407.1328125 487 c 0,11,12
 453.1328125 487 453.1328125 487 484.6640625 443 c 128,-1,13
 516.1953125 399 516.1953125 399 502.099609375 310 c 0,14,15
 486.577148438 212 486.577148438 212 421.2890625 106 c 128,-1,16
 356 0 356 0 243.618164062 -135 c 1,0,-1
495.669921875 1046 m 128,-1,18
 451.669921875 1046 451.669921875 1046 424.872070312 1082 c 128,-1,19
 398.07421875 1118 398.07421875 1118 405.834960938 1167 c 128,-1,20
 413.595703125 1216 413.595703125 1216 451.796875 1252 c 128,-1,21
 489.999023438 1288 489.999023438 1288 533.999023438 1288 c 128,-1,22
 577.999023438 1288 577.999023438 1288 605.638671875 1251 c 128,-1,23
 633.278320312 1214 633.278320312 1214 625.834960938 1167 c 0,24,25
 618.07421875 1118 618.07421875 1118 578.872070312 1082 c 128,-1,17
 539.669921875 1046 539.669921875 1046 495.669921875 1046 c 128,-1,18
EndSplineSet
EndChar

StartChar: ellipsis
Encoding: 8230 8230 542
Width: 768
VWidth: 2441
GlyphClass: 1
Flags: HW
LayerCount: 2
Fore
SplineSet
18.248046875 -30 m 0,0,1
 -24.751953125 -30 -24.751953125 -30 -47.8916015625 7 c 128,-1,2
 -71.03125 44 -71.03125 44 -63.2705078125 93 c 128,-1,3
 -55.509765625 142 -55.509765625 142 -20.9658203125 177 c 128,-1,4
 13.5771484375 212 13.5771484375 212 56.5771484375 212 c 0,5,6
 97.5771484375 212 97.5771484375 212 121.534179688 177 c 128,-1,7
 145.490234375 142 145.490234375 142 137.729492188 93 c 128,-1,8
 129.96875 44 129.96875 44 94.6083984375 7 c 128,-1,9
 59.248046875 -30 59.248046875 -30 18.248046875 -30 c 0,0,1
284.248046875 -30 m 0,10,11
 241.248046875 -30 241.248046875 -30 218.108398438 7 c 128,-1,12
 194.96875 44 194.96875 44 202.729492188 93 c 128,-1,13
 210.490234375 142 210.490234375 142 245.034179688 177 c 128,-1,14
 279.577148438 212 279.577148438 212 322.577148438 212 c 0,15,16
 363.577148438 212 363.577148438 212 387.034179688 177 c 128,-1,17
 410.490234375 142 410.490234375 142 402.729492188 93 c 128,-1,18
 394.96875 44 394.96875 44 360.108398438 7 c 128,-1,19
 325.248046875 -30 325.248046875 -30 284.248046875 -30 c 0,10,11
552.248046875 -30 m 0,20,21
 511.248046875 -30 511.248046875 -30 487.108398438 7 c 128,-1,22
 462.96875 44 462.96875 44 470.729492188 93 c 128,-1,23
 478.490234375 142 478.490234375 142 514.034179688 177 c 128,-1,24
 549.577148438 212 549.577148438 212 590.577148438 212 c 0,25,26
 633.577148438 212 633.577148438 212 657.034179688 177 c 128,-1,27
 680.490234375 142 680.490234375 142 672.729492188 93 c 128,-1,28
 664.96875 44 664.96875 44 630.108398438 7 c 128,-1,29
 595.248046875 -30 595.248046875 -30 552.248046875 -30 c 0,20,21
EndSplineSet
EndChar

StartChar: exclam
Encoding: 33 33 543
Width: 768
VWidth: 2441
GlyphClass: 1
Flags: HW
LayerCount: 2
Fore
SplineSet
311.248046875 -30 m 0,0,1
 267.248046875 -30 267.248046875 -30 240.108398438 7 c 128,-1,2
 212.96875 44 212.96875 44 220.729492188 93 c 128,-1,3
 228.490234375 142 228.490234375 142 267.271484375 178.5 c 128,-1,4
 306.052734375 215 306.052734375 215 350.052734375 215 c 0,5,6
 396.052734375 215 396.052734375 215 423.271484375 178.5 c 128,-1,7
 450.490234375 142 450.490234375 142 442.729492188 93 c 128,-1,8
 434.96875 44 434.96875 44 396.108398438 7 c 128,-1,9
 357.248046875 -30 357.248046875 -30 311.248046875 -30 c 0,0,1
344.916015625 473 m 1,10,-1
 455.250976562 1479 l 2,11,12
 466.337890625 1549 466.337890625 1549 498.331054688 1590 c 128,-1,13
 530.325195312 1631 530.325195312 1631 576.325195312 1631 c 0,14,15
 620.325195312 1631 620.325195312 1631 642.41015625 1590.5 c 0,16,17
 662.392578125 1553.85742188 662.392578125 1553.85742188 649.65234375 1473.41992188 c 0,18,19
 648.311523438 1464.95214844 648.311523438 1464.95214844 646.607421875 1456 c 2,20,-1
 439.916015625 473 l 1,21,-1
 344.916015625 473 l 1,10,-1
EndSplineSet
EndChar

StartChar: question
Encoding: 63 63 545
Width: 768
VWidth: 2441
GlyphClass: 1
Flags: HW
LayerCount: 2
Fore
SplineSet
350.248046875 -30 m 0,0,1
 306.248046875 -30 306.248046875 -30 279.608398438 7 c 128,-1,2
 252.96875 44 252.96875 44 260.729492188 93 c 128,-1,3
 268.490234375 142 268.490234375 142 306.534179688 177 c 128,-1,4
 344.577148438 212 344.577148438 212 388.577148438 212 c 0,5,6
 434.577148438 212 434.577148438 212 461.034179688 177 c 128,-1,7
 487.490234375 142 487.490234375 142 479.729492188 93 c 128,-1,8
 471.96875 44 471.96875 44 434.108398438 7 c 128,-1,9
 396.248046875 -30 396.248046875 -30 350.248046875 -30 c 0,0,1
369.2109375 538 m 2,10,11
 386.6328125 648 386.6328125 648 420.798828125 718.5 c 128,-1,12
 454.96484375 789 454.96484375 789 498.122070312 840.5 c 128,-1,13
 541.279296875 892 541.279296875 892 584.356445312 943 c 128,-1,14
 627.434570312 994 627.434570312 994 661.045898438 1061 c 128,-1,15
 694.657226562 1128 694.657226562 1128 710.8125 1230 c 0,16,17
 728.235351562 1340 728.235351562 1340 694.638671875 1412 c 128,-1,18
 661.04296875 1484 661.04296875 1484 578.04296875 1484 c 0,19,20
 461.04296875 1484 461.04296875 1484 373.412109375 1379 c 1,21,22
 350.869140625 1344 350.869140625 1344 344.096679688 1326.5 c 128,-1,23
 337.325195312 1309 337.325195312 1309 342.157226562 1289 c 1,24,-1
 331.782226562 1274 l 1,25,-1
 312.682617188 1286 l 1,26,-1
 233.303710938 1372 l 1,27,28
 307.833984375 1489 307.833984375 1489 393.025390625 1556.5 c 128,-1,29
 478.216796875 1624 478.216796875 1624 605.216796875 1624 c 0,30,31
 742.216796875 1624 742.216796875 1624 810.486328125 1531 c 128,-1,32
 878.756835938 1438 878.756835938 1438 847.713867188 1242 c 0,33,34
 828.866210938 1123 828.866210938 1123 793.51171875 1045 c 128,-1,35
 758.158203125 967 758.158203125 967 713.288085938 911 c 128,-1,36
 668.418945312 855 668.418945312 855 626.658203125 806 c 128,-1,37
 584.897460938 757 584.897460938 757 550.498046875 694.5 c 128,-1,38
 516.098632812 632 516.098632812 632 501.2109375 538 c 2,39,-1
 485.213867188 437 l 1,40,-1
 353.213867188 437 l 1,41,-1
 369.2109375 538 l 2,10,11
EndSplineSet
EndChar

StartChar: periodcentered
Encoding: 183 183 547
Width: 768
VWidth: 2441
GlyphClass: 1
Flags: HW
LayerCount: 2
Fore
SplineSet
425.126953125 689 m 128,-1,1
 379.126953125 689 379.126953125 689 352.669921875 724 c 128,-1,2
 326.213867188 759 326.213867188 759 334.450195312 811 c 0,3,4
 342.2109375 860 342.2109375 860 380.75390625 895 c 128,-1,5
 419.297851562 930 419.297851562 930 463.297851562 930 c 128,-1,6
 507.297851562 930 507.297851562 930 534.674804688 894.5 c 128,-1,7
 562.051757812 859 562.051757812 859 554.450195312 811 c 0,8,9
 546.688476562 762 546.688476562 762 508.908203125 725.5 c 128,-1,0
 471.126953125 689 471.126953125 689 425.126953125 689 c 128,-1,1
EndSplineSet
Substitution2: "Single Substitution lookup 11 subtable" periodcentered.loclCAT
Substitution2: "Single Substitution lookup 10 subtable" periodcentered.loclCAT
Substitution2: "'aalt' Access All Alternates in Latin lookup 0 subtable" periodcentered.loclCAT
EndChar

StartChar: bullet
Encoding: 8226 8226 548
Width: 768
VWidth: 2441
GlyphClass: 1
Flags: HW
LayerCount: 2
Fore
SplineSet
430.427734375 552 m 0,0,1
 369.427734375 552 369.427734375 552 333.34765625 602 c 128,-1,2
 297.266601562 652 297.266601562 652 307.719726562 718 c 0,3,4
 318.806640625 788 318.806640625 788 371.567382812 837 c 128,-1,5
 424.329101562 886 424.329101562 886 483.329101562 886 c 0,6,7
 544.329101562 886 544.329101562 886 581.909179688 836 c 128,-1,8
 619.490234375 786 619.490234375 786 608.719726562 718 c 0,9,10
 598.266601562 652 598.266601562 652 545.84765625 602 c 128,-1,11
 493.427734375 552 493.427734375 552 430.427734375 552 c 0,0,1
EndSplineSet
EndChar

StartChar: asterisk
Encoding: 42 42 549
Width: 768
VWidth: 2441
GlyphClass: 1
Flags: HW
LayerCount: 2
Fore
SplineSet
188.515625 300 m 1,0,-1
 98.720703125 396 l 1,1,-1
 384.114257812 771 l 1,2,-1
 114.704101562 901 l 1,3,-1
 188.036132812 1042 l 1,4,-1
 424.745117188 876 l 1,5,-1
 469.325195312 1309 l 1,6,-1
 618.325195312 1309 l 1,7,-1
 517.745117188 876 l 1,8,-1
 815.245117188 1037 l 1,9,-1
 840.704101562 901 l 1,10,-1
 522.114257812 771 l 1,11,-1
 688.720703125 396 l 1,12,-1
 568.990234375 303 l 1,13,-1
 439.126953125 689 l 1,14,-1
 188.515625 300 l 1,0,-1
EndSplineSet
Substitution2: "'ss01' Style Set 1 in Latin lookup 35 subtable" asterisk.ss01
Substitution2: "'salt' Stylistic Alternatives in Latin lookup 34 subtable" asterisk.ss01
Substitution2: "'aalt' Access All Alternates in Latin lookup 0 subtable" asterisk.ss01
EndChar

StartChar: uni2E12
Encoding: 11794 11794 550
Width: 768
VWidth: 2212
GlyphClass: 1
Flags: HW
LayerCount: 2
Fore
SplineSet
172.037109375 -246 m 1,0,-1
 189.618164062 -135 l 1,1,2
 239.618164062 -135 239.618164062 -135 276.56640625 -78.5 c 128,-1,3
 313.515625 -22 313.515625 -22 324.444335938 47 c 0,4,5
 335.53125 117 335.53125 117 317.637695312 174.5 c 128,-1,6
 299.745117188 232 299.745117188 232 247.745117188 232 c 1,7,-1
 264.850585938 340 l 1,8,9
 351.850585938 340 351.850585938 340 400.234375 263.5 c 128,-1,10
 448.618164062 187 448.618164062 187 426.126953125 45 c 0,11,12
 404.428710938 -92 404.428710938 -92 332.733398438 -169 c 128,-1,13
 261.037109375 -246 261.037109375 -246 172.037109375 -246 c 1,0,-1
EndSplineSet
EndChar

StartChar: numbersign
Encoding: 35 35 551
Width: 768
VWidth: 2441
GlyphClass: 1
Flags: HW
LayerCount: 2
Fore
SplineSet
310.545898438 578 m 1,0,-1
 479.545898438 578 l 1,1,-1
 579.225585938 999 l 1,2,-1
 410.225585938 999 l 1,3,-1
 310.545898438 578 l 1,0,-1
346.80078125 24 m 1,4,-1
 452.916015625 473 l 1,5,-1
 281.916015625 473 l 1,6,-1
 177.54296875 35 l 1,7,-1
 72.068359375 32 l 1,8,-1
 174.124023438 468 l 1,9,-1
 22.1240234375 468 l 1,10,-1
 45.75390625 573 l 1,11,-1
 199.75390625 573 l 1,12,-1
 299.909179688 997 l 1,13,-1
 128.909179688 997 l 1,14,-1
 147.856445312 1104 l 1,15,-1
 325.856445312 1104 l 1,16,-1
 425.219726562 1523 l 1,17,-1
 536.01171875 1528 l 1,18,-1
 436.6484375 1109 l 1,19,-1
 605.6484375 1109 l 1,20,-1
 702.5859375 1519 l 1,21,-1
 815.90234375 1521 l 1,22,-1
 718.282226562 1113 l 1,23,-1
 860.282226562 1113 l 1,24,-1
 834.017578125 1004 l 1,25,-1
 691.017578125 1004 l 1,26,-1
 589.971679688 587 l 1,27,-1
 745.971679688 587 l 1,28,-1
 720.024414062 480 l 1,29,-1
 566.024414062 480 l 1,30,-1
 458.54296875 35 l 1,31,-1
 346.80078125 24 l 1,4,-1
EndSplineSet
EndChar

StartChar: slash
Encoding: 47 47 552
Width: 768
VWidth: 2441
GlyphClass: 1
Flags: HW
LayerCount: 2
Fore
SplineSet
111.686523438 -103 m 1,0,-1
 -6.2861328125 -46 l 1,1,-1
 795.216796875 1624 l 1,2,-1
 915.5546875 1563 l 1,3,-1
 111.686523438 -103 l 1,0,-1
EndSplineSet
Substitution2: "'frac' Diagonal Fractions in Latin lookup 23 subtable" fraction
Substitution2: "'aalt' Access All Alternates in Latin lookup 0 subtable" fraction
EndChar

StartChar: backslash
Encoding: 92 92 553
Width: 768
VWidth: 2441
GlyphClass: 1
Flags: HW
LayerCount: 2
Fore
SplineSet
523.686523438 -103 m 1,0,-1
 248.5546875 1563 l 1,1,-1
 385.216796875 1624 l 1,2,-1
 660.713867188 -46 l 1,3,-1
 523.686523438 -103 l 1,0,-1
EndSplineSet
EndChar

StartChar: asterisk.ss01
Encoding: 65572 -1 555
Width: 768
VWidth: 2441
GlyphClass: 1
Flags: HW
LayerCount: 2
Fore
SplineSet
211.797851562 447 m 1,0,-1
 121.844726562 542 l 1,1,-1
 407.396484375 918 l 1,2,-1
 137.987304688 1048 l 1,3,-1
 211.319335938 1189 l 1,4,-1
 448.02734375 1023 l 1,5,-1
 492.607421875 1456 l 1,6,-1
 641.607421875 1456 l 1,7,-1
 541.02734375 1023 l 1,8,-1
 838.52734375 1184 l 1,9,-1
 863.987304688 1048 l 1,10,-1
 545.396484375 918 l 1,11,-1
 711.844726562 542 l 1,12,-1
 592.114257812 449 l 1,13,-1
 462.092773438 834 l 1,14,-1
 211.797851562 447 l 1,0,-1
EndSplineSet
EndChar

StartChar: parenleft
Encoding: 40 40 556
Width: 768
VWidth: 2449
GlyphClass: 1
Flags: HW
LayerCount: 2
Fore
SplineSet
531.037109375 -246 m 1,0,1
 404.083984375 -151 404.083984375 -151 320.92578125 9 c 128,-1,2
 237.766601562 169 237.766601562 169 210.181640625 370.5 c 128,-1,3
 182.595703125 572 182.595703125 572 216.96484375 789 c 128,-1,4
 251.334960938 1006 251.334960938 1006 341.95703125 1202.5 c 128,-1,5
 432.580078125 1399 432.580078125 1399 562.129882812 1554 c 128,-1,6
 691.678710938 1709 691.678710938 1709 845.409179688 1802 c 1,7,-1
 877.452148438 1676 l 1,8,9
 753.831054688 1590 753.831054688 1590 644.657226562 1450 c 128,-1,10
 535.483398438 1310 535.483398438 1310 459.162109375 1137.5 c 128,-1,11
 382.840820312 965 382.840820312 965 353.856445312 782 c 0,12,13
 324.713867188 598 324.713867188 598 346.313476562 425 c 128,-1,14
 367.913085938 252 367.913085938 252 433.501953125 110.5 c 128,-1,15
 499.08984375 -31 499.08984375 -31 600.310546875 -118 c 1,16,-1
 531.037109375 -246 l 1,0,1
EndSplineSet
EndChar

StartChar: parenright
Encoding: 41 41 557
Width: 768
VWidth: 2449
GlyphClass: 1
Flags: HW
LayerCount: 2
Fore
SplineSet
99.037109375 -246 m 1,0,1
 256.083984375 -151 256.083984375 -151 389.42578125 9 c 0,2,3
 522.766601562 169 522.766601562 169 615.602539062 370 c 0,4,5
 705.931640625 567.705078125 705.931640625 567.705078125 739.850585938 781.857421875 c 0,0,0
 740.416015625 785.42578125 740.416015625 785.42578125 740.96484375 789 c 0,1,2
 775.334960938 1006 775.334960938 1006 747.377929688 1202 c 0,3,4
 718.580078125 1399 718.580078125 1399 638.129882812 1554 c 0,5,6
 557.678710938 1709 557.678710938 1709 433.409179688 1802 c 1,7,-1
 362.452148438 1676 l 1,8,9
 458.831054688 1590 458.831054688 1590 522.499023438 1449 c 0,10,11
 587.166992188 1308 587.166992188 1308 608.083007812 1137 c 0,12,13
 629.840820312 965 629.840820312 965 600.856445312 782 c 0,14,15
 571.713867188 598 571.713867188 598 495.313476562 425 c 0,16,17
 418.913085938 252 418.913085938 252 309.581054688 111 c 0,18,19
 199.08984375 -31 199.08984375 -31 71.310546875 -118 c 1,20,-1
 99.037109375 -246 l 1,0,1
EndSplineSet
EndChar

StartChar: braceleft
Encoding: 123 123 558
Width: 768
VWidth: 2486
GlyphClass: 1
Flags: HW
LayerCount: 2
Fore
SplineSet
521.381835938 -187 m 2,0,1
 399.381835938 -187 399.381835938 -187 319.504882812 -151.5 c 128,-1,2
 239.626953125 -116 239.626953125 -116 212.278320312 -23.5 c 128,-1,3
 187.837890625 59.1591796875 187.837890625 59.1591796875 210.985351562 205.303710938 c 0,0,0
 213.740234375 222.702148438 213.740234375 222.702148438 217.170898438 241 c 2,4,-1
 260.81640625 485 l 2,5,6
 286.31640625 646 286.31640625 646 256.185546875 702 c 128,-1,7
 226.055664062 758 226.055664062 758 150.055664062 758 c 2,8,-1
 117.055664062 758 l 1,9,-1
 138.75390625 895 l 1,10,-1
 171.75390625 895 l 2,11,12
 250.75390625 895 250.75390625 895 300.915039062 956 c 128,-1,13
 351.077148438 1017 351.077148438 1017 373.092773438 1156 c 1,14,-1
 394.809570312 1331 l 1,15,16
 428.38671875 1543 428.38671875 1543 529.833984375 1650 c 128,-1,17
 631.28125 1757 631.28125 1757 785.28125 1757 c 2,18,-1
 892.28125 1757 l 1,19,-1
 870.899414062 1622 l 1,20,-1
 743.899414062 1622 l 2,21,22
 582.899414062 1622 582.899414062 1622 541.244140625 1359 c 1,23,-1
 518.001953125 1187 l 1,24,25
 475.555664062 919 475.555664062 919 307.825195312 826 c 1,26,27
 445.73828125 756 445.73828125 756 396.956054688 448 c 1,28,-1
 361.487304688 243 l 2,29,30
 335.1953125 77 335.1953125 77 372.7421875 11 c 128,-1,31
 410.2890625 -55 410.2890625 -55 517.2890625 -55 c 2,32,-1
 603.2890625 -55 l 1,33,-1
 582.381835938 -187 l 1,34,-1
 521.381835938 -187 l 2,0,1
EndSplineSet
EndChar

StartChar: braceright
Encoding: 125 125 559
Width: 768
VWidth: 2486
GlyphClass: 1
Flags: HW
LayerCount: 2
Fore
SplineSet
49.3818359375 -187 m 2,0,1
 171.381835938 -187 171.381835938 -187 261.92578125 -152 c 0,2,3
 353.626953125 -116 353.626953125 -116 410.357421875 -23 c 0,4,5
 461.051757812 60.1064453125 461.051757812 60.1064453125 484.080078125 205.5 c 0,0,0
 486.821289062 222.80859375 486.821289062 222.80859375 489.170898438 241 c 2,1,-1
 522.81640625 485 l 2,2,3
 548.31640625 646 548.31640625 646 595.185546875 702 c 0,4,5
 643.055664062 758 643.055664062 758 720.055664062 758 c 2,6,-1
 753.055664062 758 l 1,7,-1
 774.75390625 895 l 1,8,-1
 741.75390625 895 l 2,9,10
 662.75390625 895 662.75390625 895 632.415039062 956 c 0,11,12
 601.823242188 1015.54785156 601.823242188 1015.54785156 623.02734375 1149.42480469 c 0,0,0
 623.543945312 1152.69042969 623.543945312 1152.69042969 624.092773438 1156 c 2,1,-1
 656.809570312 1331 l 1,2,3
 690.38671875 1543 690.38671875 1543 622.493164062 1651 c 0,4,5
 554.28125 1757 554.28125 1757 401.28125 1757 c 2,6,-1
 294.28125 1757 l 1,7,-1
 272.899414062 1622 l 1,8,-1
 399.899414062 1622 l 2,9,10
 560.899414062 1622 560.899414062 1622 519.244140625 1359 c 1,11,-1
 487.001953125 1187 l 1,12,13
 444.555664062 919 444.555664062 919 583.825195312 826 c 1,14,15
 423.73828125 756 423.73828125 756 374.956054688 448 c 1,16,-1
 345.487304688 243 l 2,17,18
 319.1953125 77 319.1953125 77 260.583984375 10 c 0,19,20
 203.002929688 -55.0146484375 203.002929688 -55.0146484375 98.4677734375 -55.0146484375 c 0,0,0
 96.8837890625 -55.0146484375 96.8837890625 -55.0146484375 95.2890625 -55 c 2,1,-1
 9.2890625 -55 l 1,2,-1
 -11.6181640625 -187 l 1,3,-1
 49.3818359375 -187 l 2,0,1
EndSplineSet
EndChar

StartChar: bracketleft
Encoding: 91 91 560
Width: 768
VWidth: 2516
GlyphClass: 1
Flags: HW
LayerCount: 2
Fore
SplineSet
95.509765625 -142 m 1,0,-1
 388.99609375 1711 l 1,1,-1
 889.99609375 1711 l 1,2,-1
 867.504882812 1569 l 1,3,-1
 501.504882812 1569 l 1,4,-1
 251.733398438 -8 l 1,5,-1
 619.733398438 -8 l 1,6,-1
 598.509765625 -142 l 1,7,-1
 95.509765625 -142 l 1,0,-1
EndSplineSet
EndChar

StartChar: bracketright
Encoding: 93 93 561
Width: 768
VWidth: 2516
GlyphClass: 1
Flags: HW
LayerCount: 2
Fore
SplineSet
574.509765625 -142 m 1,0,-1
 867.99609375 1711 l 1,1,-1
 367.99609375 1711 l 1,2,-1
 345.504882812 1569 l 1,3,-1
 711.504882812 1569 l 1,4,-1
 461.733398438 -8 l 1,5,-1
 92.7333984375 -8 l 1,6,-1
 71.509765625 -142 l 1,7,-1
 574.509765625 -142 l 1,0,-1
EndSplineSet
EndChar

StartChar: hyphen
Encoding: 45 45 562
Width: 768
VWidth: 2441
GlyphClass: 1
Flags: HW
LayerCount: 2
Fore
SplineSet
207.7109375 699 m 1,0,-1
 231.626953125 850 l 1,1,-1
 709.626953125 850 l 1,2,-1
 685.7109375 699 l 1,3,-1
 207.7109375 699 l 1,0,-1
EndSplineSet
EndChar

StartChar: endash
Encoding: 8211 8211 564
Width: 768
VWidth: 2441
GlyphClass: 1
Flags: HW
LayerCount: 2
Fore
SplineSet
138.7109375 699 m 1,0,-1
 162.626953125 850 l 1,1,-1
 777.626953125 850 l 1,2,-1
 753.7109375 699 l 1,3,-1
 138.7109375 699 l 1,0,-1
EndSplineSet
EndChar

StartChar: emdash
Encoding: 8212 8212 565
Width: 768
VWidth: 2441
GlyphClass: 1
Flags: HW
LayerCount: 2
Fore
SplineSet
29.7109375 699 m 1,0,-1
 53.626953125 850 l 1,1,-1
 789.626953125 850 l 1,2,-1
 765.7109375 699 l 1,3,-1
 29.7109375 699 l 1,0,-1
EndSplineSet
EndChar

StartChar: underscore
Encoding: 95 95 569
Width: 768
VWidth: 2441
GlyphClass: 1
Flags: HW
LayerCount: 2
Fore
SplineSet
-66.568359375 -193 m 1,0,-1
 -44.0771484375 -51 l 1,1,-1
 691.922851562 -51 l 1,2,-1
 669.431640625 -193 l 1,3,-1
 -66.568359375 -193 l 1,0,-1
EndSplineSet
EndChar

StartChar: quotedblleft
Encoding: 8220 8220 572
Width: 768
VWidth: 2441
GlyphClass: 1
Flags: HW
LayerCount: 2
Fore
SplineSet
471.762695312 1558 m 1,0,-1
 526.943359375 1496 l 1,1,2
 465.96484375 1433 465.96484375 1433 421.853515625 1366 c 128,-1,3
 377.741210938 1299 377.741210938 1299 369.188476562 1245 c 0,4,5
 363.645507812 1210 363.645507812 1210 382.84375 1186 c 128,-1,6
 402.04296875 1162 402.04296875 1162 421.345703125 1135.5 c 128,-1,7
 440.6484375 1109 440.6484375 1109 433.99609375 1067 c 0,8,9
 424.809570312 1009 424.809570312 1009 389.44921875 972 c 128,-1,10
 354.08984375 935 354.08984375 935 308.08984375 935 c 0,11,12
 259.08984375 935 259.08984375 935 230.271484375 983.5 c 128,-1,13
 201.453125 1032 201.453125 1032 213.96484375 1111 c 0,14,15
 229.486328125 1209 229.486328125 1209 290.93359375 1316 c 128,-1,16
 352.380859375 1423 352.380859375 1423 471.762695312 1558 c 1,0,-1
826.762695312 1558 m 1,17,-1
 879.943359375 1496 l 1,18,19
 815.96484375 1433 815.96484375 1433 773.853515625 1366 c 128,-1,20
 731.741210938 1299 731.741210938 1299 723.188476562 1245 c 0,21,22
 717.645507812 1210 717.645507812 1210 736.84375 1186 c 128,-1,23
 756.04296875 1162 756.04296875 1162 775.345703125 1135.5 c 128,-1,24
 794.6484375 1109 794.6484375 1109 787.99609375 1067 c 0,25,26
 778.809570312 1009 778.809570312 1009 743.44921875 972 c 128,-1,27
 708.08984375 935 708.08984375 935 662.08984375 935 c 0,28,29
 613.08984375 935 613.08984375 935 584.271484375 983.5 c 128,-1,30
 555.453125 1032 555.453125 1032 567.96484375 1111 c 0,31,32
 583.486328125 1209 583.486328125 1209 645.43359375 1316 c 128,-1,33
 707.380859375 1423 707.380859375 1423 826.762695312 1558 c 1,17,-1
EndSplineSet
EndChar

StartChar: quoteleft
Encoding: 8216 8216 574
Width: 768
VWidth: 2441
GlyphClass: 1
Flags: HW
LayerCount: 2
Fore
SplineSet
643.762695312 1558 m 1,0,-1
 696.943359375 1496 l 1,1,2
 635.96484375 1433 635.96484375 1433 592.353515625 1366 c 128,-1,3
 548.741210938 1299 548.741210938 1299 540.188476562 1245 c 0,4,5
 534.645507812 1210 534.645507812 1210 554.34375 1186 c 128,-1,6
 574.04296875 1162 574.04296875 1162 592.345703125 1135.5 c 128,-1,7
 610.6484375 1109 610.6484375 1109 603.99609375 1067 c 0,8,9
 594.809570312 1009 594.809570312 1009 559.94921875 972 c 128,-1,10
 525.08984375 935 525.08984375 935 478.08984375 935 c 0,11,12
 429.08984375 935 429.08984375 935 400.771484375 983.5 c 128,-1,13
 372.453125 1032 372.453125 1032 384.96484375 1111 c 0,14,15
 400.486328125 1209 400.486328125 1209 462.43359375 1316 c 128,-1,16
 524.380859375 1423 524.380859375 1423 643.762695312 1558 c 1,0,-1
EndSplineSet
EndChar

StartChar: quoteright
Encoding: 8217 8217 575
Width: 768
VWidth: 2441
GlyphClass: 1
Flags: HW
LayerCount: 2
Fore
SplineSet
396.08984375 935 m 1,0,-1
 338.909179688 997 l 1,1,2
 402.887695312 1060 402.887695312 1060 445.737304688 1128.5 c 128,-1,3
 488.5859375 1197 488.5859375 1197 496.98046875 1250 c 0,4,5
 502.524414062 1285 502.524414062 1285 483.087890625 1307.5 c 128,-1,6
 463.651367188 1330 463.651367188 1330 444.427734375 1357 c 128,-1,7
 425.204101562 1384 425.204101562 1384 431.856445312 1426 c 0,8,9
 441.04296875 1484 441.04296875 1484 477.40234375 1521 c 128,-1,10
 513.762695312 1558 513.762695312 1558 560.762695312 1558 c 0,11,12
 606.762695312 1558 606.762695312 1558 636.739257812 1510.5 c 128,-1,13
 666.716796875 1463 666.716796875 1463 653.887695312 1382 c 0,14,15
 638.840820312 1287 638.840820312 1287 575.65625 1178.5 c 128,-1,16
 512.471679688 1070 512.471679688 1070 396.08984375 935 c 1,0,-1
EndSplineSet
EndChar

StartChar: guillemotleft
Encoding: 171 171 576
Width: 768
VWidth: 2441
GlyphClass: 1
Flags: HW
LayerCount: 2
Fore
SplineSet
614.599609375 149 m 1,0,-1
 414.853515625 561 l 1,1,-1
 423.723632812 617 l 1,2,-1
 736.583007812 976 l 1,3,-1
 803.745117188 876 l 1,4,-1
 551.288085938 589 l 1,5,-1
 714.12109375 247 l 1,6,-1
 614.599609375 149 l 1,0,-1
307.599609375 149 m 1,7,-1
 101.853515625 561 l 1,8,-1
 110.723632812 617 l 1,9,-1
 428.583007812 976 l 1,10,-1
 493.745117188 876 l 1,11,-1
 241.288085938 589 l 1,12,-1
 406.12109375 247 l 1,13,-1
 307.599609375 149 l 1,7,-1
EndSplineSet
EndChar

StartChar: guilsinglleft
Encoding: 8249 8249 578
Width: 768
VWidth: 2441
GlyphClass: 1
Flags: HW
LayerCount: 2
Fore
SplineSet
446.599609375 149 m 1,0,-1
 243.853515625 561 l 1,1,-1
 252.723632812 617 l 1,2,-1
 568.583007812 976 l 1,3,-1
 634.219726562 879 l 1,4,-1
 379.288085938 589 l 1,5,-1
 545.645507812 244 l 1,6,-1
 446.599609375 149 l 1,0,-1
EndSplineSet
EndChar

StartChar: guilsinglright
Encoding: 8250 8250 579
Width: 768
VWidth: 2441
GlyphClass: 1
Flags: HW
LayerCount: 2
Fore
SplineSet
246.599609375 149 m 1,0,-1
 179.645507812 244 l 1,1,-1
 456.288085938 589 l 1,2,-1
 289.219726562 879 l 1,3,-1
 387.583007812 976 l 1,4,-1
 590.723632812 617 l 1,5,-1
 581.853515625 561 l 1,6,-1
 246.599609375 149 l 1,0,-1
EndSplineSet
EndChar

StartChar: quotedbl
Encoding: 34 34 580
Width: 768
VWidth: 2441
GlyphClass: 1
Flags: HW
LayerCount: 2
Fore
SplineSet
378.216796875 1624 m 1,0,-1
 529.216796875 1624 l 1,1,2
 505.93359375 1477 505.93359375 1477 489.99609375 1389 c 0,3,4
 474.05859375 1301 474.05859375 1301 460.5546875 1241 c 0,5,6
 447.051757812 1181 447.051757812 1181 432.499023438 1127 c 0,7,8
 417.788085938 1072 417.788085938 1072 400.434570312 994 c 1,9,-1
 307.434570312 994 l 1,10,11
 314.946289062 1073 314.946289062 1073 318.499023438 1127 c 0,12,13
 321.209960938 1182 321.209960938 1182 325.396484375 1240 c 0,14,15
 330.583007812 1298 330.583007812 1298 342.837890625 1388 c 0,16,17
 354.93359375 1477 354.93359375 1477 378.216796875 1624 c 1,0,-1
652.216796875 1624 m 1,18,-1
 803.216796875 1624 l 1,19,20
 779.93359375 1477 779.93359375 1477 763.99609375 1389 c 0,21,22
 748.05859375 1301 748.05859375 1301 733.5546875 1241 c 0,23,24
 720.051757812 1181 720.051757812 1181 705.499023438 1127 c 0,25,26
 690.788085938 1072 690.788085938 1072 673.434570312 994 c 1,27,-1
 580.434570312 994 l 1,28,29
 587.946289062 1073 587.946289062 1073 591.499023438 1127 c 0,30,31
 594.209960938 1182 594.209960938 1182 599.396484375 1240 c 0,32,33
 604.583007812 1298 604.583007812 1298 616.837890625 1388 c 0,34,35
 628.93359375 1477 628.93359375 1477 652.216796875 1624 c 1,18,-1
EndSplineSet
Substitution2: "'ss03' Style Set 3 in Latin lookup 37 subtable" quotedbl.ss03
Substitution2: "'aalt' Access All Alternates in Latin lookup 0 subtable" quotedbl.ss03
EndChar

StartChar: quotesingle
Encoding: 39 39 581
Width: 768
VWidth: 2441
GlyphClass: 1
Flags: HW
LayerCount: 2
Fore
SplineSet
515.216796875 1624 m 1,0,-1
 666.216796875 1624 l 1,1,2
 642.93359375 1477 642.93359375 1477 626.575195312 1389.5 c 128,-1,3
 610.216796875 1302 610.216796875 1302 597.134765625 1241.5 c 128,-1,4
 584.051757812 1181 584.051757812 1181 568.919921875 1126.5 c 128,-1,5
 553.788085938 1072 553.788085938 1072 536.434570312 994 c 1,6,-1
 443.434570312 994 l 1,7,8
 450.946289062 1073 450.946289062 1073 453.999023438 1127 c 128,-1,9
 457.051757812 1181 457.051757812 1181 462.396484375 1240 c 128,-1,10
 467.741210938 1299 467.741210938 1299 479.837890625 1388 c 128,-1,11
 491.93359375 1477 491.93359375 1477 515.216796875 1624 c 1,0,-1
EndSplineSet
Substitution2: "'ss03' Style Set 3 in Latin lookup 37 subtable" quotesingle.ss03
Substitution2: "'aalt' Access All Alternates in Latin lookup 0 subtable" quotesingle.ss03
EndChar

StartChar: quotesingle.ss03
Encoding: 65574 -1 583
Width: 768
VWidth: 2441
GlyphClass: 1
Flags: HW
LayerCount: 2
Fore
SplineSet
511.225585938 999 m 1,0,-1
 419.235351562 1018 l 1,1,2
 482.52734375 1184 482.52734375 1184 503.6875 1295.5 c 128,-1,3
 524.846679688 1407 524.846679688 1407 538.151367188 1491 c 0,4,5
 559.057617188 1623 559.057617188 1623 634.216796875 1624 c 0,6,7
 707.216796875 1624 707.216796875 1624 687.943359375 1496 c 0,8,9
 678.756835938 1438 678.756835938 1438 658.541015625 1373.5 c 128,-1,10
 638.325195312 1309 638.325195312 1309 602.966796875 1221.5 c 128,-1,11
 567.608398438 1134 567.608398438 1134 511.225585938 999 c 1,0,-1
EndSplineSet
EndChar

StartChar: hyphen_greater.dlig
Encoding: 65575 -1 584
Width: 768
VWidth: 2441
GlyphClass: 1
Flags: HW
LayerCount: 2
Fore
SplineSet
57.1357421875 708 m 1,0,-1
 79.943359375 852 l 1,1,-1
 581.943359375 852 l 1,2,-1
 559.135742188 708 l 1,3,-1
 57.1357421875 708 l 1,0,-1
276.413085938 91 m 1,4,-1
 304.129882812 266 l 1,5,-1
 733.22265625 778 l 1,6,-1
 462.564453125 1260 l 1,7,-1
 489.96484375 1433 l 1,8,-1
 814.04296875 840 l 1,9,-1
 795.353515625 722 l 1,10,-1
 276.413085938 91 l 1,4,-1
EndSplineSet
Ligature2: "'dlig' Discretionary Ligatures in Latin lookup 32 subtable" hyphen greater
EndChar

